<?xml version="1.0" encoding="UTF-8" standalone="no"?>
<!-- Created with Inkscape (http://www.inkscape.org/) -->

<svg
   width="200.38379"
   height="200.38419"
   viewBox="0 0 53.018211 53.018316"
   version="1.1"
   id="svg5"
   xml:space="preserve"
   inkscape:version="1.3 (0e150ed6c4, 2023-07-21)"
   sodipodi:docname="mockup.svg"
   xmlns:inkscape="http://www.inkscape.org/namespaces/inkscape"
   xmlns:sodipodi="http://sodipodi.sourceforge.net/DTD/sodipodi-0.dtd"
   xmlns="http://www.w3.org/2000/svg"
   xmlns:svg="http://www.w3.org/2000/svg"><sodipodi:namedview
     id="namedview7"
     pagecolor="#505050"
     bordercolor="#eeeeee"
     borderopacity="1"
     inkscape:showpageshadow="0"
     inkscape:pageopacity="0"
     inkscape:pagecheckerboard="0"
     inkscape:deskcolor="#505050"
     inkscape:document-units="mm"
     showgrid="false"
     showborder="false"
     inkscape:zoom="1"
     inkscape:cx="10293.5"
     inkscape:cy="-184.5"
     inkscape:window-width="2558"
     inkscape:window-height="1418"
     inkscape:window-x="0"
     inkscape:window-y="0"
     inkscape:window-maximized="1"
     inkscape:current-layer="layer1"
     inkscape:export-bgcolor="#00000000" /><defs
     id="defs2" /><g
     inkscape:label="Livello 1"
     inkscape:groupmode="layer"
     id="layer1"
     transform="translate(-2782.9219,107.94778)"><style
   id="style2">.st0{fill:#4c4c4c}</style>&#10;  &#10;  &#10;  &#10;  &#10;  &#10;  &#10;  &#10;  &#10;  &#10;  &#10;  &#10;  &#10;  &#10;  &#10;  &#10;  &#10;<title
   id="title4">SFML Logo</title><rect
   style="fill:none;fill-opacity:1;stroke:none;stroke-width:0.0380604"
   id="rect766-9-5-2-3"
   width="53.018314"
   height="53.018314"
   x="2782.9219"
   y="-107.94778"
   inkscape:export-filename="biscottotk.svg"
   inkscape:export-xdpi="899.48761"
   inkscape:export-ydpi="899.48761" /><path
   style="fill:#ffffff;stroke-width:0.391807"
   d="m 2804.8699,-55.030303 c -10.203,-0.96099 -19.4814,-10.35953 -19.4887,-19.74087 0,-1.11152 1.3301,-1.30668 1.4928,-0.2189 0.027,0.18283 0.102,0.70561 0.1649,1.16174 1.8431,13.35321 16.2977,21.17995 28.5085,15.43634 l 1.0316,-0.48528 -0.2473,-0.29404 c -0.6433,-0.76443 -0.5367,-4.12037 0.1581,-5.00464 1.0229,-1.30043 4.2318,-1.44609 5.3203,-0.24152 l 0.6552,0.72517 0.4455,-0.55856 c 4.4062,-5.52449 5.5167,-13.80184 2.7122,-20.21755 l -0.2103,-0.480861 -0.8639,-0.07072 c -1.3754,-0.112715 -1.7072,-0.382498 -1.3936,-1.133109 0.1909,-0.457113 0.4116,-0.517839 1.5566,-0.428484 1.7905,0.139745 2.035,0.393412 2.9149,3.023104 2.316,6.9225 0.9439,14.70797 -3.6,20.42597 -0.5745,0.72285 -0.6008,0.78241 -0.6008,1.35097 0,0.60966 -0.32,1.29351 -1.6229,3.46927 -0.6402,1.06907 -1.5243,1.27807 -2.7543,0.65118 l -0.7211,-0.36752 -1.5717,0.77793 c -3.774,1.86821 -7.7469,2.61036 -11.8862,2.22047 z m 14.4017,-5.46339 c 0.7319,-1.27889 0.2793,-2.92127 -0.783,-2.84226 -0.8144,0.0605 -0.8069,0.0445 -0.9267,1.99934 l -0.066,1.08848 0.607,0.32381 c 0.3339,0.1781 0.6153,0.32971 0.6252,0.33692 0.017,0.007 0.2548,-0.40062 0.5441,-0.90629 z m -13.374,-2.01246 c -0.7846,-0.60228 -0.4608,-2.55584 0.4236,-2.55584 0.5529,0 0.8293,0.44706 0.8293,1.34106 0,0.89399 -0.2764,1.34106 -0.8293,1.34106 -0.1428,0 -0.3332,-0.0568 -0.4236,-0.12632 z m -6.936,-2.10558 c -0.7922,-0.34353 -0.9007,-0.52024 -1.5049,-2.44913 -0.7679,-2.45247 -0.7232,-2.6134 1.1682,-4.19822 1.8974,-1.58993 2.1612,-1.61511 4.0735,-0.38877 1.8899,1.21216 1.9683,1.37177 1.7565,3.57581 -0.2175,2.26187 -0.3385,2.39192 -2.9036,3.11926 -1.9596,0.5557 -2.0631,0.56935 -2.5897,0.34105 z m 1.0757,-1.59255 c 0.4568,-0.1737 0.5899,-0.52802 0.7415,-1.9743 0.153,-1.46044 0.1224,-1.66839 -0.2987,-2.0606 l -0.2648,-0.24649 -0.8346,0.69601 c -0.4588,0.3828 -0.8344,0.71982 -0.8344,0.74893 0,0.0772 0.8468,2.76591 0.9,2.85775 0.061,0.10557 0.278,0.0978 0.591,-0.0212 z m 12.9184,-1.45594 c -0.8329,-0.83287 0.7523,-1.80346 2.0096,-1.23053 0.526,0.23964 0.5728,1.06179 0.075,1.3279 -0.3863,0.20673 -1.8494,0.13838 -2.0852,-0.0974 z m 4.9205,-0.0996 c -0.7674,-0.30757 -0.5454,-1.55904 0.2766,-1.55904 0.271,0 0.8155,0.5446 0.8155,0.81557 0,0.46213 -0.6647,0.9147 -1.0921,0.74347 z m -24.7772,-3.05749 c -0.4895,-0.48957 -0.1581,-1.30053 0.5306,-1.30053 0.7606,0 1.0674,0.81171 0.4996,1.32174 -0.3378,0.30362 -0.713,0.2959 -1.0302,-0.0212 z m -1.8094,-0.75208 c -0.7234,-0.26601 -0.7059,-1.25464 0.027,-1.51462 0.2298,-0.0816 0.6919,0.0899 0.8686,0.32234 0.4294,0.56533 -0.2261,1.43837 -0.8955,1.19228 z m 20.8887,-0.68592 c -0.9017,-0.35287 -1.0903,-0.66559 -1.8155,-3.01158 -0.8167,-2.64176 -0.7936,-2.71826 1.3697,-4.53972 2.2395,-1.88549 2.4221,-1.89498 4.92,-0.25569 1.8111,1.18843 1.8998,1.37819 1.7016,3.63898 -0.2508,2.86029 -0.2747,2.88652 -3.4664,3.78446 -1.9386,0.5454 -2.2009,0.58252 -2.7094,0.38355 z m 1.4465,-1.71091 c 1.2306,-0.41475 1.625,-4.13173 0.5192,-4.89251 -0.5889,-0.40529 -0.5108,-0.4302 -1.6477,0.52561 -1.1648,0.97949 -1.1325,0.83079 -0.5724,2.63529 0.6784,2.18391 0.599,2.10304 1.7009,1.73161 z m 7.5386,-2.22718 c -0.6638,-0.70657 0.2918,-1.70168 1.0565,-1.1002 0.3422,0.26922 0.3745,0.82412 0.066,1.1328 -0.2887,0.28874 -0.8353,0.27288 -1.1223,-0.0326 z m -20.3128,-0.24411 c -0.2613,-0.10524 -0.4459,-0.62306 -0.3303,-0.92708 0.3061,-0.80549 1.3464,-0.71294 1.51,0.1343 0.1105,0.57603 -0.574,1.03645 -1.1797,0.79272 z m -15.2771,-1.39644 c -0.5609,-0.56085 0.2465,-4.58653 1.5013,-7.486765 2.0044,-4.632306 5.658,-8.499838 10.1574,-10.752261 1.8904,-0.946369 2.1696,-0.875284 4.0595,1.033993 l 1.2425,1.255025 2.1786,5.87e-4 c 2.893,7.85e-4 2.5525,-0.14913 4.8208,2.122714 l 1.9169,1.919668 2.1262,5.87e-4 c 2.974,8.23e-4 3.0569,0.03692 4.0411,1.756497 0.5981,1.045275 0.4359,0.96549 2.2109,1.087998 1.1746,0.08109 1.6729,0.537746 1.2654,1.159663 -0.2761,0.421463 -0.4614,0.456467 -1.8538,0.350196 -1.9159,-0.146205 -2.0077,-0.201814 -2.9673,-1.799086 l -0.5702,-0.949029 -2.3325,-0.05183 c -2.8333,-0.06297 -2.4321,0.124105 -4.7674,-2.221803 l -1.813,-1.821156 h -2.2492 c -2.7527,0 -2.53,0.08354 -4.1967,-1.575162 l -1.3642,-1.357556 -0.45,0.177833 c -5.7662,2.278523 -10.6478,8.948948 -11.5255,15.749227 -0.2064,1.59753 -0.7255,2.10588 -1.4308,1.40068 z m 10.3811,-0.0189 c -1.7317,-0.21482 -1.9376,-0.4458 -2.6409,-2.96372 -0.781,-2.79653 -0.5892,-3.15497 2.1397,-3.997488 2.4438,-0.754505 2.6186,-0.708977 4.1196,1.073808 1.6808,1.99644 1.7048,2.21003 0.465,4.1632 -1.2113,1.90829 -1.5265,2.04135 -4.0834,1.7242 z m 0.7126,-2.43472 c 0.7566,-1.15229 0.7353,-1.3855 -0.2298,-2.52597 l -0.3983,-0.47078 -0.7268,0.21199 c -0.8186,0.23878 -0.704,2.9669 0.1479,3.50715 0.4053,0.25723 0.6673,0.10047 1.2075,-0.72239 z m 11.6144,-1.45788 c -0.5148,-0.41682 -0.1826,-1.361 0.4787,-1.361 0.383,0 0.5641,0.10779 0.7346,0.43787 0.3934,0.76061 -0.5386,1.46959 -1.2133,0.92313 z m -7.2399,-3.811127 c -0.5704,-0.72506 -0.078,-1.281847 1.1327,-1.281847 1.2111,0 1.7033,0.556787 1.1329,1.281847 -0.2031,0.258341 -0.2647,0.273149 -1.1329,0.273149 -0.868,0 -0.9294,-0.0153 -1.1327,-0.273149 z m 29.7273,-1.984301 c -0.5306,-0.249375 -4.954,-4.444347 -5.1296,-4.864705 -0.3734,-0.893197 0.102,-3.344622 0.7454,-3.851351 0.4529,-0.356199 3.3082,-0.781648 5.1558,-0.768194 1.4733,0.01071 1.9403,1.190073 1.9403,4.899765 0,4.030986 -0.8463,5.461467 -2.7119,4.584485 z m 0.9823,-1.740435 c 0.1224,-0.38982 0.1496,-4.541503 0.037,-5.461609 l -0.087,-0.699742 h -0.3792 c -0.4952,0 -3.8943,0.319209 -3.9477,0.370724 -0.059,0.05676 -0.3097,1.496103 -0.3162,1.813353 -0.017,0.29059 4.2551,4.395251 4.4836,4.319071 0.061,-0.02066 0.1564,-0.174465 0.2079,-0.341797 z m -34.9016,0.258394 c -0.488,-0.383803 -0.3853,-0.7849 0.3918,-1.531029 0.7283,-0.699393 0.9429,-0.761439 1.3681,-0.395667 0.8638,0.743072 -0.8621,2.632788 -1.7599,1.926696 z m 15.5072,-4.207617 c -1.0414,-0.513225 -1.9107,-3.320834 -1.3432,-4.337274 1.2535,-2.244715 4.3263,-0.404689 4.3263,2.590557 0,1.301496 -1.7764,2.341576 -2.9831,1.746717 z m 1.355,-1.579188 c 0.1829,-0.182825 -0.5522,-2.187924 -0.8021,-2.187924 -0.604,0 -0.6426,0.18827 -0.2759,1.345198 l 0.3366,1.06207 0.3262,-0.06527 c 0.1796,-0.03589 0.3664,-0.105233 0.4152,-0.154093 z m 4.7899,-2.130899 c -0.058,-0.02139 -0.2436,-0.06982 -0.4146,-0.107648 -0.2166,-0.04791 -0.8567,-0.608554 -2.1108,-1.849134 -2.8405,-2.809732 -2.8403,-2.909472 0.017,-5.742542 2.2561,-2.23944 2.2719,-2.24551 4.2284,-1.62748 0.9478,0.29942 1.1596,0.49724 1.1147,1.04084 -0.061,0.7473 -0.8852,0.80814 -2.5081,0.18538 -0.2083,-0.0799 -3.3819,2.99348 -3.3819,3.27493 0,0.0903 0.7188,0.87756 1.5972,1.74947 l 1.5974,1.58527 2.1606,-0.06729 2.1606,-0.06729 1.4772,-1.52233 c 1.7502,-1.80362 1.691,-1.55295 0.5372,-2.27869 -2.0178,-1.26927 -1.9078,-1.17923 -1.9422,-1.59014 -0.066,-0.80233 0.6073,-1.00242 1.5779,-0.46824 2.6289,1.44697 3.2512,2.27436 2.6617,3.5404 -0.1992,0.42799 -3.2534,3.526662 -3.7416,3.796229 -0.2411,0.133098 -4.7165,0.265072 -5.0278,0.148262 z m -14.254,-2.609505 c -3.4992,-1.327059 -4.0733,-1.909779 -3.3605,-3.411669 0.721,-1.51957 7.43,-5.21498 9.0316,-4.9748 0.8213,0.12316 1.4819,0.89935 1.4819,1.74119 0,0.45225 -1.2403,3.83367 -1.5887,4.33089 -0.4801,0.68551 -4.9533,2.54608 -5.5643,2.314389 z m 2.3827,-2.355229 1.9159,-0.85245 0.6498,-1.65215 c 0.8636,-2.19625 0.868,-2.17019 -0.3008,-1.74912 -2.3494,0.84644 -4.5934,2.1325 -6.392,3.66358 -0.4167,0.35454 -0.2576,0.51846 0.967,0.99744 1.3758,0.5381 0.8961,0.59992 3.1601,-0.4073 z"
   id="path73806" /></g></svg>
