<?xml version="1.0" encoding="UTF-8" standalone="no"?>
<!-- Created with Inkscape (http://www.inkscape.org/) -->

<svg
   width="200.38379"
   height="200.38419"
   viewBox="0 0 53.018211 53.018316"
   version="1.1"
   id="svg5"
   xml:space="preserve"
   inkscape:version="1.3 (0e150ed6c4, 2023-07-21)"
   sodipodi:docname="mockup.svg"
   xmlns:inkscape="http://www.inkscape.org/namespaces/inkscape"
   xmlns:sodipodi="http://sodipodi.sourceforge.net/DTD/sodipodi-0.dtd"
   xmlns="http://www.w3.org/2000/svg"
   xmlns:svg="http://www.w3.org/2000/svg"><sodipodi:namedview
     id="namedview7"
     pagecolor="#505050"
     bordercolor="#eeeeee"
     borderopacity="1"
     inkscape:showpageshadow="0"
     inkscape:pageopacity="0"
     inkscape:pagecheckerboard="0"
     inkscape:deskcolor="#505050"
     inkscape:document-units="mm"
     showgrid="false"
     showborder="false"
     inkscape:zoom="1"
     inkscape:cx="10293.5"
     inkscape:cy="-184.5"
     inkscape:window-width="2558"
     inkscape:window-height="1418"
     inkscape:window-x="0"
     inkscape:window-y="0"
     inkscape:window-maximized="1"
     inkscape:current-layer="layer1"
     inkscape:export-bgcolor="#00000000" /><defs
     id="defs2" /><g
     inkscape:label="Livello 1"
     inkscape:groupmode="layer"
     id="layer1"
     transform="translate(-2864.0913,107.94778)"><style
   id="style2">.st0{fill:#4c4c4c}</style>&#10;  &#10;  &#10;  &#10;  &#10;  &#10;  &#10;  &#10;  &#10;  &#10;  &#10;  &#10;  &#10;  &#10;  &#10;  &#10;  &#10;<title
   id="title4">SFML Logo</title><rect
   style="fill:none;fill-opacity:1;stroke:none;stroke-width:0.0380604"
   id="rect766-9-5-2-3-6"
   width="53.018314"
   height="53.018314"
   x="2864.0913"
   y="-107.94778"
   inkscape:export-filename="duco.svg"
   inkscape:export-xdpi="899.48761"
   inkscape:export-ydpi="899.48761" /><path
   id="path16"
   style="fill:#ffffff;fill-opacity:1;stroke-width:0.117307;stroke-linecap:round;stroke-linejoin:round;stroke-opacity:0"
   d="m 2890.6005,-107.71923 a 26.509184,26.280523 0 0 0 -26.5091,26.280617 26.509184,26.280523 0 0 0 26.5091,26.280601 26.509184,26.280523 0 0 0 26.5091,-26.280601 26.509184,26.280523 0 0 0 -26.5091,-26.280617 z m -3.3096,12.340416 c 3.6307,-0.02224 7.4572,0.06402 8.2811,0.278939 4.0407,1.054048 7.5648,4.769696 8.8903,9.373665 0.5366,1.864127 0.563,6.463295 0.047,8.413377 -1.3506,5.117306 -5.8551,9.437609 -10.1582,9.743391 -0.7721,0.05487 -13.5935,0.104345 -13.6468,0.05269 h -2e-4 c -0.02,-0.01933 -0.1337,-0.04645 -0.2558,-0.06038 -0.2837,-0.03263 -0.4685,-2.977702 -0.2689,-4.285021 0.072,-0.467735 -0.4976,-0.428671 6.664,-0.460233 4.1724,-0.01839 6.3032,-0.04396 6.4288,-0.07731 0.103,-0.02743 0.3037,-0.07327 0.4456,-0.101943 2.6331,-0.531918 5.0494,-3.10084 5.891,-6.263431 1.4361,-5.395009 -1.8032,-11.125482 -6.6181,-11.707752 -0.2839,-0.03429 -2.374,-0.05113 -6.3715,-0.05124 -6.8152,-1.57e-4 -6.3653,0.0318 -6.4398,-0.455941 -0.05,-0.323543 -0.045,-3.746471 0.018,-4.025255 0.04,-0.220202 3.4742,-0.351176 7.1049,-0.373456 z m -4.2652,5.739889 c 0.4737,0.0031 1.0248,0.0072 1.6653,0.0072 5.2608,-0.0022 5.3425,0.0063 6.5641,0.602576 6.3897,3.119389 5.1374,14.820116 -1.6876,15.769389 -0.8537,0.118764 -8.8911,0.05903 -9.1348,-0.06786 -0.2017,-0.104996 -0.2205,-0.130418 -0.2516,-0.337936 -0.056,-0.37537 -0.078,-3.216901 -0.025,-3.321604 0.025,-0.05155 0.052,-0.167458 0.06,-0.25775 0.029,-0.364031 -0.1536,-0.348618 4.4472,-0.378321 4.5198,-0.0292 4.3277,-0.015 4.8208,-0.354553 1.9509,-1.343608 2.0078,-5.361567 0.096,-6.798415 -0.5817,-0.437339 -0.3399,-0.41567 -4.9638,-0.444198 -5.0929,-0.03139 -4.4484,0.285019 -4.4484,-2.18346 0,-2.206293 -0.4588,-2.256093 2.8584,-2.235016 z" /></g></svg>
