<?xml version="1.0" encoding="UTF-8" standalone="no"?>
<!-- Created with Inkscape (http://www.inkscape.org/) -->

<svg
   width="200.38477"
   height="201.91565"
   viewBox="0 0 53.018469 53.423516"
   version="1.1"
   id="svg5"
   xml:space="preserve"
   inkscape:version="1.3 (0e150ed6c4, 2023-07-21)"
   sodipodi:docname="mockup.svg"
   xmlns:inkscape="http://www.inkscape.org/namespaces/inkscape"
   xmlns:sodipodi="http://sodipodi.sourceforge.net/DTD/sodipodi-0.dtd"
   xmlns="http://www.w3.org/2000/svg"
   xmlns:svg="http://www.w3.org/2000/svg"><sodipodi:namedview
     id="namedview7"
     pagecolor="#505050"
     bordercolor="#eeeeee"
     borderopacity="1"
     inkscape:showpageshadow="0"
     inkscape:pageopacity="0"
     inkscape:pagecheckerboard="0"
     inkscape:deskcolor="#505050"
     inkscape:document-units="mm"
     showgrid="false"
     showborder="false"
     inkscape:zoom="1"
     inkscape:cx="10293.5"
     inkscape:cy="-184.5"
     inkscape:window-width="2558"
     inkscape:window-height="1418"
     inkscape:window-x="0"
     inkscape:window-y="0"
     inkscape:window-maximized="1"
     inkscape:current-layer="layer1"
     inkscape:export-bgcolor="#00000000" /><defs
     id="defs2" /><g
     inkscape:label="Livello 1"
     inkscape:groupmode="layer"
     id="layer1"
     transform="translate(-2639.0222,108.15038)"><style
   id="style2">.st0{fill:#4c4c4c}</style>&#10;  &#10;  &#10;  &#10;  &#10;  &#10;  &#10;  &#10;  &#10;  &#10;  &#10;  &#10;  &#10;  &#10;  &#10;  &#10;  &#10;<title
   id="title4">SFML Logo</title><rect
   style="fill:none;fill-opacity:1;stroke:none;stroke-width:0.0380604"
   id="rect766-9"
   width="53.018314"
   height="53.018314"
   x="2639.0222"
   y="-107.94778"
   inkscape:export-filename="github.svg"
   inkscape:export-xdpi="899.48761"
   inkscape:export-ydpi="899.48761" /><g
   id="SVGRepo_iconCarrier-04-0"
   transform="matrix(2.6703556,-0.00198123,0.00198123,2.6703556,2634.7962,-113.4563)"
   style="fill:#ffffff;fill-opacity:1"><path
     d="M 18.6713,2.62664 C 18.5628,2.36483 18.3534,2.16452 18.0959,2.07627 L 18.094,2.07564 18.0922,2.07501 18.0884,2.07374 18.0805,2.07114 18.0636,2.06583 C 18.0518,2.06223 18.039,2.05856 18.0252,2.05487 17.9976,2.04749 17.966,2.04007 17.9305,2.03319 17.8593,2.01941 17.7728,2.00787 17.6708,2.00279 17.466,1.99259 17.2037,2.00858 16.8817,2.08054 16.3447,2.20053 15.6476,2.47464 14.7724,3.03631 14.7152,3.07302 14.6572,3.11096 14.5985,3.15016 14.5397,3.13561 14.4809,3.12155 14.422,3.108 12.8261,2.74083 11.1742,2.74083 9.57825,3.108 9.51933,3.12156 9.46049,3.13561 9.40173,3.15017 9.34298,3.11096 9.28499,3.07302 9.22775,3.03631 8.35163,2.47435 7.65291,2.20029 7.11455,2.08039 6.79179,2.00852 6.52891,1.99262 6.324,2.00278 6.22186,2.00784 6.13536,2.01931 6.06428,2.03299 6.0288,2.03982 5.99732,2.04717 5.96983,2.05447 5.95609,2.05812 5.94336,2.06176 5.93163,2.06531 L 5.91481,2.07056 5.90698,2.07311 5.9032,2.07437 5.90135,2.07499 5.89952,2.07561 C 5.63979,2.16397 5.42877,2.36623 5.32049,2.63061 4.91716,3.6154 4.8101,4.70134 5.00435,5.74306 5.01379,5.79367 5.02394,5.84418 5.0348,5.89458 4.99316,5.95373 4.9527,6.01368 4.91343,6.07439 4.30771,7.01089 3.98553,8.12791 4.00063,9.27493 4.00208,11.7315 4.71965,13.4139 5.9332,14.4965 c 0.68694,0.6128 1.48423,0.9879 2.28553,1.2243 0.09169,0.0271 0.18344,0.0523 0.27508,0.0759 -0.01338,0.0465 -0.02585,0.0934 -0.0374,0.1406 -0.04852,0.1984 -0.08069,0.4021 -0.09558,0.6088 -0.00135,0.0187 -0.0022,0.0374 -0.00254,0.0561 l -0.03393,1.8188 -1.9e-4,0.0197 c 0,0.0057 0,0.0114 0,0.017 C 8.26262,18.473 8.20005,18.4843 8.13682,18.4916 7.942,18.5141 7.74467,18.4977 7.5561,18.4434 7.36752,18.3891 7.19127,18.2979 7.03752,18.1749 6.88377,18.0519 6.75553,17.8994 6.66031,17.7261 L 6.6505,17.7087 C 6.38836,17.2535 6.02627,16.8639 5.59142,16.5695 5.15656,16.275 4.6604,16.0836 4.14047,16.0099 3.59365,15.9324 3.08753,16.3128 3.01002,16.8597 c -0.07751,0.5468 0.30294,1.0529 0.84976,1.1304 0.21838,0.031 0.4271,0.1114 0.61034,0.2355 0.18109,0.1226 0.33265,0.2847 0.44328,0.4744 0.2212,0.3992 0.51825,0.7514 0.87461,1.0365 0.35952,0.2877 0.77231,0.5014 1.21471,0.6288 0.43076,0.124 0.8812,0.1638 1.32677,0.1172 9e-4,0.2399 0.00154,0.424 0.00154,0.5175 0,0.5523 0.42418,1 0.94744,1 h 5.47733 c 0.5232,0 0.9474,-0.4477 0.9474,-1 v -3.7905 c 0.0258,-0.4293 -0.0182,-0.8596 -0.1294,-1.2722 -0.0153,-0.0568 -0.0319,-0.1133 -0.0497,-0.1694 0.0597,-0.0149 0.1194,-0.0306 0.1791,-0.0471 0.8245,-0.2271 1.6481,-0.5984 2.3556,-1.2225 1.2203,-1.0766 1.9394,-2.7604 1.9408,-5.22337 C 20.0147,8.12791 19.6925,7.01089 19.0868,6.07439 19.0475,6.01358 19.007,5.95354 18.9652,5.89429 18.976,5.84399 18.9861,5.79358 18.9955,5.74306 19.1893,4.69934 19.0795,3.61142 18.6713,2.62664 Z"
     fill="#323232"
     id="path1-8-2"
     style="fill:#ffffff;fill-opacity:1" /></g></g></svg>
