<?xml version="1.0" encoding="UTF-8" standalone="no"?>
<!-- Created with Inkscape (http://www.inkscape.org/) -->

<svg
   width="200.38379"
   height="200.388"
   viewBox="0 0 53.018211 53.019325"
   version="1.1"
   id="svg5"
   xml:space="preserve"
   inkscape:version="1.3 (0e150ed6c4, 2023-07-21)"
   sodipodi:docname="mockup.svg"
   xmlns:inkscape="http://www.inkscape.org/namespaces/inkscape"
   xmlns:sodipodi="http://sodipodi.sourceforge.net/DTD/sodipodi-0.dtd"
   xmlns="http://www.w3.org/2000/svg"
   xmlns:svg="http://www.w3.org/2000/svg"><sodipodi:namedview
     id="namedview7"
     pagecolor="#505050"
     bordercolor="#eeeeee"
     borderopacity="1"
     inkscape:showpageshadow="0"
     inkscape:pageopacity="0"
     inkscape:pagecheckerboard="0"
     inkscape:deskcolor="#505050"
     inkscape:document-units="mm"
     showgrid="false"
     showborder="false"
     inkscape:zoom="0.70710678"
     inkscape:cx="10106.677"
     inkscape:cy="-212.83914"
     inkscape:window-width="2558"
     inkscape:window-height="1418"
     inkscape:window-x="0"
     inkscape:window-y="0"
     inkscape:window-maximized="1"
     inkscape:current-layer="layer1"
     inkscape:export-bgcolor="#00000000" /><defs
     id="defs2" /><g
     inkscape:label="Livello 1"
     inkscape:groupmode="layer"
     id="layer1"
     transform="translate(-2567.7209,107.94828)"><style
   id="style2">.st0{fill:#4c4c4c}</style>&#10;  &#10;  &#10;  &#10;  &#10;  &#10;  &#10;  &#10;  &#10;  &#10;  &#10;  &#10;  &#10;  &#10;  &#10;  &#10;  &#10;<title
   id="title4">SFML Logo</title><rect
   style="fill:none;fill-opacity:1;stroke:none;stroke-width:0.0380604"
   id="rect766"
   width="53.018314"
   height="53.018314"
   x="2567.7209"
   y="-107.94778"
   inkscape:export-filename="../../dev/portfolio/src/assets/images/svg/experience/portfolio.svg"
   inkscape:export-xdpi="899.48761"
   inkscape:export-ydpi="899.48761" /><path
   style="fill:#ffffff;fill-opacity:1;stroke-width:0.079514;stroke-linecap:square"
   id="path768"
   d="m 2585.9202,-107.92221 c -0.072,-0.006 -0.1416,-0.0224 -0.2124,-0.0256 -0.3571,-0.006 -0.595,0.0467 -0.9637,0.0994 -0.7941,0.11408 -1.5746,0.25117 -2.3596,0.41683 -1.5759,0.37545 -3.087,0.97333 -4.5046,1.75557 -0.2715,0.14987 -0.5342,0.31541 -0.8013,0.47298 -0.9132,0.58862 -1.7857,1.24735 -2.4585,2.10919 -0.4145,0.53098 -0.4658,0.66867 -0.7969,1.24825 -0.436,0.8535 -0.7277,1.76506 -0.7477,2.730279 -0.018,0.627958 0.052,0.802052 0.1654,1.412147 0.2232,0.872003 0.5941,1.699682 1.186,2.385737 0.3794,0.439548 0.5781,0.572899 1.0227,0.941155 1.8286,1.242334 1.123,0.784826 4.8539,2.832665 0.2095,0.115031 0.4386,0.190455 0.6637,0.270984 0.8063,0.287918 1.6459,0.463418 2.4795,0.648952 1.6709,0.368607 3.3793,0.494672 5.086,0.52388 0.9397,0.01599 1.8821,-0.02557 2.813,-0.158504 0.048,-0.01287 0.1047,-0.0096 0.1415,-0.04026 0.057,-0.04794 0.1888,-0.140288 0.1287,-0.183742 -1.2391,-0.888555 -2.5349,-1.697381 -3.8431,-2.480387 -0.068,-0.04027 -0.1525,0.03195 -0.2303,0.0425 -0.2674,0.03963 -0.5366,0.06647 -0.8047,0.100657 -1.5093,0.221132 -2.9944,0.578075 -4.4721,0.950454 -1.2056,0.363398 -2.4115,0.748429 -3.5645,1.25908 -0.6397,0.283445 -0.8884,0.433029 -1.4957,0.761722 -0.8757,0.517873 -1.7007,1.121033 -2.4439,1.81677 -0.4584,0.429161 -0.5505,0.550816 -0.9674,1.012927 -0.5281,0.696885 -1.0595,1.427038 -1.3808,2.248806 -0.1882,0.481473 -0.2114,0.72197 -0.3085,1.224664 -0.1323,1.067507 0.028,2.159874 0.4138,3.163375 0.077,0.199401 0.1728,0.39056 0.2594,0.585872 0.5044,0.995159 1.2393,1.846071 2.1355,2.509787 0.2155,0.159772 0.4447,0.299744 0.6671,0.449679 2.0659,1.301836 4.0219,2.513526 6.3168,3.228052 1.2285,0.382539 2.4819,0.627414 3.7447,0.861585 1.4489,0.228482 2.9126,0.415325 4.3809,0.452811 0.8362,0.01917 2.5723,-0.02877 3.389,-0.08853 0.6261,-0.04601 1.2494,-0.125895 1.8742,-0.188855 1.9133,-0.241266 3.8129,-0.592074 5.6784,-1.083198 0.5963,-0.156905 1.193,-0.31668 1.7772,-0.513877 1.4872,-0.502245 2.0072,-0.801061 3.4197,-1.473534 2.0958,-1.0785 4.0514,-2.436962 5.7734,-4.049085 1.0494,-0.982441 1.2717,-1.298259 2.1966,-2.37353 1.1827,-1.493537 2.1258,-3.156567 2.7743,-4.948186 0.3919,-1.082366 0.4351,-1.378978 0.7094,-2.486109 0.096,-0.967166 0.2116,-1.651941 0.1213,-2.624701 -0.085,-0.906481 -0.304,-1.697829 -0.661,-2.532602 -0.4224,-0.988035 -0.6472,-1.222652 -1.2464,-2.088774 -0.2557,-0.275457 -0.4927,-0.56964 -0.7673,-0.826402 -1.379,-1.289757 -4.3544,-2.742334 -5.3187,-3.251894 -0.3108,-0.16393 -0.6612,-0.2435 -1.0034,-0.32387 -0.9116,-0.2141 -1.2099,-0.16106 -2.1393,-0.16169 -1.1288,0.11408 -2.2552,0.35902 -3.2664,0.89706 -0.4343,0.23136 -0.8422,0.510301 -1.2479,0.788857 -1.3819,0.948952 -1.5992,1.205459 -2.9311,2.353301 -2.8277,2.535097 -5.4233,5.322962 -7.8262,8.262009 -0.4591,0.56165 -0.902,1.136434 -1.353,1.704636 -1.2191,1.607747 -2.4512,3.214088 -3.5554,4.904886 -0.3952,0.605079 -0.7614,1.22853 -1.1424,1.842621 -0.5077,0.8187 -1.9225,3.096906 -2.4245,3.905413 -2.1621,3.491142 -4.3307,6.978354 -6.4772,10.479178 -1.2718,2.054007 -2.498,4.13607 -3.772,6.188574 -0.6031,0.96723 -1.2496,1.905477 -1.9134,2.831612 0,0 3.7934,2.221676 3.7934,2.221676 v 0 c 0.5974,-0.975315 1.1764,-1.961366 1.7514,-2.950007 1.1981,-2.098009 2.3672,-4.212282 3.5565,-6.315372 2.0262,-3.566718 4.1029,-7.105281 6.2885,-10.577122 2.2714,-3.603147 4.5741,-7.193608 7.1458,-10.592557 0.4423,-0.569064 0.8757,-1.145127 1.327,-1.707225 2.3642,-2.945981 4.9491,-5.730075 7.8396,-8.167707 1.3955,-1.067283 2.7456,-2.148402 4.3582,-2.879961 1.0114,-0.458721 2.0994,-0.689536 3.2045,-0.738907 0.9229,0.04697 1.1707,0.0064 2.0657,0.270343 0.3292,0.09779 1.2389,0.572996 0.9608,0.371548 -0.8246,-0.597314 -1.7233,-1.087991 -2.6188,-1.572564 -0.3176,-0.171923 0.6029,0.400339 0.8803,0.631825 0.2869,0.239667 0.5386,0.518607 0.8078,0.777893 0.6348,0.828095 0.8656,1.042038 1.3241,2.000576 0.7974,1.667024 0.8821,3.131579 0.6413,4.938473 -0.2502,1.08195 -0.2912,1.389619 -0.6592,2.447985 -0.6115,1.75829 -1.5082,3.396585 -2.6432,4.871781 -0.8836,1.054725 -1.1125,1.389235 -2.1268,2.346528 -1.6878,1.592887 -3.612,2.924858 -5.674,3.984472 -0.5529,0.25852 -1.0959,0.539888 -1.6589,0.775976 -2.8984,1.215365 -6.0202,1.811175 -9.125,2.190966 -0.6338,0.04825 -1.2665,0.111209 -1.9012,0.14413 -2.6155,0.134847 -5.2415,-0.03197 -7.8164,-0.512088 -0.452,-0.09395 -0.9062,-0.177033 -1.356,-0.281529 -1.1818,-0.273857 -2.347,-0.619265 -3.4659,-1.090706 -0.304,-0.128138 -1.1751,-0.595043 -0.8986,-0.415071 0.9235,0.600956 1.8969,1.121321 2.8456,1.681948 -0.22,-0.134847 -0.4463,-0.260117 -0.6601,-0.404334 -0.8898,-0.600731 -1.6466,-1.38476 -2.185,-2.314507 -0.092,-0.18183 -0.1928,-0.35953 -0.2755,-0.545768 -0.4114,-0.926486 -0.6037,-1.951172 -0.5088,-2.961127 0.077,-0.472847 0.088,-0.675156 0.2547,-1.127424 0.2914,-0.788918 0.7809,-1.495231 1.2958,-2.151183 0.409,-0.457379 0.4784,-0.554652 0.9301,-0.97934 0.7181,-0.675445 1.5203,-1.249463 2.369,-1.749631 0.6062,-0.332752 0.8016,-0.455717 1.4422,-0.741942 1.1376,-0.508285 2.3293,-0.889931 3.5333,-1.204468 1.4972,-0.359724 3.0072,-0.696983 4.546,-0.81653 0.2198,-0.0096 0.6117,-0.03834 0.8481,-0.01599 0.072,0.0064 0.2702,0.09044 0.211,0.04921 -1.1987,-0.834742 -2.4273,-1.625386 -3.641,-2.438079 0.035,-0.0441 0.096,-0.07669 0.1048,-0.131649 0,-0.02877 -0.057,0.01599 -0.086,0.02237 -0.864,0.167125 -1.7465,0.20036 -2.6247,0.195886 -1.6788,-0.02877 -3.3543,-0.175746 -4.9919,-0.565869 -0.8434,-0.206112 -1.6755,-0.413886 -2.4802,-0.74664 -0.2201,-0.09108 -0.8506,-0.425679 -0.6484,-0.300063 0.8048,0.500361 4.5281,2.66899 2.4542,1.435346 -0.1839,-0.134203 -0.3734,-0.259797 -0.55,-0.402734 -0.8891,-0.719063 -1.4455,-1.556746 -1.7773,-2.650649 -0.1361,-0.551583 -0.2127,-0.728426 -0.2228,-1.302442 -0.018,-0.906579 0.2549,-1.764648 0.6514,-2.569673 0.3031,-0.541071 0.3587,-0.688571 0.7448,-1.181741 0.6416,-0.81918 1.4715,-1.45679 2.3369,-2.02247 0.2592,-0.15306 0.5139,-0.31412 0.7777,-0.45904 1.3965,-0.76792 2.8966,-1.32481 4.4592,-1.64236 0.7257,-0.12813 0.9481,-0.18054 1.6685,-0.25788 0.6468,-0.0697 1.324,-0.1406 1.951,0.0783 0,0 -3.5427,-2.7251 -3.5427,-2.7251 z" /></g></svg>
