<?xml version="1.0" encoding="UTF-8" standalone="no"?>
<!-- Created with Inkscape (http://www.inkscape.org/) -->

<svg
   width="200.38379"
   height="200.38416"
   viewBox="0 0 53.018211 53.018308"
   version="1.1"
   id="svg5"
   xml:space="preserve"
   inkscape:version="1.3 (0e150ed6c4, 2023-07-21)"
   sodipodi:docname="mockup.svg"
   xmlns:inkscape="http://www.inkscape.org/namespaces/inkscape"
   xmlns:sodipodi="http://sodipodi.sourceforge.net/DTD/sodipodi-0.dtd"
   xmlns="http://www.w3.org/2000/svg"
   xmlns:svg="http://www.w3.org/2000/svg"><sodipodi:namedview
     id="namedview7"
     pagecolor="#505050"
     bordercolor="#eeeeee"
     borderopacity="1"
     inkscape:showpageshadow="0"
     inkscape:pageopacity="0"
     inkscape:pagecheckerboard="0"
     inkscape:deskcolor="#505050"
     inkscape:document-units="mm"
     showgrid="false"
     showborder="false"
     inkscape:zoom="1.4142136"
     inkscape:cx="9044.6028"
     inkscape:cy="-212.48559"
     inkscape:window-width="2558"
     inkscape:window-height="1418"
     inkscape:window-x="0"
     inkscape:window-y="0"
     inkscape:window-maximized="1"
     inkscape:current-layer="layer1"
     inkscape:export-bgcolor="#00000000" /><defs
     id="defs2" /><g
     inkscape:label="Livello 1"
     inkscape:groupmode="layer"
     id="layer1"
     transform="translate(-2262.1265,46.713203)"><rect
   style="fill:none;fill-opacity:1;stroke:none;stroke-width:0.212703;stroke-linecap:round;stroke-linejoin:round;stroke-opacity:1"
   id="rect6-9-5-6-9-5"
   width="53.018307"
   height="53.018307"
   x="2262.1265"
   y="-46.713203" /><g
   id="SVGRepo_iconCarrier-83"
   transform="matrix(0.65284285,0.13366314,-0.13366314,0.65284285,2299.5172,-40.923969)"
   style="fill:#ffffff;fill-opacity:1"><path
     fill-rule="nonzero"
     clip-rule="nonzero"
     d="M 5.46619,2.00322 C 5.46619,1.44916 5.91535,1 6.46941,1 h 3.00966 c 0.55403,0 1.00323,0.44915 1.00323,1.00322 v 3.00966 c 0,0.0866 -0.011,0.17064 -0.0316,0.2508 0.0206,0.08017 0.0316,0.16421 0.0316,0.25081 v 2.50805 h 1.254 V 6.0161 c 0,-0.41555 0.3369,-0.75242 0.7524,-0.75242 0.4156,0 0.7524,0.33687 0.7524,0.75242 v 2.00644 h 2.0065 C 15.6631,8.02254 16,8.35941 16,8.77495 16,9.1905 15.6631,9.52737 15.2476,9.52737 h -2.0363 c -0.1479,1.82443 -0.8386,3.28043 -1.9334,4.31013 -1.2329,1.1597 -2.90416,1.7092 -4.68309,1.7092 -1.62423,0 -3.15807,-0.4576 -4.35257,-1.4212 C 1.03896,13.1549 0.236443,11.7155 0.0125343,9.86728 -0.115917,8.80699 0.763545,8.02254 1.70412,8.02254 h 0.2508 V 5.51449 c 0,-0.55406 0.44916,-1.00322 1.00322,-1.00322 h 2.50805 z m 0,4.01288 H 3.45975 V 8.02254 H 5.46619 Z M 1.70412,9.52737 c -0.07216,0 -0.12965,0.02946 -0.16348,0.06454 -0.02998,0.03108 -0.03829,0.06061 -0.0342,0.09438 0.18133,1.49681 0.81052,2.56611 1.68061,3.26801 0.87888,0.7089 2.06008,1.0876 3.40776,1.0876 1.47619,0 2.75186,-0.4537 3.65209,-1.3005 0.7646,-0.7192 1.3129,-1.7728 1.4538,-3.21403 z M 6.97102,8.02254 H 8.97746 V 6.0161 H 6.97102 Z m 0,-3.51127 H 8.97746 V 2.50483 H 6.97102 Z"
     fill="#000000"
     id="path1-80"
     style="fill:#ffffff;fill-opacity:1" /></g><g
   id="SVGRepo_iconCarrier-62"
   transform="matrix(0.66987861,0,0,0.66987861,2277.9189,-30.922778)"
   style="fill:#ffffff;fill-opacity:1"><title
     id="title1-5">cloudflare</title><path
     d="m 25.079,15.102 c -0.015,0 -0.032,-10e-4 -0.049,-10e-4 -0.087,0 -0.174,0.005 -0.258,0.016 l 0.01,-0.001 c -0.074,0.004 -0.136,0.054 -0.158,0.121 v 10e-4 l -0.422,1.468 c -0.068,0.187 -0.108,0.402 -0.108,0.627 0,0.378 0.112,0.731 0.305,1.026 l -0.004,-0.007 c 0.309,0.397 0.786,0.649 1.323,0.649 0.002,0 0.004,0 0.005,0 v 0 l 2.304,0.142 c 10e-4,0 0.003,0 0.004,0 0.067,0 0.127,0.035 0.161,0.087 v 0.001 c 0.022,0.037 0.035,0.082 0.035,0.129 0,0.023 -0.003,0.046 -0.009,0.068 v -0.002 c -0.04,0.107 -0.138,0.184 -0.254,0.194 h -10e-4 l -2.401,0.14 c -1.447,0.159 -2.644,1.089 -3.18,2.366 l -0.01,0.026 -0.176,0.448 c -0.006,0.015 -0.01,0.032 -0.01,0.05 0,0.07 0.057,0.127 0.127,0.127 0.002,0 0.004,0 0.006,0 h 8.244 c 0.001,0 0.002,0 0.002,0 0.099,0 0.182,-0.066 0.208,-0.156 v -0.002 c 0.138,-0.479 0.218,-1.03 0.22,-1.599 V 21.019 C 30.984,17.757 28.34,15.116 25.077,15.112 v 0 z m -3.445,6.952 c 0.068,-0.186 0.107,-0.401 0.107,-0.625 0,-0.379 -0.112,-0.731 -0.306,-1.026 l 0.004,0.007 c -0.308,-0.397 -0.785,-0.65 -1.322,-0.65 -0.002,0 -0.003,0 -0.005,0 v 0 L 9.291,19.62 c -0.001,0 -0.002,0 -0.003,0 -0.068,0 -0.128,-0.035 -0.163,-0.088 v -0.001 c -0.022,-0.036 -0.036,-0.08 -0.036,-0.127 0,-0.024 0.003,-0.047 0.01,-0.069 v 0.002 c 0.04,-0.107 0.137,-0.184 0.253,-0.195 h 10e-4 l 10.917,-0.14 c 1.447,-0.16 2.643,-1.09 3.182,-2.366 l 0.01,-0.026 0.624,-1.626 c 0.017,-0.039 0.027,-0.085 0.027,-0.133 0,-0.027 -0.003,-0.054 -0.009,-0.079 v 0.002 c -0.735,-3.203 -3.561,-5.555 -6.936,-5.555 -3.109,0 -5.751,1.996 -6.717,4.776 l -0.015,0.05 c -0.528,-0.399 -1.195,-0.64 -1.919,-0.64 -1.651,0 -3.01,1.252 -3.179,2.859 l -0.001,0.014 c -0.01,0.097 -0.016,0.21 -0.016,0.324 0,0.281 0.035,0.555 0.1,0.816 L 5.416,17.395 c -2.452,0.071 -4.413,2.076 -4.413,4.539 0,0.002 0,0.004 0,0.006 v 0 c 0.002,0.234 0.018,0.463 0.047,0.687 L 1.047,22.599 c 0.017,0.104 0.104,0.182 0.211,0.184 h 19.971 c 0.12,-0.003 0.22,-0.083 0.253,-0.192 v -0.002 l 0.15,-0.533 z"
     id="path1-44"
     style="fill:#ffffff;fill-opacity:1" /></g><g
   id="SVGRepo_iconCarrier-05"
   transform="matrix(0.26918689,-0.03273916,0.03273916,0.26918689,2268.7824,-8.339822)"
   style="fill:#ffffff;fill-opacity:1"><path
     d="M 16.255,3.172 C 10.526,3.042 5.442,6.833 3.942,12.365 c 0.068,-0.026 -0.073,0.016 0,0 -5.167,3.401 -5.229,10.812 -0.328,14.589 l 0.005,-0.01 -0.01,0.042 c 1.568,1.182 3.474,1.813 5.438,1.807 h 6.896 l 0.042,0.036 h 6.922 c 8.917,0.073 12.5,-11.469 5.115,-16.464 -0.635,-2.349 -1.943,-4.458 -3.76,-6.068 L 24.205,6.354 24.21,6.286 C 22.007,4.343 19.189,3.239 16.257,3.171 Z m -0.479,5.531 c 1.656,-0.057 3.359,0.49 4.646,1.531 1.609,1.344 2.526,3.344 2.484,5.438 v 0.693 c 4.708,-0.094 4.708,7.016 0,6.922 h -6.922 l -0.01,0.01 V 23.245 H 9.047 c -0.49,0 -0.974,-0.104 -1.422,-0.307 -2.203,-0.995 -2.729,-3.891 -1.021,-5.604 1.714,-1.708 4.604,-1.182 5.604,1.021 l 4.016,-4.016 c -1.333,-1.74 -3.26,-2.932 -5.411,-3.354 0.026,-0.01 0.052,-0.031 0.073,-0.026 1.26,-1.385 3.026,-2.198 4.896,-2.255 z"
     id="path1-02"
     style="fill:#ffffff;fill-opacity:1" /></g><g
   id="SVGRepo_iconCarrier-17"
   transform="matrix(0.50184918,0.13511977,-0.13511977,0.50184918,2270.2777,-40.423849)"
   style="fill:#ffffff;fill-opacity:1"><path
     fill-rule="nonzero"
     clip-rule="nonzero"
     d="m 7.62016,0.102166 c 0.23472,-0.1362213 0.52496,-0.1362213 0.75968,0 L 14.626,3.72717 C 14.8576,3.86157 15,4.10825 15,4.375 v 7.25 c 0,0.2668 -0.1424,0.5134 -0.374,0.6478 l -6.24616,3.625 c -0.23472,0.1363 -0.52496,0.1363 -0.75968,0 L 1.374,12.2728 C 1.14241,12.1384 1,11.8918 1,11.625 V 4.375 C 1,4.10825 1.14241,3.86157 1.374,3.72717 Z M 2.50769,4.80578 V 11.1942 L 8,14.3817 13.4923,11.1942 V 4.80578 L 8,1.61828 Z M 4.98331,4.55709 C 5.265,4.441 5.58925,4.50517 5.80484,4.71967 L 10.0462,8.93934 V 5.25 c 0,-0.41421 0.3375,-0.75 0.7538,-0.75 0.4163,0 0.7538,0.33579 0.7538,0.75 v 5.5 c 0,0.3033 -0.1836,0.5768 -0.4653,0.6929 -0.2817,0.1161 -0.606,0.0519 -0.8216,-0.1626 L 6.02564,7.06066 V 10.75 c 0,0.4142 -0.33751,0.75 -0.75385,0.75 -0.41633,0 -0.75384,-0.3358 -0.75384,-0.75 v -5.5 c 0,-0.30335 0.18367,-0.57682 0.46536,-0.69291 z"
     fill="#000000"
     id="path1-43"
     style="fill:#ffffff;fill-opacity:1" /></g><g
   id="SVGRepo_iconCarrier-22"
   transform="matrix(0.43930735,0,0,0.43930735,2295.413,-12.487266)"
   style="fill:#ffffff;fill-opacity:1"><title
     id="title1-64">mariadb</title><path
     d="m 29.942,6.518 c -0.597,0.293 -1.3,0.465 -2.042,0.465 -0.017,0 -0.034,0 -0.051,0 h 0.003 c -0.543,0 -1.064,0.096 -1.546,0.271 l 0.032,-0.01 c -1.052,0.391 -1.916,1.082 -2.513,1.969 l -0.012,0.018 c -0.495,0.693 -1.011,1.505 -1.487,2.343 l -0.074,0.142 c -0.382,0.63 -0.759,1.169 -1.168,1.681 l 0.024,-0.031 c -0.701,0.866 -1.6,1.545 -2.63,1.971 l -0.044,0.016 c -1.369,0.617 -3.07,1.245 -4.818,1.767 l -0.308,0.079 c -1.341,0.441 -2.665,0.922 -2.958,1.08 -1.109,0.603 -2.03,1.418 -2.737,2.398 l -0.016,0.024 c -1.253,1.65 -1.215,1.641 -3.801,1.183 Q 3.375,21.833 2.952,21.805 c -0.12,-0.026 -0.258,-0.041 -0.399,-0.041 -0.483,0 -0.925,0.173 -1.268,0.461 l 0.003,-0.003 -0.284,0.269 0.221,0.11 c 0.268,0.167 0.496,0.331 0.714,0.508 l -0.013,-0.01 c 0.202,0.167 0.426,0.328 0.661,0.473 l 0.026,0.015 c 0.089,0.041 0.164,0.084 0.236,0.131 L 2.842,23.714 c -0.078,0.169 -0.173,0.314 -0.287,0.443 l 0.002,-0.002 c -0.544,0.726 -0.741,1.088 -0.717,1.31 0.024,0.205 0.04,0.212 0.537,0.212 0.027,0.001 0.059,0.001 0.091,0.001 0.533,0 1.043,-0.096 1.515,-0.271 l -0.03,0.01 C 5.305,24.866 6.449,24.279 7.535,23.608 L 7.432,23.667 C 8.136,23.182 8.94,22.745 9.79,22.396 l 0.086,-0.031 c 0.102,-0.025 0.442,-0.087 0.742,-0.142 0.42,-0.055 0.906,-0.087 1.4,-0.087 0.647,0 1.282,0.054 1.899,0.159 L 13.85,22.286 c 0.135,0.016 0.466,0.056 0.75,0.08 0.208,0.014 0.402,0.048 0.587,0.1 l -0.02,-0.005 c 0.033,0.015 0.592,0.046 1.247,0.07 1.167,0.032 1.38,0.009 1.625,-0.236 0.256,-0.353 0.467,-0.761 0.613,-1.199 l 0.009,-0.032 c 0.261,-0.804 0.521,-1.151 0.457,-0.615 -0.1,1.117 -0.418,2.14 -0.912,3.055 l 0.021,-0.042 c -0.351,0.662 -0.738,1.234 -1.179,1.758 l 0.012,-0.015 c -0.402,0.434 -0.394,0.45 0.11,0.394 0.991,-0.155 1.876,-0.516 2.641,-1.039 l -0.022,0.014 c 1.225,-0.975 2.167,-2.255 2.717,-3.727 l 0.019,-0.059 c 0.134,-0.337 0.275,-0.275 0.229,0.104 -0.016,0.117 -0.047,0.394 -0.071,0.622 l -0.039,0.41 0.441,-0.252 c 1.245,-0.867 2.178,-2.107 2.644,-3.555 l 0.014,-0.049 c 0.473,-1.33 0.936,-2.995 1.294,-4.699 L 27.084,13.1 c 0.106,-0.524 0.223,-0.961 0.363,-1.387 l -0.024,0.085 c 0.092,-0.425 0.305,-0.791 0.599,-1.071 l 0.001,-10e-4 c 0.37,-0.353 0.768,-0.684 1.189,-0.987 l 0.033,-0.023 c 0.63,-0.358 1.134,-0.87 1.473,-1.486 l 0.01,-0.02 c 0.16,-0.307 0.254,-0.671 0.254,-1.057 0,-0.227 -0.033,-0.447 -0.093,-0.655 l 0.004,0.016 C 30.728,6.262 30.538,6.269 29.939,6.522 Z"
     id="path1-128"
     style="fill:#ffffff;fill-opacity:1" /></g><style
   id="style2">.st0{fill:#4c4c4c}</style>&#10;  &#10;  &#10;  &#10;  &#10;  &#10;  &#10;  &#10;  &#10;  &#10;  &#10;  &#10;  &#10;  &#10;  &#10;  &#10;  &#10;<title
   id="title4">SFML Logo</title></g></svg>
