<?xml version="1.0" encoding="UTF-8" standalone="no"?>
<!-- Created with Inkscape (http://www.inkscape.org/) -->

<svg
   width="200.38379"
   height="200.38416"
   viewBox="0 0 53.018211 53.018308"
   version="1.1"
   id="svg5"
   xml:space="preserve"
   inkscape:version="1.3 (0e150ed6c4, 2023-07-21)"
   sodipodi:docname="mockup.svg"
   xmlns:inkscape="http://www.inkscape.org/namespaces/inkscape"
   xmlns:sodipodi="http://sodipodi.sourceforge.net/DTD/sodipodi-0.dtd"
   xmlns="http://www.w3.org/2000/svg"
   xmlns:svg="http://www.w3.org/2000/svg"><sodipodi:namedview
     id="namedview7"
     pagecolor="#505050"
     bordercolor="#eeeeee"
     borderopacity="1"
     inkscape:showpageshadow="0"
     inkscape:pageopacity="0"
     inkscape:pagecheckerboard="0"
     inkscape:deskcolor="#505050"
     inkscape:document-units="mm"
     showgrid="false"
     showborder="false"
     inkscape:zoom="1.4142136"
     inkscape:cx="9044.6028"
     inkscape:cy="-212.48559"
     inkscape:window-width="2558"
     inkscape:window-height="1418"
     inkscape:window-x="0"
     inkscape:window-y="0"
     inkscape:window-maximized="1"
     inkscape:current-layer="layer1"
     inkscape:export-bgcolor="#00000000" /><defs
     id="defs2" /><g
     inkscape:label="Livello 1"
     inkscape:groupmode="layer"
     id="layer1"
     transform="translate(-2190.6523,46.713203)"><rect
   style="fill:none;fill-opacity:1;stroke:none;stroke-width:0.212703;stroke-linecap:round;stroke-linejoin:round;stroke-opacity:1"
   id="rect6-9-5-6-9"
   width="53.018307"
   height="53.018307"
   x="2190.6523"
   y="-46.713203"
   inkscape:export-filename="editors.svg"
   inkscape:export-xdpi="96"
   inkscape:export-ydpi="96" /><g
   id="SVGRepo_iconCarrier-07"
   transform="matrix(1.1174303,0,0,1.1174303,2201.4915,-37.005969)"
   style="fill:#ffffff;fill-opacity:1"><path
     fill-rule="nonzero"
     clip-rule="nonzero"
     d="M 0,0.786012 C 0,0.351909 0.335786,0 0.75,0 h 5.80508 c 0.41422,0 0.75,0.351909 0.75,0.786012 V 3.93006 c 0,0.42518 -0.32213,0.77152 -0.72457,0.78557 V 6.09604 L 8.55754,4.23253 C 8.52047,4.13942 8.5,4.03725 8.5,3.93006 V 0.786012 C 8.5,0.351909 8.83579,0 9.25,0 h 6 C 15.6642,0 16,0.351909 16,0.786012 V 3.93006 C 16,4.1486 15.9132,4.35728 15.7604,4.506 L 4.16716,15.7899 C 4.02844,15.925 3.84611,16 3.65678,16 H 2.20763 C 2.05956,16 1.9148,15.9541 1.7916,15.868 L 1.06703,15.3617 C 0.858377,15.216 0.733051,14.9705 0.733051,14.7077 V 4.71587 C 0.326665,4.70643 0,4.35822 0,3.93006 Z M 1.5,3.14424 C 1.90639,3.15369 2.23305,3.50189 2.23305,3.93006 V 14.2871 L 2.43471,14.428 H 3.36223 L 14.5,3.58734 V 1.57202 H 10 v 1.57203 c 0.3106,0 0.589,0.20062 0.7003,0.50453 0.1112,0.30391 0.0322,0.64823 -0.1988,0.86589 L 6.33204,8.44453 C 6.11186,8.65207 5.79577,8.7044 5.52526,8.57808 5.25476,8.45177 5.08051,8.17047 5.08051,7.86012 V 3.93006 c 0,-0.42519 0.32213,-0.77152 0.72457,-0.78557 V 1.57202 H 1.5 Z"
     fill="#000000"
     id="path1-58"
     style="fill:#ffffff;fill-opacity:1" /></g><g
   id="SVGRepo_iconCarrier-42"
   transform="matrix(1.1280179,0,0,1.1280179,2217.5591,-22.92584)"
   style="fill:#ffffff;fill-opacity:1"><path
     d="m 10.347726,2.286461 c -0.066,0.019 -0.152,0.052 -0.191,0.073 -0.039,0.021 -1.3830002,1.172 -2.9860002,2.558 -1.604,1.385 -2.934,2.518 -2.956,2.518 -0.022,0 -0.664,-0.468 -1.427,-1.04 -0.762,-0.571 -1.428,-1.057 -1.48,-1.078 -0.15,-0.063 -0.46800001,-0.05 -0.61300001,0.024 -0.166,0.086 -1.73099999,1.645 -1.82599999,1.82 -0.13,0.24 -0.114,0.554 0.04,0.766 0.041,0.057 0.57499999,0.557 1.18499999,1.11 0.611,0.553 1.10700001,1.015 1.10200001,1.026 -0.004,0.012 -0.49500001,0.442 -1.09100001,0.957 -0.596,0.514 -1.12199999,0.981 -1.16799999,1.036 -0.177,0.214 -0.206,0.552 -0.069,0.804 0.096,0.175 1.65899999,1.734 1.82699999,1.821 0.166,0.087 0.49700001,0.089 0.65300001,0.005 0.059,-0.031 0.7,-0.502 1.424,-1.046 l 1.318,-0.988 0.109,0.1 c 0.06,0.055 1.289,1.168 2.73,2.473 1.846,1.671 2.666,2.396 2.772,2.453 l 0.15,0.08 h 0.6740002 0.674 l 1.631,-0.814 c 1.5,-0.748 1.64,-0.823 1.748,-0.942 0.213,-0.237 0.197,0.241 0.197,-5.738 0,-5.821 0.009,-5.468 -0.151,-5.699 -0.058,-0.084 -0.41,-0.331 -1.634,-1.148 -0.857,-0.572 -1.613,-1.065 -1.68,-1.095 -0.1,-0.045 -0.187,-0.056 -0.482,-0.063 -0.237,-0.005 -0.401,0.004 -0.48,0.027 m 1.699,2.305 1.233,0.82 10e-4,4.82 0.001,4.82 -1.205,0.6 -1.204,0.6 h -0.285 -0.284 l -2.8690002,-2.596 c -1.578,-1.428 -2.912,-2.616 -2.963,-2.641 -0.199,-0.094 -0.5,-0.101 -0.661,-0.014 -0.034,0.018 -0.651,0.475 -1.372,1.015 -0.721,0.541 -1.322,0.983 -1.335,0.983 -0.03,0 -0.47700001,-0.448 -0.46100001,-0.462 0.67300001,-0.577 2.07800001,-1.794 2.18200001,-1.891 0.086,-0.081 0.169,-0.192 0.21,-0.28 0.057,-0.127 0.065,-0.174 0.054,-0.343 -0.01,-0.158 -0.028,-0.223 -0.091,-0.324 -0.053,-0.086 -0.454,-0.466 -1.229,-1.167 l -1.15000001,-1.04 0.231,-0.233 c 0.127,-0.129 0.24200001,-0.234 0.25600001,-0.234 0.013,0 0.644,0.465 1.4,1.033 1.496,1.123 1.537,1.148 1.81,1.116 0.078,-0.009 0.192,-0.04 0.253,-0.069 0.062,-0.029 0.503,-0.39 0.979,-0.802 0.477,-0.412 1.011,-0.874 1.187,-1.026 0.176,-0.152 1.16,-1.002 2.187,-1.89 1.026,-0.887 1.8720002,-1.614 1.8790002,-1.614 0.008,-10e-4 0.568,0.368 1.246,0.819 m -1.632,1.677 c -0.029,0.006 -0.101,0.029 -0.16,0.051 -0.059,0.021 -1.0790002,0.738 -2.2670002,1.593 -2.346,1.689 -2.293,1.646 -2.362,1.953 -0.026,0.115 -0.026,0.177 0,0.292 0.068,0.307 0.017,0.264 2.362,1.953 1.188,0.855 2.2140002,1.576 2.2800002,1.601 0.347,0.133 0.743,-0.029 0.929,-0.38 l 0.071,-0.133 v -3.187 -3.187 l -0.071,-0.133 c -0.089,-0.168 -0.214,-0.289 -0.369,-0.356 -0.127,-0.056 -0.324,-0.088 -0.413,-0.067 m -0.6600002,4.5 -0.007,0.757 -1.046,-0.75 c -0.575,-0.413 -1.046,-0.757 -1.046,-0.764 0,-0.007 0.471,-0.351 1.046,-0.764 l 1.046,-0.75 0.007,0.757 c 0.004,0.416 0.004,1.098 0,1.514"
     stroke="none"
     fill="#000000"
     fill-rule="evenodd"
     id="path1-96"
     style="fill:#ffffff;fill-opacity:1" /></g><style
   id="style2">.st0{fill:#4c4c4c}</style>&#10;  &#10;  &#10;  &#10;  &#10;  &#10;  &#10;  &#10;  &#10;  &#10;  &#10;  &#10;  &#10;  &#10;  &#10;  &#10;  &#10;<title
   id="title4">SFML Logo</title></g></svg>
