<?xml version="1.0" encoding="UTF-8" standalone="no"?>
<!-- Created with Inkscape (http://www.inkscape.org/) -->

<svg
   width="200.38379"
   height="200.38416"
   viewBox="0 0 53.018211 53.018308"
   version="1.1"
   id="svg5"
   xml:space="preserve"
   inkscape:version="1.3 (0e150ed6c4, 2023-07-21)"
   sodipodi:docname="mockup.svg"
   xmlns:inkscape="http://www.inkscape.org/namespaces/inkscape"
   xmlns:sodipodi="http://sodipodi.sourceforge.net/DTD/sodipodi-0.dtd"
   xmlns="http://www.w3.org/2000/svg"
   xmlns:svg="http://www.w3.org/2000/svg"><sodipodi:namedview
     id="namedview7"
     pagecolor="#505050"
     bordercolor="#eeeeee"
     borderopacity="1"
     inkscape:showpageshadow="0"
     inkscape:pageopacity="0"
     inkscape:pagecheckerboard="0"
     inkscape:deskcolor="#505050"
     inkscape:document-units="mm"
     showgrid="false"
     showborder="false"
     inkscape:zoom="1.4142136"
     inkscape:cx="9225.6222"
     inkscape:cy="-158.74547"
     inkscape:window-width="2558"
     inkscape:window-height="1418"
     inkscape:window-x="0"
     inkscape:window-y="0"
     inkscape:window-maximized="1"
     inkscape:current-layer="layer1"
     inkscape:export-bgcolor="#00000000" /><defs
     id="defs2" /><g
     inkscape:label="Livello 1"
     inkscape:groupmode="layer"
     id="layer1"
     transform="translate(-2463.187,46.713203)"><rect
   style="fill:none;fill-opacity:1;stroke:none;stroke-width:0.212703;stroke-linecap:round;stroke-linejoin:round;stroke-opacity:1"
   id="rect6-9-5-6-9-5-3-6-0-4"
   width="53.018307"
   height="53.018307"
   x="2463.187"
   y="-46.713203" /><style
   id="style2">.st0{fill:#4c4c4c}</style>&#10;  &#10;  &#10;  &#10;  &#10;  &#10;  &#10;  &#10;  &#10;  &#10;  &#10;  &#10;  &#10;  &#10;  &#10;  &#10;  &#10;<title
   id="title4">SFML Logo</title><g
   id="g79"
   transform="matrix(1.3385695,0,0,1.3385695,-837.85343,6.8691869)"><path
     id="path1-062"
     style="fill:#ffffff;fill-opacity:1;stroke-width:0.72922"
     d="m 2486.4007,-33.118335 c -0.026,0.01219 -0.053,0.02439 -0.079,0.03705 -0.2396,0.110857 -0.4884,0.246427 -0.7251,0.385746 -1.6404,1.197195 -2.6445,2.974057 -2.873,4.88136 l -0.01,0.03553 c -1.6381,-1.068306 -3.6394,-1.450609 -5.5716,-0.996638 l -0.045,0.01183 c -0.2595,0.09036 -0.5155,0.189049 -0.7636,0.303894 -0.023,0.0098 -0.049,0.02177 -0.075,0.03392 -2.6079,1.207142 -3.7617,4.277554 -2.6111,6.897269 l 5e-4,0.0049 c 1.2545,2.57723 4.342,3.683997 6.95,2.476854 0.026,-0.01218 0.053,-0.02468 0.079,-0.03784 0.2578,-0.120131 0.5033,-0.254658 0.7376,-0.401792 l 0.03,-0.01757 c -0.01,0.0055 -0.018,0.0104 -0.028,0.01625 1.6432,-1.194155 2.65,-2.969102 2.8829,-4.874581 l 0.01,-0.03504 c 1.6365,1.070563 3.6399,1.452726 5.5719,0.996433 l 0.045,-0.01183 c 0.2674,-0.09405 0.5155,-0.18905 0.7715,-0.307585 l 0.05,-0.02313 c 2.608,-1.207142 3.7617,-4.27696 2.6104,-6.896378 l -4e-4,-0.0049 -0.01,0.0047 c -1.2545,-2.57723 -4.3411,-3.685008 -6.9498,-2.477525 z m -9.3744,6.337269 c 0.023,-0.01093 0.047,-0.02157 0.072,-0.03231 0.1656,-0.07662 0.3548,-0.144435 0.5358,-0.208121 1.7953,-0.317509 3.5861,0.185062 4.9208,1.316651 l 0.029,0.02696 c 0,1.789688 -0.7724,3.48216 -2.145,4.617279 l -0.034,0.02652 -0.016,0.008 c -0.1203,0.08219 -0.2651,0.164871 -0.4186,0.235902 -0.028,0.013 -0.055,0.02444 -0.082,0.03634 l -0.01,0.0042 c -0.018,0.0089 -0.038,0.01809 -0.058,0.02736 -1.6901,0.7823 -3.6883,0.07444 -4.5155,-1.580527 l -4e-4,-0.0049 c -0.7239,-1.709157 0.031,-3.690844 1.7228,-4.473739 z m 9.9662,-4.59369 c 0.03,-0.01386 0.06,-0.02699 0.091,-0.04016 0.025,-0.01235 0.053,-0.02624 0.082,-0.03968 1.6888,-0.781714 3.6858,-0.07129 4.508,1.585125 l 3e-4,0.0039 c 0.7239,1.709157 -0.031,3.6908 -1.7229,4.473739 -0.023,0.01093 -0.047,0.02205 -0.071,0.03267 -0.1654,0.07658 -0.355,0.143923 -0.528,0.203954 -1.7947,0.306769 -3.5816,-0.194416 -4.9207,-1.316694 l -0.029,-0.02696 c 0.01,-1.788094 0.7813,-3.475825 2.1445,-4.617066 l 0.034,-0.02605 c 0.1183,-0.08129 0.2603,-0.16261 0.4112,-0.232467 z m 0.2096,1.812324 0.4596,0.992794 -0.9929,0.459541 0.44,0.950584 0.9928,-0.459532 0.4519,0.976384 0.9511,-0.440214 -0.4478,-0.96747 -0.014,-0.0047 0.9838,-0.455375 -0.444,-0.959508 -0.9929,0.459542 -0.4554,-0.983889 z m -10.2787,5.952332 0.4441,0.959499 2.9194,-1.351261 -0.4442,-0.959499 z" /><g
     id="SVGRepo_iconCarrier-31"
     transform="matrix(0.34137289,0.14325837,-0.14325837,0.34137289,2490.3419,-24.939136)"
     style="fill:#ffffff;fill-opacity:1"> <g
   id="g14"
   style="fill:#ffffff;fill-opacity:1"> <g
   id="g2"
   style="fill:#ffffff;fill-opacity:1"> <path
   d="M 13.8,6.4 C 12.4,5.3 10.9,4.5 9.2,3.9 c 1.5,0.9 3,1.7 4.2,2.9 C 13.3,7.9 11.9,8.6 10.3,8.5 10.2,8.4 10.4,8.4 10.4,8.2 10,8.1 9.5,8.2 9.2,8 9.2,7.9 9.4,7.9 9.3,7.8 9,7.6 8.6,7.5 8.3,7.3 8.3,7.2 8.5,7.2 8.6,7.1 8.3,6.9 7.9,6.8 7.6,6.5 7.7,6.4 7.8,6.5 7.9,6.3 7.6,6.1 7.3,5.9 7.1,5.6 7.2,5.5 7.3,5.6 7.4,5.5 7.3,5.2 6.9,5 6.8,4.7 7,4.7 7.1,4.8 7.3,4.6 7.1,4.3 6.7,4.2 6.6,3.8 6.7,3.7 6.9,3.8 7,3.7 7,3.4 6.8,3.2 6.7,2.9 7,2.8 7.4,2.9 7.7,2.8 7.7,2.7 7.6,2.6 7.6,2.5 8,2.3 8.4,2.5 8.8,2.6 8.9,2.4 8.7,2.4 8.8,2.2 9.1,2.2 9.4,2.4 9.8,2.4 9.9,2.2 9.6,2.2 9.6,2 c 0.4,0 0.7,0.2 1,0.4 0.1,-0.1 0,-0.2 0.1,-0.4 0.3,0.1 0.5,0.3 0.8,0.5 0.2,0 0.1,-0.2 0.2,-0.3 0.3,0.1 0.5,0.4 0.7,0.5 0.2,0 0.1,-0.2 0.2,-0.3 0.3,0.2 0.5,0.5 0.7,0.7 0.2,0 0.1,-0.2 0.3,-0.2 0.6,0.7 1.2,1.5 1.1,2.5 0,0.5 -0.4,0.8 -0.9,1 z"
   id="path1-103"
   style="fill:#ffffff;fill-opacity:1" /> <path
   d="m 23.5,7.1 c 0.1,0.1 0.2,0.1 0.3,0.1 -0.3,0.3 -0.7,0.3 -1.1,0.5 0,0.1 0.1,0.1 0.1,0.2 -0.3,0.2 -0.8,0.1 -1.1,0.2 -0.1,0.1 0.1,0.2 0,0.3 -0.4,0.1 -0.8,0 -1.3,-0.1 C 19.5,8.1 18.8,7.7 18.5,6.8 19.7,5.5 21.2,4.7 22.7,3.9 21,4.5 19.5,5.3 18.1,6.3 17.5,6.1 17.2,5.6 17.2,5 17.2,4.3 17.8,3.2 18.4,2.7 L 18.6,3 c 0.3,-0.2 0.5,-0.6 0.8,-0.7 0.1,0.1 0,0.3 0.2,0.3 0.2,-0.1 0.4,-0.4 0.7,-0.5 0.1,0.1 0,0.2 0.2,0.3 0.3,0 0.5,-0.3 0.9,-0.4 0,0.1 -0.1,0.2 0,0.4 0.3,-0.2 0.6,-0.4 1,-0.4 0,0.1 -0.2,0.2 -0.1,0.4 0.3,0 0.6,-0.2 1,-0.2 0,0.1 -0.1,0.2 0,0.4 0.4,-0.1 0.8,-0.2 1.2,-0.1 0,0.1 -0.1,0.2 -0.1,0.3 0.3,0.1 0.7,0 1,0.1 -0.1,0.3 -0.4,0.5 -0.4,0.8 0.1,0.1 0.3,0 0.4,0.1 -0.1,0.4 -0.5,0.5 -0.6,0.8 0.1,0.2 0.3,0 0.4,0.1 -0.1,0.3 -0.5,0.5 -0.7,0.8 0.1,0.2 0.2,0.1 0.3,0.1 -0.2,0.3 -0.5,0.4 -0.7,0.7 0.1,0.1 0.2,0.1 0.3,0.2 -0.2,0.3 -0.6,0.4 -0.9,0.6 z"
   id="path2-403"
   style="fill:#ffffff;fill-opacity:1" /> </g> <g
   id="g13"
   style="fill:#ffffff;fill-opacity:1"> <path
   d="m 15.4,16 c 0,1.8 -1.4,3.6 -3.2,4 -1.8,0.4 -3.4,-0.9 -3.5,-2.7 -0.1,-1.8 1.2,-3.6 2.9,-4 2.1,-0.6 3.8,0.7 3.8,2.7 z"
   id="path3-9"
   style="fill:#ffffff;fill-opacity:1" /> <path
   d="m 23.4,16.9 c 0,2.1 -1.8,3.4 -3.8,2.8 -1.8,-0.6 -3.1,-2.5 -2.8,-4.4 0.3,-1.8 2.1,-2.9 3.9,-2.2 1.6,0.6 2.7,2.2 2.7,3.8 z"
   id="path4-1"
   style="fill:#ffffff;fill-opacity:1" /> <path
   d="m 16.1,19.4 c 1,0 2,0.4 2.7,1.2 1.2,1.3 1.1,3.2 -0.2,4.3 -1.3,1.1 -3.4,1.2 -4.7,0.1 -1,-0.8 -1.4,-1.8 -1.2,-3.1 0.3,-1.3 1.2,-2 2.4,-2.4 0.3,0 0.6,-0.1 1,-0.1 z"
   id="path5"
   style="fill:#ffffff;fill-opacity:1" /> <path
   d="m 19.8,25.3 c 0.1,-1 0.5,-2 1.3,-2.9 0.5,-0.5 1,-1 1.5,-1.4 0.3,-0.2 0.6,-0.3 0.9,-0.4 0.6,-0.1 1.1,0.1 1.3,0.7 0.4,1 0.5,2 0,3 -0.6,1.4 -1.7,2.3 -3.2,2.6 -0.1,0 -0.3,0 -0.5,0 -0.9,0.1 -1.3,-0.3 -1.3,-1.6 z"
   id="path6-9"
   style="fill:#ffffff;fill-opacity:1" /> <path
   d="m 6.9,22.7 c 0,0 0,-0.2 0,-0.3 0.1,-1.1 0.7,-1.5 1.8,-1.2 1.7,0.5 3.3,2.5 3.4,4.3 0,1.1 -0.5,1.6 -1.6,1.4 C 9,26.7 8,25.9 7.4,24.6 7,24 6.9,23.4 6.9,22.7 Z"
   id="path7-6"
   style="fill:#ffffff;fill-opacity:1" /> <path
   d="m 16.2,12.8 c -0.8,0 -1.6,-0.1 -2.3,-0.5 -1.3,-0.7 -1.3,-1.6 -0.2,-2.4 1.5,-1.1 3.5,-1 4.9,0.2 0.1,0.1 0.2,0.2 0.3,0.3 0.5,0.6 0.4,1.2 -0.2,1.7 -0.5,0.4 -1.1,0.5 -1.7,0.6 -0.3,0.1 -0.6,0.1 -0.8,0.1 z"
   id="path8-9"
   style="fill:#ffffff;fill-opacity:1" /> <path
   d="m 16,30 c -1.2,0 -2.2,-0.5 -3.1,-1.4 -0.4,-0.4 -0.4,-0.8 0.1,-1.1 0.7,-0.4 1.4,-0.6 2.2,-0.7 1,-0.1 2,-0.1 3,0.2 0.2,0.1 0.5,0.2 0.7,0.3 0.6,0.3 0.7,0.6 0.2,1.2 0,0 0,0 -0.1,0.1 -0.7,0.9 -1.7,1.4 -3,1.4 z"
   id="path9"
   style="fill:#ffffff;fill-opacity:1" /> <path
   d="m 7.8,16.8 c 0,1.1 -0.2,2.1 -0.6,3.1 C 7.1,20.2 7,20.4 6.8,20.6 6.5,21 6.3,21 6,20.7 4.6,19.3 4.8,16.6 6.5,15.4 c 0.6,-0.5 1,-0.4 1.2,0.4 0,0.3 0.1,0.7 0.1,1 z"
   id="path10"
   style="fill:#ffffff;fill-opacity:1" /> <path
   d="m 26.9,18.3 c 0,0.8 -0.3,1.7 -0.9,2.4 -0.3,0.3 -0.5,0.3 -0.8,0 -0.3,-0.4 -0.5,-0.9 -0.6,-1.4 -0.3,-1 -0.4,-2.1 -0.3,-3.2 0,-0.2 0.1,-0.5 0.2,-0.7 0.2,-0.4 0.4,-0.5 0.8,-0.2 1,0.6 1.6,1.7 1.6,3.1 z"
   id="path11-3"
   style="fill:#ffffff;fill-opacity:1" /> <path
   d="m 7.5,13.9 c -0.1,-1.3 0.3,-2.5 1.4,-3.3 1.1,-0.8 2.3,-1 3.6,-0.8 0,0.3 -0.2,0.5 -0.3,0.7 -0.7,0.9 -1.6,1.6 -2.4,2.3 -0.5,0.4 -1,0.7 -1.5,1 -0.4,0.1 -0.6,0.3 -0.8,0.1 z"
   id="path12"
   style="fill:#ffffff;fill-opacity:1" /> <path
   d="m 24.6,14 c -0.2,0.1 -0.5,0 -0.7,-0.2 -0.7,-0.4 -1.4,-0.9 -2,-1.4 -0.7,-0.6 -1.3,-1.2 -1.9,-1.8 -0.1,-0.2 -0.3,-0.4 -0.3,-0.6 0.6,-0.3 2.6,-0.2 3.6,0.7 1,0.8 1.6,2.4 1.3,3.3 z"
   id="path13"
   style="fill:#ffffff;fill-opacity:1" /> </g> </g> </g><path
     d="m 2483.9253,-16.72865 c 0.273,0 0.4942,0.221253 0.4942,0.494177 v 0.494177 h 0.4942 c 0.8188,0 1.4826,0.663754 1.4826,1.482533 v 0.494178 h 0.494 c 0.2731,0 0.4942,0.221253 0.4942,0.494177 0,0.272924 -0.2211,0.494177 -0.4942,0.494177 h -0.494 v 1.976711 h 0.494 c 0.2731,0 0.4942,0.221243 0.4942,0.494177 0,0.272933 -0.2211,0.4941767 -0.4942,0.4941767 h -0.494 v 0.494179 c 0,0.818802 -0.6638,1.4825318 -1.4826,1.4825318 h -0.4942 v 0.494177 c 0,0.272934 -0.2212,0.4941774 -0.4942,0.4941774 -0.2729,0 -0.4941,-0.2212434 -0.4941,-0.4941774 v -0.494177 h -1.9768 v 0.494177 c 0,0.272934 -0.2211,0.4941774 -0.4942,0.4941774 -0.2729,0 -0.494,-0.2212434 -0.494,-0.4941774 v -0.494177 h -0.4942 c -0.8189,0 -1.4827,-0.6637298 -1.4827,-1.4825318 v -0.494179 h -0.4942 c -0.2729,0 -0.494,-0.2212437 -0.494,-0.4941767 0,-0.272934 0.2211,-0.494177 0.494,-0.494177 h 0.4942 v -1.976711 h -0.4942 c -0.2729,0 -0.494,-0.221253 -0.494,-0.494177 0,-0.272924 0.2211,-0.494177 0.494,-0.494177 h 0.4942 v -0.494178 c 0,-0.818779 0.6638,-1.482533 1.4827,-1.482533 h 0.4942 v -0.494177 c 0,-0.272924 0.2211,-0.494177 0.494,-0.494177 0.2731,0 0.4942,0.221253 0.4942,0.494177 v 0.494177 h 1.9768 v -0.494177 c 0,-0.272924 0.2212,-0.494177 0.4941,-0.494177 z m -0.4941,2.965065 h -1.9768 c -0.5458,0 -0.9882,0.4425 -0.9882,0.988354 v 1.976711 c 0,0.545867 0.4424,0.9883537 0.9882,0.9883537 h 1.9768 c 0.5458,0 0.9883,-0.4424867 0.9883,-0.9883537 v -1.976711 c 0,-0.545854 -0.4425,-0.988354 -0.9883,-0.988354 z m 0,0.988354 v 1.976711 h -1.9768 v -1.976711 z"
     id="形状"
     fill="#09244b"
     style="fill:#ffffff;fill-opacity:1;fill-rule:nonzero;stroke:none;stroke-width:0.494177" /></g></g></svg>
