<?xml version="1.0" encoding="UTF-8" standalone="no"?>
<!-- Created with Inkscape (http://www.inkscape.org/) -->

<svg
   width="200.38379"
   height="200.38416"
   viewBox="0 0 53.018211 53.018308"
   version="1.1"
   id="svg5"
   xml:space="preserve"
   inkscape:version="1.3 (0e150ed6c4, 2023-07-21)"
   sodipodi:docname="mockup.svg"
   xmlns:inkscape="http://www.inkscape.org/namespaces/inkscape"
   xmlns:sodipodi="http://sodipodi.sourceforge.net/DTD/sodipodi-0.dtd"
   xmlns="http://www.w3.org/2000/svg"
   xmlns:svg="http://www.w3.org/2000/svg"><sodipodi:namedview
     id="namedview7"
     pagecolor="#505050"
     bordercolor="#eeeeee"
     borderopacity="1"
     inkscape:showpageshadow="0"
     inkscape:pageopacity="0"
     inkscape:pagecheckerboard="0"
     inkscape:deskcolor="#505050"
     inkscape:document-units="mm"
     showgrid="false"
     showborder="false"
     inkscape:zoom="1.4142136"
     inkscape:cx="9044.6028"
     inkscape:cy="-212.48559"
     inkscape:window-width="2558"
     inkscape:window-height="1418"
     inkscape:window-x="0"
     inkscape:window-y="0"
     inkscape:window-maximized="1"
     inkscape:current-layer="layer1"
     inkscape:export-bgcolor="#00000000" /><defs
     id="defs2" /><g
     inkscape:label="Livello 1"
     inkscape:groupmode="layer"
     id="layer1"
     transform="translate(-2463.187,107.94778)"><rect
   style="fill:none;fill-opacity:1;stroke:none;stroke-width:0.212703;stroke-linecap:round;stroke-linejoin:round;stroke-opacity:1"
   id="rect6-9-5-6-9-5-3-6-0"
   width="53.018307"
   height="53.018307"
   x="2463.187"
   y="-107.94778" /><style
   id="style2">.st0{fill:#4c4c4c}</style><path
   class="st0"
   d="m 2497.7926,-77.780946 v -8.534577 l -7.3916,-4.267291 v 3.276668 l 2.8956,1.676436 c 0.1144,0.07621 0.1144,0.228604 0,0.266705 l -3.4289,1.981241 c -0.1144,0.07621 -0.2287,0.03811 -0.3049,0 l -3.429,-1.981241 c -0.1144,-0.0381 -0.1144,-0.228605 0,-0.266705 l 2.8956,-1.676436 v -3.276668 l -7.4297,4.267291 v 8.534577 -0.0381 0.0381 l 2.8195,-1.638335 v -3.352869 c 0,-0.114302 0.1524,-0.190506 0.2286,-0.152403 l 3.429,1.981241 c 0.1144,0.07621 0.1525,0.152403 0.1525,0.266705 v 3.962481 c 0,0.114303 -0.1525,0.190504 -0.2286,0.152403 l -2.8957,-1.676435 -2.8195,1.638335 7.3916,4.305391 7.3916,-4.267291 -2.8194,-1.638333 -2.8958,1.676434 c -0.1143,0.07621 -0.2286,0 -0.2286,-0.152402 v -3.962482 c 0,-0.114302 0.077,-0.228605 0.1525,-0.266705 l 3.4289,-1.981241 c 0.1144,-0.07621 0.2287,0 0.2287,0.152402 v 3.352871 z"
   id="path6"
   style="fill:#ffffff;fill-opacity:1;stroke-width:0.38101" />&#10;  &#10;  &#10;  &#10;  &#10;  &#10;  &#10;  &#10;  &#10;  &#10;  &#10;  &#10;  &#10;  &#10;  &#10;  &#10;  <path
   id="path1-92-1-1-3-4-1"
   style="fill:#ffffff;stroke:none;stroke-width:0.244048;stroke-dasharray:none;stroke-opacity:1"
   d="m 2505.8009,-71.371341 c -0.037,-0.0045 -0.072,-0.0069 -0.1028,-0.0066 -0.2374,0.0023 -0.4849,0.127008 -0.7825,0.393208 -0.197,0.176221 -0.3452,0.35094 -0.5961,0.703122 -0.2425,0.340565 -0.3393,0.457629 -0.542,0.65709 -0.199,0.195774 -0.2752,0.28029 -0.4024,0.445265 -0.1979,0.256516 -0.2648,0.398572 -0.3132,0.664287 -0.027,0.14636 -0.024,0.319475 0.01,0.389948 0.01,0.02182 0.1002,0.13559 0.2017,0.252734 0.1016,0.117144 0.2273,0.272656 0.28,0.346052 l 0.097,0.133743 0.021,-0.07493 c 0.03,-0.10802 0.064,-0.183478 0.1245,-0.285022 0.1447,-0.242575 0.4209,-0.458367 0.7497,-0.586019 l 0.1184,-0.04617 -0.048,-0.08171 c -0.093,-0.156676 -0.1477,-0.323742 -0.1803,-0.546559 -0.018,-0.113725 -0.017,-0.163968 -8e-4,-0.378559 0.025,-0.327807 0.08,-0.533284 0.2174,-0.795774 0.1231,-0.236371 0.2484,-0.398072 0.4329,-0.558516 0.3158,-0.274714 0.6864,-0.381559 1.0103,-0.290378 0.1921,0.05408 0.3242,0.140455 0.4633,0.301979 0.207,0.240725 0.3121,0.550207 0.3177,0.937528 0.01,0.42928 -0.1602,0.92227 -0.4246,1.257822 -0.042,0.05438 -0.078,0.102328 -0.078,0.106393 -3e-4,0.004 0.077,0.02586 0.1712,0.04855 0.2237,0.0538 0.4718,0.136735 0.6887,0.230243 0.096,0.04133 0.1772,0.0727 0.1808,0.06962 2e-4,-0.0033 0,-0.05534 0,-0.116257 -0.018,-0.364248 0.095,-0.793754 0.2955,-1.128273 0.1985,-0.331807 0.5194,-0.605264 0.8298,-0.70767 0.3684,-0.121658 0.7495,-0.01987 1.0026,0.268001 0.1708,0.194276 0.2749,0.444908 0.3176,0.763122 0.022,0.164596 -0.01,0.557035 -0.065,0.72955 -0.1702,0.581575 -0.5269,1.022678 -0.9789,1.210362 l -0.098,0.04107 0.048,0.07515 c 0.1172,0.182231 0.2103,0.411867 0.2429,0.600196 0.04,0.237163 0,0.511188 -0.097,0.702471 -0.029,0.05699 -0.033,0.06575 -0.025,0.06635 0,0 0.043,-0.01438 0.093,-0.03214 l 5e-4,3.7e-5 c 0.1835,-0.06741 0.5416,-0.168584 0.6925,-0.195833 0.2029,-0.03663 0.264,-0.0626 0.3311,-0.139757 0.1064,-0.122213 0.2215,-0.350634 0.274,-0.545083 0.061,-0.226224 0.063,-0.623664 0.01,-1.261036 -0.032,-0.361934 -0.035,-0.419883 -0.031,-0.755451 0.01,-0.711118 -0.052,-1.049969 -0.236,-1.303316 -0.1096,-0.15111 -0.2394,-0.246032 -0.4763,-0.347516 -0.214,-0.09163 -0.3491,-0.128758 -0.5428,-0.150577 -0.223,-0.02508 -0.2894,-0.01951 -0.5676,0.04948 -0.2378,0.05885 -0.3615,0.07523 -0.4923,0.0661 -0.1629,-0.01133 -0.4113,-0.08636 -0.5763,-0.174537 -0.1197,-0.06403 -0.2072,-0.146028 -0.4082,-0.382034 -0.159,-0.186603 -0.2198,-0.248884 -0.295,-0.300962 -0.2145,-0.148634 -0.5982,-0.2883 -0.8569,-0.319281 z m 0.1039,0.540297 c -0.1716,-0.01253 -0.3009,0.01984 -0.48,0.119837 -0.191,0.106748 -0.3734,0.291723 -0.5114,0.519641 -0.3203,0.528959 -0.3519,1.227483 -0.075,1.656415 0.046,0.07126 0.059,0.08252 0.086,0.07962 0.018,-0.0019 0.1174,-0.0142 0.221,-0.0275 0.1043,-0.01328 0.2305,-0.02469 0.2819,-0.02516 0.051,-3.89e-4 0.1005,-0.0026 0.1087,-0.0045 0.011,-0.0023 0,-0.0284 -0.021,-0.07587 -0.094,-0.186473 -0.054,-0.401412 0.1014,-0.538718 0.1783,-0.158044 0.4527,-0.14922 0.6141,0.02001 0.065,0.06814 0.092,0.115301 0.1167,0.204575 l 0.021,0.07533 0.046,-0.08619 c 0.2032,-0.376115 0.2737,-0.841758 0.1843,-1.218557 -0.098,-0.416855 -0.3544,-0.674097 -0.696,-0.698969 z m 2.9942,0.982878 c -0.2296,-0.01715 -0.4342,0.05746 -0.6567,0.239222 -0.2939,0.240129 -0.5224,0.666643 -0.5804,1.083885 l -0.02,0.125559 0.063,-0.0525 c 0.1967,-0.162049 0.4801,-0.133294 0.6373,0.0641 0.056,0.07007 0.073,0.106599 0.091,0.192199 0.043,0.208893 -0.071,0.420136 -0.2749,0.504854 l -0.073,0.03027 0.051,0.03903 c 0.08,0.06117 0.2649,0.230582 0.3414,0.311582 0.038,0.04032 0.081,0.07416 0.095,0.07529 0.014,0.0011 0.064,-0.01052 0.1096,-0.02647 0.1786,-0.06087 0.3958,-0.220881 0.5432,-0.39954 0.1358,-0.164456 0.2635,-0.413226 0.3368,-0.656474 0.043,-0.142158 0.074,-0.473346 0.06,-0.62928 -0.015,-0.152962 -0.055,-0.316506 -0.1064,-0.431009 -0.047,-0.103451 -0.063,-0.129285 -0.1474,-0.22832 -0.1268,-0.150557 -0.2782,-0.228184 -0.4725,-0.242704 z m -3.0569,1.584919 c -0.1553,-0.0128 -0.3078,-0.01889 -0.3999,-0.01447 -0.4143,0.0199 -0.7744,0.109742 -1.0466,0.261257 -0.1219,0.06782 -0.3021,0.226398 -0.3722,0.327586 -0.3624,0.522566 -0.093,1.251238 0.6783,1.84195 0.6554,0.501334 1.5942,0.81438 2.4181,0.806706 0.8363,-0.0078 1.4508,-0.314308 1.6281,-0.811978 0.042,-0.117639 0.055,-0.332329 0.024,-0.470223 -0.1255,-0.661993 -0.855,-1.334173 -1.8474,-1.702065 -0.1864,-0.06912 -0.4528,-0.143122 -0.671,-0.186567 -0.1028,-0.02047 -0.261,-0.03975 -0.4164,-0.05255 z m -2.585,0.735538 c -10e-5,0.0014 0,0.105767 -2e-4,0.231045 v 0.228459 l 0.032,-0.0047 c 0.018,-0.0025 0.088,-0.0043 0.1539,-0.0039 0.067,4.04e-4 0.1217,-0.0028 0.122,-0.0068 0,-0.01829 -0.3028,-0.454051 -0.3096,-0.443988 z m 0.3051,0.681862 c -0.1009,-0.004 -0.2644,0.0039 -0.3537,0.0198 -0.5711,0.101464 -1.0159,0.504672 -1.1808,1.070394 -0.042,0.14344 -0.064,0.435013 -0.043,0.582105 0.043,0.307269 0.1727,0.586304 0.3784,0.813323 0.205,0.226409 0.4689,0.381051 0.7669,0.448992 0.1884,0.04297 0.1833,0.04377 0.2364,-0.04231 0.1417,-0.230175 0.3508,-0.351748 0.5958,-0.347193 0.149,0.0027 0.2008,0.02122 0.5518,0.199112 0.5278,0.267576 0.6951,0.323628 1.3967,0.465235 0.1985,0.04007 0.3754,0.177998 0.4897,0.382073 0.076,0.135382 0.2252,0.320037 0.3359,0.415694 0.1589,0.13725 0.3883,0.2551 0.604,0.310296 0.1309,0.03349 0.3599,0.05165 0.4966,0.0388 l 6e-4,-5.1e-4 c 0.4823,-0.04559 0.9094,-0.31863 1.1502,-0.735436 0.2281,-0.394382 0.2643,-0.856443 0.096,-1.278008 -0.029,-0.07227 -0.077,-0.17637 -0.1097,-0.231557 -0.069,-0.118166 -0.2161,-0.292659 -0.3093,-0.367496 l -0.066,-0.05335 -0.099,0.05201 c -0.054,0.02848 -0.1486,0.06857 -0.209,0.08946 l -0.1102,0.03799 -0.2318,0.547132 c -0.1278,0.300699 -0.2448,0.564124 -0.2604,0.585703 -0.084,0.115296 -0.2238,0.111369 -0.2849,-0.0081 -0.026,-0.05116 -0.022,-0.124265 0.032,-0.579095 0.024,-0.179609 0.044,-0.33517 0.045,-0.345988 0,-0.0177 -0.011,-0.01817 -0.1145,-0.0047 -0.1554,0.01989 -0.5648,0.0014 -0.7562,-0.03393 -0.6283,-0.116138 -1.216,-0.320305 -1.6709,-0.580891 -0.1945,-0.111502 -0.3416,-0.217332 -0.5267,-0.379336 -0.116,-0.101578 -0.1421,-0.119293 -0.1524,-0.103811 -0.012,0.0099 -0.1278,0.22532 -0.269,0.478339 -0.1411,0.253018 -0.2718,0.477745 -0.2909,0.499256 -0.091,0.102712 -0.2462,0.04132 -0.2361,-0.09356 0,-0.02787 0.081,-0.373133 0.1744,-0.767622 l 0.1703,-0.71732 -0.07,-0.173047 c -0.067,-0.163678 -0.072,-0.173584 -0.1122,-0.18498 -0.015,-0.0041 -0.04,-0.0069 -0.074,-0.0083 z m 0.4234,0.650544 c 0,0.0172 -0.103,0.452926 -0.1221,0.520667 -0.018,0.06535 0.013,0.02047 0.1264,-0.182555 0.06,-0.108042 0.1094,-0.202702 0.11,-0.210192 5e-4,-0.0075 -0.026,-0.04304 -0.057,-0.0791 -0.031,-0.03606 -0.058,-0.0583 -0.059,-0.04894 z m 5.1366,0.782029 c 1e-4,-0.0017 -0.011,-0.0018 -0.014,6.52e-4 -0.054,0.01575 -0.2374,0.09198 -0.2663,0.11104 -0.025,0.0169 -0.024,0.01884 0.019,0.0636 0.026,0.02533 0.052,0.04591 0.06,0.04627 0.011,5.78e-4 0.059,-0.05152 0.117,-0.115043 0.067,-0.07361 0.09,-0.100955 0.083,-0.106568 z m -1.2273,0.512376 c 3e-4,-0.0032 -0.039,0.0028 -0.083,0.01359 l -0.077,0.02013 -0.023,0.156196 c -0.01,0.08641 -0.025,0.192361 -0.033,0.23632 0,0.05409 -0.01,0.07672 0.01,0.06921 0.012,-0.006 0.059,-0.119264 0.116,-0.250453 l -7e-4,-5.3e-5 c 0.056,-0.131264 0.099,-0.2414 0.097,-0.244759 z m -3.8608,0.838284 c -0.02,-0.0025 -0.038,-0.0019 -0.068,-0.0029 -0.1301,-0.0044 -0.1974,0.01858 -0.2891,0.09834 -0.073,0.06362 -0.1641,0.208944 -0.1923,0.307466 -0.014,0.04022 -0.022,0.122041 -0.026,0.194492 -0.01,0.226104 0.053,0.382586 0.2207,0.578736 0.057,0.06628 0.1429,0.150683 0.1913,0.187582 0.2416,0.184161 0.6208,0.348975 1.0194,0.44365 0.2022,0.04805 0.5338,0.06764 0.6807,0.03985 v -5.48e-4 c 0.1677,-0.03168 0.2798,-0.08411 0.4015,-0.188418 0.1746,-0.149836 0.2628,-0.322334 0.2662,-0.522558 0,-0.173649 -0.084,-0.328841 -0.2382,-0.426552 -0.058,-0.0367 -0.095,-0.04854 -0.2332,-0.07518 -0.5065,-0.0974 -0.8141,-0.194482 -1.1546,-0.364075 -0.4481,-0.223326 -0.5215,-0.262495 -0.581,-0.270069 z m -1.0482,0.364009 -0.1065,0.472869 c -0.1182,0.521178 -0.1695,0.780498 -0.1773,0.884594 0,0.06742 -0.01,0.06977 0.078,0.178565 0.5704,0.757852 1.6696,1.283958 2.6758,1.280928 0.3419,-10e-4 0.6967,-0.06376 0.8514,-0.150406 0.1288,-0.07211 0.2514,-0.256509 0.4149,-0.625879 0.051,-0.116019 0.1563,-0.320806 0.2335,-0.455128 l 0.1405,-0.244223 -0.099,-0.04588 c -0.184,-0.08574 -0.3459,-0.194379 -0.4732,-0.317024 -0.03,-0.0288 -0.058,-0.05222 -0.061,-0.05244 0,0 -0.012,0.0126 -0.013,0.02927 -0.01,0.104069 -0.1399,0.332673 -0.2672,0.462516 -0.3497,0.356924 -0.9399,0.409796 -1.6898,0.151591 -0.6343,-0.218378 -1.0283,-0.5244 -1.1949,-0.928233 -0.063,-0.151985 -0.082,-0.263259 -0.073,-0.442849 l 0.012,-0.154827 -0.076,-0.01401 c -0.042,-0.0076 -0.099,-0.01722 -0.1249,-0.02144 z" /><g
   id="SVGRepo_iconCarrier-977"
   transform="matrix(0.33334385,-0.17587634,0.17587634,0.33334385,2467.5653,-68.006007)"
   style="fill:#ffffff;fill-opacity:1;stroke:none;stroke-opacity:1"><path
     fill-rule="evenodd"
     clip-rule="evenodd"
     d="m 15,1.25 c 0.4142,0 0.75,0.33579 0.75,0.75 v 1 c 0,0.9665 -0.7835,1.75 -1.75,1.75 H 13 C 12.8619,4.75 12.75,4.86193 12.75,5 V 6 H 14 c 3.7712,0 5.6569,0 6.8284,1.17157 C 22,8.34315 22,10.2288 22,14 c 0,3.7712 0,5.6569 -1.1716,6.8284 C 19.6569,22 17.7712,22 14,22 H 10 C 6.22876,22 4.34315,22 3.17157,20.8284 2,19.6569 2,17.7712 2,14 2,10.2288 2,8.34315 3.17157,7.17157 4.34315,6 6.22876,6 10,6 h 1.25 V 5 c 0,-0.9665 0.7835,-1.75 1.75,-1.75 h 1 c 0.1381,0 0.25,-0.11193 0.25,-0.25 V 2 C 14.25,1.58579 14.5858,1.25 15,1.25 Z M 8.75,12 C 8.75,11.5858 8.41421,11.25 8,11.25 7.58579,11.25 7.25,11.5858 7.25,12 v 1.05 c 0,0.1105 -0.08954,0.2 -0.2,0.2 H 6 c -0.41421,0 -0.75,0.3358 -0.75,0.75 0,0.4142 0.33579,0.75 0.75,0.75 h 1.05 c 0.11046,0 0.2,0.0895 0.2,0.2 V 16 c 0,0.4142 0.33579,0.75 0.75,0.75 0.41421,0 0.75,-0.3358 0.75,-0.75 v -1.05 c 0,-0.1105 0.08954,-0.2 0.2,-0.2 H 10 c 0.4142,0 0.75,-0.3358 0.75,-0.75 0,-0.4142 -0.3358,-0.75 -0.75,-0.75 H 8.95 c -0.11046,0 -0.2,-0.0895 -0.2,-0.2 z M 15,13.5 c 0.5523,0 1,-0.4477 1,-1 0,-0.5523 -0.4477,-1 -1,-1 -0.5523,0 -1,0.4477 -1,1 0,0.5523 0.4477,1 1,1 z m 3,2 c 0,0.5523 -0.4477,1 -1,1 -0.5523,0 -1,-0.4477 -1,-1 0,-0.5523 0.4477,-1 1,-1 0.5523,0 1,0.4477 1,1 z"
     fill="#1c274c"
     id="path1-643"
     style="fill:#ffffff;fill-opacity:1;stroke:none" /></g>&#10;<g
   fill="#ffffff"
   id="g4"
   transform="matrix(0.00900357,0.0031673,-0.0031673,0.00900357,2502.1158,-103.94781)"><path
     d="m 417.61523,76.875 c -42.39203,9.424151 -84.32671,22.54494 -123.64257,42.33398 0.89912,34.71618 3.14362,67.97967 7.69336,101.76758 -15.26846,9.78214 -31.31507,18.17757 -45.57618,29.62891 -14.49005,11.14747 -29.2896,21.81231 -42.41015,34.84961 C 187.46773,268.1178 159.72502,251.82518 131.14453,237.44336 100.33705,270.59856 71.53124,306.38342 48,346.42773 c 18.493057,29.02877 38.32949,58.20569 56.69922,80.95899 v 197.7832 25.1211 22.86132 c 0.44956,0.004 0.89835,0.0209 1.34375,0.0625 l 150.66992,14.52735 c 7.89231,0.76176 14.07749,7.11448 14.62695,15.02343 l 4.64649,66.50977 131.42969,9.37891 9.05468,-61.38672 c 1.17386,-7.95891 8.00029,-13.85742 16.05078,-13.85742 h 158.96094 c 8.04633,0 14.87302,5.89851 16.04688,13.85742 l 9.05468,61.38672 131.4336,-9.37891 4.64258,-66.50977 c 0.55362,-7.90895 6.73464,-14.25751 14.62695,-15.02343 l 150.61133,-14.52735 c 0.4454,-0.0416 0.89028,-0.0583 1.33984,-0.0625 v -19.61132 l 0.0625,-0.0195 v -226.1348 c 21.2165,-26.70928 41.30684,-56.1715 56.69922,-80.95899 -23.52291,-40.04431 -52.34486,-75.82917 -83.15234,-108.98437 -28.57217,14.38182 -56.32515,30.67444 -82.53711,48.01172 -13.11639,-13.0373 -27.88953,-23.70214 -42.40039,-34.84961 -14.25695,-11.45134 -30.32318,-19.84677 -45.5625,-29.62891 4.53724,-33.78791 6.7803,-67.0514 7.68359,-101.76758 C 690.71123,99.41994 648.78198,86.299151 606.36914,76.875 c -16.9335,28.45977 -32.41939,59.27922 -45.90625,89.4082 -15.99275,-2.67239 -32.05995,-3.66203 -48.14844,-3.85351 v -0.0254 c -0.11239,0 -0.21676,0.0254 -0.3125,0.0254 -0.0999,0 -0.20478,-0.0254 -0.30468,-0.0254 v 0.0254 c -16.11763,0.19148 -32.17106,1.18112 -48.16797,3.85351 C 450.05076,136.15422 434.57371,105.33477 417.61523,76.875 Z M 298.41602,436.39844 c 50.15113,0 90.79882,40.61746 90.79882,90.75195 0,50.16779 -40.64769,90.80859 -90.79882,90.80859 -50.12617,0 -90.78711,-40.6408 -90.78711,-90.80859 0,-50.13449 40.66094,-90.75195 90.78711,-90.75195 z m 427.17773,0 c 50.122,0 90.7793,40.61746 90.7793,90.75195 0,50.16779 -40.6573,90.80859 -90.7793,90.80859 -50.15946,0 -90.80664,-40.6408 -90.80664,-90.80859 0,-50.13449 40.64718,-90.75195 90.80664,-90.75195 z m -213.59961,53.10937 c 16.14261,0 29.25391,11.90816 29.25391,26.56055 v 83.58984 c 0,14.66488 -13.1113,26.5625 -29.25391,26.5625 -16.1426,0 -29.22656,-11.89762 -29.22656,-26.5625 v -83.58984 c 0,-14.65239 13.08396,-26.56055 29.22656,-26.56055 z"
     stroke-width="4.16261"
     id="path1-433" /><path
     d="m 0,0 -1.121,-16.063 c -0.135,-1.936 -1.675,-3.477 -3.611,-3.616 l -38.555,-2.751 c -0.094,-0.007 -0.188,-0.01 -0.281,-0.01 -1.916,0 -3.569,1.406 -3.852,3.33 l -2.211,14.994 H -81.09 l -2.211,-14.994 c -0.297,-2.018 -2.101,-3.469 -4.133,-3.32 l -38.555,2.751 c -1.936,0.139 -3.476,1.68 -3.611,3.616 L -130.721,0 -163.268,3.138 c 0.015,-3.498 0.06,-7.33 0.06,-8.093 0,-34.374 43.605,-50.896 97.781,-51.086 h 0.066 0.067 c 54.176,0.19 97.766,16.712 97.766,51.086 0,0.777 0.047,4.593 0.063,8.093 z"
     transform="matrix(4.162611,0,0,-4.162611,784.07144,718.72312)"
     id="path2-3" /><path
     d="m 0,0 c 0,-7.994 -6.479,-14.473 -14.479,-14.473 -7.996,0 -14.479,6.479 -14.479,14.473 0,7.994 6.483,14.479 14.479,14.479 C -6.479,14.479 0,7.994 0,0"
     transform="matrix(4.162611,0,0,-4.162611,367.36686,532.53707)"
     id="path3-8" /><path
     d="m 0,0 c 0,-7.994 6.477,-14.473 14.471,-14.473 8.002,0 14.479,6.479 14.479,14.473 0,7.994 -6.477,14.479 -14.479,14.479 C 6.477,14.479 0,7.994 0,0"
     transform="matrix(4.162611,0,0,-4.162611,656.64056,532.53707)"
     id="path4-6" /></g><title
   id="title4">SFML Logo</title><path
   id="path6382"
   style="fill:#ffffff;stroke-width:0.0726664"
   d="m 2473.6304,-102.47852 c -0.028,0.005 -0.056,0.0104 -0.084,0.0169 -0.352,0.0852 -0.7302,0.36 -1.2675,0.9238 l -0.2395,0.25396 -0.2395,0.25409 -0.2392,0.25406 -0.2394,0.25395 -0.2393,0.25405 -0.2395,0.25396 c -0.8713,0.924597 -1.2049,1.234784 -0.3589,2.800963 l 0.1676,0.306178 0.1676,0.306168 0.1676,0.306039 0.1676,0.306167 0.1677,0.306167 0.1675,0.306179 c 0.6102,1.114412 0.802,1.527639 2.553,1.206892 l 2.0577,-0.388736 c 1.2484,-0.235852 1.7008,-0.290758 1.9367,-2.055086 l 0.044,-0.346225 0.044,-0.34619 0.044,-0.34625 0.044,-0.346074 0.045,-0.3462 0.044,-0.346231 c 0.1614,-1.260255 0.2491,-1.707271 -1.3559,-2.477011 l -0.3156,-0.14909 -0.3157,-0.14922 -0.3155,-0.1491 -0.3156,-0.14925 -0.3156,-0.14909 -0.3154,-0.14926 c -0.6056,-0.28637 -1.0028,-0.48333 -1.4228,-0.41655 z m 0.057,0.66606 c 0.023,-0.003 0.045,-0.007 0.069,-0.009 0.3796,-0.0419 0.6247,0.11149 0.8855,0.23481 l 0.01,0.005 -0.203,2.974468 -0.3213,0.06068 -1.2719,-2.695828 c -4e-4,-0.002 0.01,-0.006 0.01,-0.008 0.2296,-0.25707 0.4588,-0.47163 0.7629,-0.54857 l -1e-4,1.7e-4 c 0.022,-0.005 0.044,-0.0104 0.066,-0.0138 z m 1.5732,0.5193 2e-4,-5e-5 0.035,0.0164 0.2184,0.10431 0.218,0.10208 0.2184,0.10433 0.2181,0.10207 0.2185,0.10433 0.2207,0.10394 0.218,0.10208 c 0.3611,0.15899 0.6662,0.33346 0.8212,0.676816 0.1572,0.348228 0.084,0.629087 0.048,0.915295 l -0.029,0.238862 -0.031,0.23928 -0.031,0.23928 -0.03,0.2415 -0.031,0.23928 -0.031,0.23928 -0.031,0.239275 -0.031,0.239277 -0.028,0.241092 -0.03,0.239267 c -0.04,0.392399 -0.1122,0.735562 -0.3909,0.989009 -0.2826,0.257076 -0.5715,0.276668 -0.8551,0.330241 l -2.3741,0.448535 c -0.3858,0.08364 -0.734,0.123792 -1.0613,-0.06296 -0.3319,-0.18937 -0.4395,-0.458057 -0.578,-0.711196 l -0.1163,-0.211455 -0.1166,-0.213688 -0.114,-0.211872 -0.1161,-0.211456 -0.1163,-0.211456 -0.1162,-0.211456 -0.1166,-0.213687 -0.1163,-0.211457 -0.1161,-0.21146 -0.1163,-0.211452 c -0.1991,-0.341466 -0.343,-0.661715 -0.2665,-1.031207 0.077,-0.374089 0.2993,-0.558726 0.4973,-0.76875 l 0.1657,-0.174585 0.1654,-0.176836 0.1654,-0.176826 0.1679,-0.17501 0.1654,-0.17683 0.1658,-0.17461 0.1653,-0.17682 0.025,-0.0255 0.5005,1.058786 -0.064,0.06746 -0.1658,0.174586 -0.1654,0.176702 -0.1657,0.174586 -0.1676,0.17739 -0.1657,0.17445 c -0.1686,0.178891 -0.1981,0.22045 -0.2119,0.236464 0.01,0.01971 0.031,0.09655 0.1383,0.278951 l 0.1235,0.226227 0.1163,0.211588 0.1161,0.211327 0.1141,0.211873 0.1162,0.211457 0.1166,0.213688 0.1162,0.211455 0.1162,0.211457 0.1162,0.211595 0.1162,0.211317 c 0.1131,0.220281 0.1483,0.260746 0.1587,0.277376 0.023,-0.0014 0.1021,-0.0016 0.3056,-0.04617 l 2.3897,-0.45148 c 0.2186,-0.04128 0.286,-0.06027 0.3112,-0.06572 0.011,-0.02151 0.032,-0.09676 0.053,-0.305838 l 0.032,-0.255718 0.031,-0.239276 0.031,-0.239277 0.031,-0.239279 0.03,-0.241511 0.029,-0.238853 0.031,-0.239279 0.031,-0.23928 0.031,-0.239269 0.03,-0.241511 c 0.028,-0.220064 0.03,-0.294851 0.033,-0.31587 -0.02,-0.01251 -0.084,-0.06131 -0.2746,-0.144558 l -0.233,-0.108484 -0.2185,-0.104332 -0.2181,-0.102074 -0.2184,-0.10432 -0.2181,-0.102066 -0.086,-0.0414 z" /></g></svg>
