<?xml version="1.0" encoding="UTF-8" standalone="no"?>
<!-- Created with Inkscape (http://www.inkscape.org/) -->

<svg
   width="200.38379"
   height="200.38416"
   viewBox="0 0 53.018211 53.018308"
   version="1.1"
   id="svg5"
   xml:space="preserve"
   inkscape:version="1.3 (0e150ed6c4, 2023-07-21)"
   sodipodi:docname="mockup.svg"
   xmlns:inkscape="http://www.inkscape.org/namespaces/inkscape"
   xmlns:sodipodi="http://sodipodi.sourceforge.net/DTD/sodipodi-0.dtd"
   xmlns="http://www.w3.org/2000/svg"
   xmlns:svg="http://www.w3.org/2000/svg"><sodipodi:namedview
     id="namedview7"
     pagecolor="#505050"
     bordercolor="#eeeeee"
     borderopacity="1"
     inkscape:showpageshadow="0"
     inkscape:pageopacity="0"
     inkscape:pagecheckerboard="0"
     inkscape:deskcolor="#505050"
     inkscape:document-units="mm"
     showgrid="false"
     showborder="false"
     inkscape:zoom="1.4142136"
     inkscape:cx="9044.6028"
     inkscape:cy="-212.48559"
     inkscape:window-width="2558"
     inkscape:window-height="1418"
     inkscape:window-x="0"
     inkscape:window-y="0"
     inkscape:window-maximized="1"
     inkscape:current-layer="layer1"
     inkscape:export-bgcolor="#00000000" /><defs
     id="defs2" /><g
     inkscape:label="Livello 1"
     inkscape:groupmode="layer"
     id="layer1"
     transform="translate(-2330.8362,46.713203)"><rect
   style="fill:none;fill-opacity:1;stroke:none;stroke-width:0.212703;stroke-linecap:round;stroke-linejoin:round;stroke-opacity:1"
   id="rect6-9-5-6-9-5-3"
   width="53.018307"
   height="53.018307"
   x="2330.8362"
   y="-46.713203" /><g
   id="g12"
   transform="translate(-1.4680772,-3.4988078)"><g
     id="SVGRepo_iconCarrier-886"
     transform="matrix(0.60155345,0,0,0.60155345,2360.5483,-33.76089)"
     style="fill:#ffffff;fill-opacity:1"><title
       id="title1-8">Inkscape icon</title><path
       d="M 11.872,0.191 C 11.127,0.18 10.408,0.469 9.879,0.995 l -8.825,9.038 c -3.343,3.34 2.164,3.061 4.154,4.325 0.922,0.602 -2.955,1.371 -2.164,2.164 0.771,0.793 4.65,1.521 5.422,2.293 0.771,0.791 -1.564,1.627 -0.793,2.418 0.75,0.793 2.549,0.043 2.87,1.842 0.235,1.328 3.3,0.666 4.672,-0.471 0.854,-0.729 -1.479,-0.729 -0.708,-1.521 1.929,-1.949 3.642,-0.875 4.349,-2.676 0.387,-0.963 -2.913,-1.65 -2.034,-2.271 2.101,-1.477 9.812,-2.227 6.255,-5.782 L 13.93,0.995 C 13.37,0.474 12.635,0.188 11.872,0.191 Z m 0.075,0.859 c 0.529,0.003 1.06,0.201 1.444,0.584 l 3.492,3.557 c 0.323,0.321 0.323,0.986 0.129,1.178 L 15.278,4.957 14.935,7.034 13.5,6.262 11.164,7.74 10.393,4.635 9.151,7.333 6.044,7.311 c -0.6,0 -0.514,-0.621 0.107,-1.242 1.221,-1.35 3.6,-3.64 4.35,-4.433 0.385,-0.396 0.915,-0.589 1.445,-0.584 z m 9.755,16.276 c -0.74,0.025 -1.496,0.395 -1.689,1.08 0,0.449 3.492,0.707 3.301,-0.107 -0.141,-0.686 -0.87,-1.002 -1.611,-0.975 v 0.002 z M 6.356,19.271 C 5.348,19.33 4.268,20.062 5.124,20.783 5.915,21.469 7.116,20.633 7.501,19.67 7.261,19.354 6.815,19.244 6.358,19.272 H 6.356 Z m 13.229,0.077 c -0.986,0.9 0.17,1.842 1.134,1.221 0.258,-0.173 -0.021,-1.005 -1.134,-1.221 z"
       id="path1-38"
       style="fill:#ffffff;fill-opacity:1" /></g><g
     id="SVGRepo_iconCarrier-3"
     transform="matrix(0.65846075,-0.09948314,0.09948314,0.65846075,2369.806,0.74868471)"
     style="fill:#ffffff;fill-opacity:1"><title
       id="title1-3">gimp</title><path
       d="m -3.4921754,-10.795591 -0.916,0.451 0.075,0.062 0.247,0.196 2.511,2.0220001 q 1.20499995,0.964 2.43899995,1.891 c -0.007,0.037 -0.011,0.079 -0.011,0.122 0,0.013 0,0.026 0.001,0.039 v -0.002 l 0.32500005,-0.05 0.129,0.19 2.895,1.839 c -0.045,0.176 -0.07,0.378 -0.07,0.586 0,0.454 0.122,0.88 0.335,1.246 l -0.006,-0.012 c 0.795,1.204 1.945,2.11899999 3.299,2.60199999 l 0.046,0.014 c -0.963,-2.45899999 -0.261,-4.45999999 -2.162,-5.16499999 -0.133,-0.058 -0.287,-0.091 -0.45,-0.091 -0.12,0 -0.236,0.018 -0.344,0.052 l 0.008,-0.002 -2.558,-2.368 -0.217,-0.065 -0.031,-0.327 c -0.058,0.023 -0.108,0.048 -0.155,0.076 l 0.005,-0.003 c -0.382,-0.325 -0.858,-0.671 -1.36200005,-1.018 -1.70399995,-1.043 -2.81999995,-1.6250001 -4.03399995,-2.2870001 z m 0.688,-0.125 c -0.06,0.066 -0.124,0.126 -0.192,0.181 l -0.003,0.003 0.262,0.144 c -0.016,-0.124 -0.04,-0.235 -0.071,-0.343 z m -10.3219996,-6.204 c -0.574,0.007 -1.037,0.474 -1.037,1.05 0,0.58 0.47,1.05 1.05,1.05 0.58,0 1.05,-0.47 1.05,-1.05 0,-0.198 -0.055,-0.383 -0.15,-0.54 l 0.003,0.005 c -0.186,-0.31 -0.521,-0.514 -0.903,-0.514 -0.004,0 -0.009,0 -0.013,0 h 10e-4 z m -6.947,-0.153 h 0.002 q 0.013,0 0.026,0 c 0.001,0 0.002,0 0.003,0 0.331,0 0.631,0.132 0.851,0.347 v 0 c 0.218,0.213 0.352,0.509 0.352,0.838 0,0.329 -0.135,0.625 -0.353,0.838 v 0 c -0.219,0.214 -0.52,0.346 -0.851,0.346 -0.331,0 -0.633,-0.133 -0.852,-0.348 v 0 c -0.217,-0.213 -0.352,-0.51 -0.352,-0.838 0,-0.323 0.13,-0.615 0.341,-0.827 v 0 c 0.214,-0.215 0.507,-0.35 0.832,-0.358 h 0.001 z m 13.6739996,-0.799 c 0,0 -0.001,0 -0.001,0 -0.914,0 -1.656,0.741 -1.656,1.656 0,0.915 0.741,1.656 1.656,1.656 0.914,0 1.656,-0.741 1.656,-1.656 0,-0.304 -0.082,-0.59 -0.225,-0.835 l 0.004,0.008 c -0.291,-0.499 -0.824,-0.829 -1.433,-0.829 v 0 z m -7.2179996,-0.602 c 0.023,-10e-4 0.05,-10e-4 0.077,-10e-4 1.243,0 2.256,0.985 2.3,2.218 v 0.004 c -0.046,1.235 -1.059,2.219 -2.301,2.219 -0.027,0 -0.054,0 -0.081,-0.001 h 0.004 c -0.023,0.001 -0.049,0.001 -0.076,0.001 -1.242,0 -2.254,-0.984 -2.298,-2.215 v -0.004 c 0.044,-1.237 1.058,-2.223 2.302,-2.223 0.026,0 0.051,0 0.076,0.001 h -0.004 z m 16.2359996,-6.823 c -0.132,-0.02 -0.285,0.134 -0.405,0.496 -0.196,0.587 -1.34100005,4.003 -6.878,5.406 0.74,0.62 1.21,1.54 1.22,2.571 v 0.002 c -0.072,1.949 -1.669,3.501 -3.628,3.501 -0.042,0 -0.085,-10e-4 -0.127,-0.002 h 0.006 c -0.035,10e-4 -0.076,0.002 -0.118,0.002 -1.96,0 -3.5569996,-1.552 -3.6279996,-3.494 v -0.007 c 0.003,-0.764 0.264,-1.467 0.699,-2.027 l -0.006,0.008 c -2.444,-0.335 -4.484,-1.81 -5.591,-3.863 l -0.02,-0.04 -0.12,5.202 c 0.004,0.075 0.007,0.163 0.007,0.252 0,0.646 -0.126,1.262 -0.356,1.825 l 0.012,-0.032 -0.063,-0.09 c -0.446,-0.624 -1.002,-1.138 -1.643,-1.525 l -0.025,-0.014 c -0.532,-0.331 -1.178,-0.528 -1.87,-0.528 -0.008,0 -0.016,0 -0.024,0 h 10e-4 c -0.476,0.01 -0.913,0.164 -1.273,0.422 l 0.007,-0.005 c -0.603,0.484 -0.987,1.222 -0.987,2.049 0,0.059 0.002,0.117 0.006,0.175 v -0.008 c 0.04,1.097 0.416,2.099 1.027,2.914 l -0.01,-0.013 c 0.508,0.716 1.17,1.291 1.939,1.685 l 0.03,0.014 c 0.423,0.229 0.926,0.363 1.461,0.363 0.242,0 0.477,-0.028 0.703,-0.08 l -0.021,0.004 c 3.745,2.7740001 10.5989996,5.1840001 15.2839996,2.3560001 l -2.53,-2.0360001 c -0.657,0.1760001 -1.412,0.2780001 -2.19,0.2780001 -1.191,0 -2.327,-0.237 -3.363,-0.6680001 l 0.058,0.021 c 0.712,0.235 1.531,0.37 2.381,0.37 1.593,0 3.076,-0.475 4.314,-1.29 l -0.029,0.018 c -0.247,-0.268 -0.541,-0.489 -0.87,-0.65 l -0.017,-0.008 c 0.456,0.101 0.85,0.319 1.163,0.621 l -0.001,-10e-4 c 0.17,0.218 0.273,0.495 0.273,0.796 0,0.007 0,0.014 0,0.021 v -10e-4 c 0.691,0.372 1.478,0.8200001 2.34299995,1.3270001 2.57400005,-2.5740001 4.06500005,-7.4140001 3.14900005,-15.7670001 -0.044,-0.336 -0.159,-0.531 -0.291,-0.552 z"
       id="path1-7"
       style="fill:#ffffff;fill-opacity:1" /></g><g
     id="SVGRepo_iconCarrier-26"
     transform="matrix(0.02259344,-0.00361503,0.00361503,0.02259344,2342.344,-27.576219)"
     style="fill:#ffffff;fill-opacity:1"> <g
   id="2069a460dcf28295e231f3111e037552"
   style="fill:#ffffff;fill-opacity:1"> <path
   display="inline"
   d="M 426.333,0.5 H 85.667 C 38.825,0.5 0.5,38.825 0.5,85.667 v 340.667 c 0,46.842 38.325,85.167 85.167,85.167 h 340.667 c 46.842,0 85.167,-38.325 85.167,-85.167 V 85.667 C 511.5,38.825 473.175,0.5 426.333,0.5 Z M 245.329,260.524 c -17.736,17.736 -45.611,26.065 -77.103,26.065 -8.326,0 -15.927,-0.365 -21.72,-1.451 v 91.945 h -44.159 v -240.72 c 15.927,-2.895 38.009,-5.069 68.05,-5.069 32.582,0 56.473,6.878 72.039,19.911 14.48,11.947 23.89,31.131 23.89,53.936 -0.001,23.168 -7.24,42.351 -20.997,55.383 z m 92.652,120.182 c -21.358,0 -40.542,-5.069 -53.574,-12.31 l 8.687,-32.216 c 10.135,6.154 29.322,12.671 45.249,12.671 19.545,0 28.236,-7.964 28.236,-19.549 0,-11.943 -7.239,-18.099 -28.96,-25.7 -34.391,-11.947 -48.866,-30.769 -48.505,-51.403 0,-31.131 25.7,-55.383 66.604,-55.383 19.549,0 36.562,5.069 46.695,10.496 l -8.687,31.493 c -7.602,-4.342 -21.721,-10.135 -37.285,-10.135 -15.928,0 -24.615,7.602 -24.615,18.46 0,11.224 8.326,16.655 30.77,24.618 31.854,11.582 46.696,27.871 47.058,53.937 -10e-4,31.854 -24.976,55.021 -71.673,55.021 z M 221.8,206.95 c 0,28.598 -20.273,44.887 -53.574,44.887 -9.049,0 -16.289,-0.362 -21.72,-1.809 v -82.534 c 4.708,-1.085 13.395,-2.171 25.704,-2.171 30.769,0 49.59,14.48 49.59,41.627 z"
   id="path1-587"
   style="fill:#ffffff;fill-opacity:1"> </path> </g> </g></g><style
   id="style2">.st0{fill:#4c4c4c}</style>&#10;  &#10;  &#10;  &#10;  &#10;  &#10;  &#10;  &#10;  &#10;  &#10;  &#10;  &#10;  &#10;  &#10;  &#10;  &#10;  &#10;<title
   id="title4">SFML Logo</title></g></svg>
