<?xml version="1.0" encoding="UTF-8" standalone="no"?>
<!-- Created with Inkscape (http://www.inkscape.org/) -->

<svg
   width="200.38379"
   height="200.38416"
   viewBox="0 0 53.018211 53.018308"
   version="1.1"
   id="svg5"
   xml:space="preserve"
   inkscape:version="1.3 (0e150ed6c4, 2023-07-21)"
   sodipodi:docname="mockup.svg"
   xmlns:inkscape="http://www.inkscape.org/namespaces/inkscape"
   xmlns:sodipodi="http://sodipodi.sourceforge.net/DTD/sodipodi-0.dtd"
   xmlns="http://www.w3.org/2000/svg"
   xmlns:svg="http://www.w3.org/2000/svg"><sodipodi:namedview
     id="namedview7"
     pagecolor="#505050"
     bordercolor="#eeeeee"
     borderopacity="1"
     inkscape:showpageshadow="0"
     inkscape:pageopacity="0"
     inkscape:pagecheckerboard="0"
     inkscape:deskcolor="#505050"
     inkscape:document-units="mm"
     showgrid="false"
     showborder="false"
     inkscape:zoom="0.5"
     inkscape:cx="8209"
     inkscape:cy="-227"
     inkscape:window-width="2558"
     inkscape:window-height="1418"
     inkscape:window-x="0"
     inkscape:window-y="0"
     inkscape:window-maximized="1"
     inkscape:current-layer="layer1"
     inkscape:export-bgcolor="#00000000" /><defs
     id="defs2" /><g
     inkscape:label="Livello 1"
     inkscape:groupmode="layer"
     id="layer1"
     transform="translate(-2190.6523,107.94778)"><rect
   style="fill:none;fill-opacity:1;stroke:none;stroke-width:0.212703;stroke-linecap:round;stroke-linejoin:round;stroke-opacity:1"
   id="rect6"
   width="53.018307"
   height="53.018307"
   x="2190.6523"
   y="-107.94778" /><g
   id="SVGRepo_iconCarrier-0"
   transform="matrix(0.06828631,0,0,0.06828631,2206.7479,-91.852219)"
   style="fill:#ffffff"> <g
   id="XMLID_91_-4"
   style="fill:#ffffff"> <path
   id="XMLID_92_-8"
   d="m 274.659,244.888 c -8.944,-3.663 -12.77,-8.524 -12.4,-15.777 0.381,-8.466 -4.422,-14.667 -6.703,-17.117 1.378,-5.264 5.405,-23.474 0.004,-39.291 -5.804,-16.93 -23.524,-42.787 -41.808,-68.204 C 206.267,94.061 205.913,82.715 205.504,69.577 205.112,57.046 204.67,42.842 197.682,27.052 190.084,9.859 174.838,0 155.851,0 144.556,0 132.962,3.53 124.04,9.684 c -18.27,12.609 -15.855,40.1 -14.257,58.291 0.219,2.491 0.425,4.844 0.545,6.853 1.064,17.816 0.096,27.206 -1.17,30.06 -0.819,1.865 -4.851,7.173 -9.118,12.793 -4.413,5.812 -9.416,12.4 -13.517,18.539 -4.893,7.387 -8.843,18.678 -12.663,29.597 -2.795,7.99 -5.435,15.537 -8.005,20.047 -4.871,8.676 -3.659,16.766 -2.647,20.505 -1.844,1.281 -4.508,3.803 -6.757,8.557 -2.718,5.8 -8.233,8.917 -19.701,11.122 -5.27,1.078 -8.904,3.294 -10.804,6.586 -2.765,4.791 -1.259,10.811 0.115,14.925 2.03,6.048 0.765,9.876 -1.535,16.826 -0.53,1.604 -1.131,3.42 -1.74,5.423 -0.959,3.161 -0.613,6.035 1.026,8.542 4.331,6.621 16.969,8.956 29.979,10.492 7.768,0.922 16.27,4.029 24.493,7.035 8.057,2.944 16.388,5.989 23.961,6.913 1.151,0.145 2.291,0.218 3.39,0.218 11.434,0 16.6,-7.587 18.238,-10.704 4.107,-0.838 18.272,-3.522 32.871,-3.882 14.576,-0.416 28.679,2.462 32.674,3.357 1.256,2.404 4.567,7.895 9.845,10.724 2.901,1.586 6.938,2.495 11.073,2.495 10e-4,0 0,0 10e-4,0 4.416,0 12.817,-1.044 19.466,-8.039 6.632,-7.028 23.202,-16 35.302,-22.551 2.7,-1.462 5.226,-2.83 7.441,-4.065 6.797,-3.768 10.506,-9.152 10.175,-14.771 -0.276,-4.667 -3.365,-8.761 -8.062,-10.684 z m -150.47,-1.353 c -0.846,-5.96 -8.513,-11.871 -17.392,-18.715 -7.26,-5.597 -15.489,-11.94 -17.756,-17.312 -4.685,-11.082 -0.992,-30.568 5.447,-40.602 3.182,-5.024 5.781,-12.643 8.295,-20.011 2.714,-7.956 5.521,-16.182 8.66,-19.783 4.971,-5.622 9.565,-16.561 10.379,-25.182 4.655,4.444 11.876,10.083 18.547,10.083 1.027,0 2.024,-0.134 2.977,-0.403 4.564,-1.318 11.277,-5.197 17.769,-8.947 5.597,-3.234 12.499,-7.222 15.096,-7.585 4.453,6.394 30.328,63.655 32.972,82.044 2.092,14.55 -0.118,26.578 -1.229,31.289 -0.894,-0.122 -1.96,-0.221 -3.08,-0.221 -7.207,0 -9.115,3.934 -9.612,6.283 -1.278,6.103 -1.413,25.618 -1.427,30.003 -2.606,3.311 -15.785,18.903 -34.706,21.706 -7.707,1.12 -14.904,1.688 -21.39,1.688 -5.544,0 -9.082,-0.428 -10.551,-0.651 L 117.68,256.34 c 3.749,-1.851 7.497,-5.757 6.509,-12.805 z M 136.254,64.149 c -0.297,0.128 -0.589,0.265 -0.876,0.411 -0.029,-0.644 -0.096,-1.297 -0.199,-1.952 -1.038,-5.975 -5,-10.312 -9.419,-10.312 -0.327,0 -0.656,0.025 -1.017,0.08 -2.629,0.438 -4.691,2.413 -5.821,5.213 0.991,-6.144 4.472,-10.693 8.602,-10.693 4.85,0 8.947,6.536 8.947,14.272 0,0.975 -0.071,1.945 -0.217,2.981 z m 37.686,4.607 c 0.444,-1.414 0.684,-2.944 0.684,-4.532 0,-7.014 -4.45,-12.509 -10.131,-12.509 -5.552,0 -10.069,5.611 -10.069,12.509 0,0.47 0.023,0.941 0.067,1.411 -0.294,-0.113 -0.581,-0.223 -0.861,-0.329 -0.639,-1.935 -0.962,-3.954 -0.962,-6.015 0,-8.387 5.36,-15.211 11.95,-15.211 6.589,0 11.95,6.824 11.95,15.211 0,3.489 -0.963,6.819 -2.628,9.465 z m -4.859,16.324 c -0.095,0.424 -0.297,0.612 -2.531,1.774 -1.128,0.587 -2.532,1.318 -4.289,2.388 l -1.174,0.711 c -4.718,2.86 -15.765,9.559 -18.764,9.952 -2.037,0.274 -3.297,-0.516 -6.13,-2.441 -0.639,-0.435 -1.319,-0.897 -2.044,-1.362 -5.107,-3.351 -8.392,-7.042 -8.763,-8.485 1.665,-1.287 5.792,-4.508 7.905,-6.415 4.289,-3.988 8.605,-6.668 10.741,-6.668 0.113,0 0.215,0.008 0.321,0.028 2.51,0.443 8.701,2.914 13.223,4.718 2.09,0.834 3.895,1.554 5.165,2.01 4.001,1.374 6.087,3.132 6.34,3.79 z m 35.947,186.37 c 2.257,-10.181 4.857,-24.031 4.436,-32.196 -0.097,-1.855 -0.261,-3.874 -0.42,-5.826 -0.297,-3.65 -0.738,-9.075 -0.283,-10.684 0.09,-0.042 0.19,-0.078 0.301,-0.109 0.019,4.668 1.033,13.979 8.479,17.226 2.219,0.968 4.755,1.458 7.537,1.458 7.459,0 15.735,-3.659 19.125,-7.049 1.996,-1.996 3.675,-4.438 4.851,-6.372 0.257,0.753 0.415,1.737 0.332,3.005 -0.443,6.885 2.903,16.019 9.271,19.385 l 0.927,0.487 c 2.268,1.19 8.292,4.353 8.389,5.853 -0.001,0.001 -0.051,0.177 -0.387,0.489 -1.509,1.379 -6.82,4.091 -11.956,6.714 -9.111,4.652 -19.438,9.925 -24.076,14.803 -6.53,6.872 -13.916,11.488 -18.376,11.488 -0.537,0 -1.026,-0.068 -1.461,-0.206 -4.844,-1.51 -8.831,-8.499 -6.689,-18.466 z M 39.917,245.477 c -0.494,-2.312 -0.884,-4.137 -0.465,-5.905 0.304,-1.31 6.771,-2.714 9.533,-3.313 3.883,-0.843 7.899,-1.714 10.525,-3.308 3.551,-2.151 5.474,-6.118 7.17,-9.618 1.228,-2.531 2.496,-5.148 4.005,-6.007 0.085,-0.05 0.215,-0.108 0.463,-0.108 2.827,0 8.759,5.943 12.177,11.262 0.867,1.341 2.473,4.028 4.331,7.139 5.557,9.298 13.166,22.033 17.14,26.301 3.581,3.837 9.378,11.214 7.952,17.541 -1.044,4.909 -6.602,8.901 -7.913,9.784 -0.476,0.108 -1.065,0.163 -1.758,0.163 -7.606,0 -22.662,-6.328 -30.751,-9.728 l -1.197,-0.503 c -4.517,-1.894 -11.891,-3.087 -19.022,-4.241 -5.674,-0.919 -13.444,-2.176 -14.732,-3.312 -1.044,-1.171 0.167,-4.978 1.235,-8.337 0.769,-2.414 1.563,-4.91 1.998,-7.523 0.617,-4.168 -0.109,-7.561 -0.691,-10.287 z"
   style="fill:#ffffff" /> </g> </g><g
   id="SVGRepo_iconCarrier-4-7"
   transform="matrix(0.81082459,0.1585638,-0.1585638,0.81082459,2227.9463,-105.4432)"
   style="fill:#ffffff;fill-opacity:1"><path
     d="m 6.999945,1.000025 c -0.53416,1.30962 -0.85671,2.16741 -1.45143,3.43809 0.36464,0.38652 0.81219,0.8345 1.53905,1.34286 -0.78145,-0.32156 -1.31403,-0.64213 -1.71238,-0.97714 -0.76113,1.5882 -1.95535,3.84813 -4.37524,8.19619 1.90161,-1.09784 3.37665,-1.77397 4.75048,-2.03238 -0.0589,-0.25367 -0.0918,-0.52896 -0.0895,-0.81524 l 0.002,-0.0591 c 0.0302,-1.21853 0.66434,-2.15695 1.41524,-2.09333 0.75089,0.0636 1.33494,1.10528 1.30476,2.32381 -0.006,0.22916 -0.031,0.44885 -0.0762,0.65333 1.3586,0.26611 2.81794,0.94016 4.69333,2.02286 -0.36995,-0.68111 -0.7018,-1.29335 -1.01714,-1.8781 -0.49672,-0.38499 -1.01365,-0.88613 -2.07048,-1.42857 0.72641,0.18875 1.24793,0.40612 1.65333,0.64953 -3.20619,-5.96938 -3.46623,-6.7627 -4.56571,-9.34286 z"
     id="path1-1"
     style="fill:#ffffff;fill-opacity:1" /></g><g
   id="SVGRepo_iconCarrier-45-0-7"
   transform="matrix(0.27116377,0,0,0.27116377,2229.3843,-66.254573)"
   style="fill:#ffffff;fill-opacity:1;stroke:#ffffff;stroke-opacity:1"><title
     id="title1-6-2">debian</title><path
     d="m 3.973,10.755 c 0.085,-0.271 0.171,-0.624 0.24,-0.984 l 0.01,-0.066 c -0.437,0.55 -0.212,0.662 -0.25,1.037 z M 4.761,7.43 C 4.848,8.142 4.224,8.43 4.898,7.955 5.273,7.13 4.761,7.73 4.773,7.43 Z M 16.562,1.154 c 0.327,-0.062 0.734,-0.115 1.146,-0.147 l 0.041,-0.003 c -0.462,0.038 -0.925,0.063 -1.375,0.125 l 0.187,0.025 z m 10.816,13.376 -0.087,0.187 c -0.145,1.031 -0.448,1.963 -0.885,2.814 l 0.023,-0.049 c 0.472,-0.854 0.803,-1.852 0.933,-2.912 l 0.004,-0.04 z M 13.701,17.507 C 13.548,17.32 13.418,17.106 13.32,16.874 l -0.007,-0.017 c 0.134,0.419 0.316,0.784 0.546,1.113 L 13.85,17.957 13.7,17.507 Z m -0.775,0.038 -0.062,0.35 c 0.298,0.477 0.628,0.89 1,1.262 v 0 c -0.3,-0.587 -0.525,-0.825 -0.937,-1.625 z m 12.35,-3.577 c -0.028,0.687 -0.2,1.328 -0.487,1.901 l 0.012,-0.027 -0.437,0.226 c -0.35,0.675 0.038,0.437 -0.212,0.975 -0.602,0.595 -1.264,1.13 -1.976,1.596 l -0.048,0.03 c -0.251,0 0.175,-0.312 0.237,-0.425 -0.739,0.5 -0.601,0.75 -1.713,1.062 l -0.038,-0.075 c -0.468,0.16 -1.008,0.253 -1.569,0.253 -2.759,0 -4.996,-2.237 -4.996,-4.996 0,-0.02 0,-0.041 0,-0.061 v 0.003 c -0.037,0.212 -0.087,0.162 -0.15,0.25 -0.01,-0.112 -0.016,-0.242 -0.016,-0.374 0,-1.752 1.015,-3.268 2.49,-3.989 l 0.026,-0.012 c 0.55,-0.283 1.2,-0.448 1.888,-0.448 1.066,0 2.04,0.397 2.78,1.052 L 21.063,10.905 C 20.292,9.912 19.098,9.279 17.757,9.279 c -0.033,0 -0.066,0 -0.099,10e-4 h 0.005 c -1.417,0.013 -2.649,0.792 -3.303,1.943 l -0.01,0.019 c -0.75,0.475 -0.837,1.837 -1.162,2.076 -0.068,0.337 -0.107,0.724 -0.107,1.12 0,2.225 1.232,4.161 3.051,5.165 l 0.03,0.015 c 0.337,0.237 0.1,0.262 0.15,0.437 -0.752,-0.362 -1.388,-0.85 -1.906,-1.443 L 14.4,18.605 c 0.28,0.439 0.611,0.814 0.992,1.131 l 0.008,0.006 c -0.687,-0.225 -1.587,-1.625 -1.849,-1.687 1.162,2.074 4.724,3.65 6.574,2.874 -0.164,0.012 -0.355,0.019 -0.547,0.019 -0.845,0 -1.658,-0.135 -2.419,-0.385 l 0.055,0.016 c -0.412,-0.2 -0.962,-0.637 -0.875,-0.712 0.83,0.359 1.796,0.567 2.811,0.567 1.736,0 3.329,-0.61 4.577,-1.627 l -0.013,0.01 c 0.55,-0.437 1.162,-1.175 1.337,-1.187 -0.25,0.4 0.05,0.2 -0.15,0.55 0.55,-0.9 -0.25,-0.375 0.575,-1.55 l 0.3,0.412 c -0.112,-0.75 0.925,-1.651 0.825,-2.827 0.237,-0.375 0.25,0.375 0,1.212 0.362,-0.925 0.1,-1.062 0.187,-1.824 0.1,0.215 0.198,0.476 0.277,0.745 l 0.011,0.042 c -0.015,-0.121 -0.023,-0.262 -0.023,-0.405 0,-0.581 0.138,-1.13 0.382,-1.615 l -0.009,0.021 c -0.112,-0.062 -0.35,0.375 -0.4,-0.662 0,-0.462 0.125,-0.25 0.175,-0.35 -0.252,-0.292 -0.423,-0.66 -0.474,-1.066 l -0.001,-0.01 c 0.1,-0.162 0.275,0.412 0.425,0.425 -0.111,-0.386 -0.2,-0.845 -0.247,-1.316 L 26.901,9.378 c -0.425,-0.85 -0.15,0.125 -0.5,-0.375 -0.425,-1.363 0.375,-0.312 0.425,-0.925 0.533,0.885 0.956,1.911 1.212,3.002 l 0.014,0.073 C 27.901,10.316 27.689,9.578 27.412,8.873 L 27.44,8.954 C 27.64,9.041 27.115,7.403 27.702,8.492 26.897,6.116 25.274,4.197 23.176,3.028 l -0.05,-0.025 c 0.225,0.212 0.525,0.487 0.412,0.525 -0.937,-0.562 -0.775,-0.6 -0.912,-0.837 -0.762,-0.312 -0.812,0.025 -1.325,0 C 20.436,2.242 19.424,1.837 18.368,1.533 l -0.119,-0.029 0.062,0.287 c -0.962,-0.312 -1.125,0.125 -2.162,0 C 16.086,1.741 16.486,1.616 16.811,1.566 15.885,1.691 15.935,1.391 15.023,1.604 15.217,1.472 15.442,1.339 15.675,1.22 L 15.71,1.204 C 14.96,1.254 13.911,1.641 14.235,1.291 12.459,1.933 10.92,2.774 9.538,3.811 L 9.584,3.778 9.548,3.503 C 8.986,4.178 7.099,5.516 6.949,6.391 L 6.785,6.428 C 6.498,6.928 6.31,7.49 6.073,8.004 5.698,8.654 5.511,8.254 5.573,8.354 5.039,9.44 4.546,10.727 4.165,12.062 l -0.041,0.169 c 0.074,0.691 0.116,1.493 0.116,2.305 0,0.402 -0.01,0.802 -0.031,1.199 l 0.002,-0.056 c -0.003,0.111 -0.005,0.242 -0.005,0.374 0,6.747 4.321,12.485 10.347,14.597 l 0.108,0.033 c 0.811,0.203 1.743,0.32 2.702,0.32 0.144,0 0.288,-0.003 0.43,-0.008 l -0.021,10e-4 c -1.237,-0.35 -1.4,-0.187 -2.599,-0.612 -0.875,-0.4 -1.062,-0.875 -1.675,-1.412 l 0.25,0.437 c -1.213,-0.425 -0.712,-0.525 -1.701,-0.837 l 0.262,-0.337 C 11.79,28.046 11.369,27.69 11.103,27.234 l -0.006,-0.011 -0.425,0.012 C 10.16,26.609 9.885,26.147 9.91,25.784 l -0.139,0.25 C 9.609,25.772 7.872,23.658 8.771,24.146 8.513,23.967 8.302,23.737 8.151,23.469 L 8.146,23.459 8.321,23.247 C 7.957,22.834 7.688,22.329 7.551,21.771 L 7.546,21.747 c 0.131,0.198 0.326,0.345 0.555,0.411 L 8.108,22.16 C 7.008,19.446 6.946,22.01 6.107,19.408 L 6.294,19.383 C 6.19,19.209 6.081,19 5.985,18.784 L 5.969,18.745 6.044,17.995 C 5.257,17.07 5.819,14.119 5.932,12.494 6.27,11.53 6.641,10.713 7.074,9.935 L 7.031,10.018 6.769,9.968 c 0.5,-0.887 2.925,-3.589 4.05,-3.45 0.537,-0.687 -0.112,0 -0.225,-0.175 1.2,-1.238 1.575,-0.875 2.376,-1.1 0.875,-0.501 -0.75,0.2 -0.337,-0.189 1.5,-0.375 1.062,-0.875 3.025,-1.062 0.2,0.125 -0.487,0.175 -0.65,0.325 0.719,-0.231 1.545,-0.365 2.403,-0.365 1.194,0 2.328,0.259 3.349,0.723 L 20.709,4.654 c 2.392,1.275 4.071,3.617 4.408,6.373 l 0.004,0.04 0.1,0.025 c 0.024,0.284 0.038,0.615 0.038,0.949 0,0.863 -0.091,1.705 -0.264,2.517 l 0.014,-0.079 0.25,-0.525 z M 17,1.542 16.813,1.579 16.988,1.567 V 1.542 Z m -0.525,-0.15 c 0.25,0.05 0.562,0.087 0.525,0.15 0.287,-0.062 0.35,-0.125 -0.537,-0.15 z m 5.526,12.24 c 0.062,-0.901 -0.175,-0.626 -0.25,-0.276 0.087,0.05 0.162,0.625 0.25,0.275 z m -0.976,2.562 c 0.274,-0.375 0.479,-0.82 0.583,-1.302 l 0.004,-0.023 c -0.099,0.347 -0.24,0.65 -0.42,0.925 L 21.2,15.781 c -0.937,0.587 -0.087,-0.337 0,-0.7 -1,1.262 -0.137,0.75 -0.175,1.112 z m -2.676,0.662 c -0.5,0 0.1,0.25 0.751,0.35 0.18,-0.135 0.339,-0.27 0.489,-0.414 l -0.002,0.002 c -0.242,0.056 -0.52,0.087 -0.805,0.087 -0.152,0 -0.302,-0.009 -0.45,-0.027 l 0.018,0.002 z"
     id="path1-0-3-7"
     style="fill:#ffffff;fill-opacity:1;stroke:#ffffff;stroke-opacity:1" /></g><g
   id="SVGRepo_iconCarrier-5-2"
   transform="matrix(0.26458333,0,0,0.26458333,2199.7609,-106.18699)"
   style="fill:#ffffff;fill-opacity:1"><title
     id="title1-2">redhat</title><path
     d="m 26.135,15.933 c 0.136,0.467 0.233,1.011 0.271,1.572 l 0.001,0.024 c 0,2.206 -2.479,3.43 -5.74,3.43 C 13.3,20.964 6.846,16.646 6.846,13.794 c 0,-0.002 0,-0.004 0,-0.005 0,-0.416 0.087,-0.811 0.245,-1.169 l -0.007,0.019 c -2.648,0.132 -6.08,0.606 -6.08,3.634 0,4.96 11.753,11.073 21.058,11.073 7.135,0 8.934,-3.227 8.934,-5.773 0,-2.006 -1.733,-4.28 -4.857,-5.638 z m -5.125,1.799 c 1.971,0 4.824,-0.407 4.824,-2.752 0.001,-0.02 0.001,-0.043 0.001,-0.067 0,-0.167 -0.019,-0.33 -0.054,-0.486 l 0.003,0.015 -1.175,-5.099 C 24.339,8.221 24.102,7.712 22.132,6.728 20.448,5.839 18.495,5.124 16.44,4.683 L 16.289,4.656 c -0.916,0 -1.183,1.182 -2.277,1.182 -1.052,0 -1.833,-0.882 -2.818,-0.882 -0.946,0 -1.562,0.644 -2.037,1.969 0,0 -1.325,3.736 -1.496,4.279 -0.023,0.08 -0.036,0.172 -0.036,0.267 0,0.014 0,0.028 0.001,0.042 v -0.002 c 0,1.452 5.72,6.216 13.384,6.216 z"
     id="path1-5-6"
     style="fill:#ffffff;fill-opacity:1" /></g><path
   fill-rule="evenodd"
   clip-rule="evenodd"
   d="m 2201.8569,-65.018737 c 0.1245,-0.356244 0.1921,-0.739119 0.1921,-1.13781 0,-1.905549 -1.5448,-3.450305 -3.4503,-3.450305 -1.9055,0 -3.4503,1.544756 -3.4503,3.450305 0,0.942868 0.3782,1.797429 0.9912,2.420174 l 3.4999,-3.499889 0.8641,0.864071 z m -0.6302,1.09788 -1.5872,-1.587249 -2.4857,2.485658 c 0.4395,0.202957 0.929,0.316206 1.4449,0.316206 1.0526,0 1.9952,-0.471398 2.628,-1.214615 z"
   fill="#10b981"
   id="path1-4-1"
   style="fill:#ffffff;fill-opacity:1;stroke-width:0.0359405" /><style
   id="style2">.st0{fill:#4c4c4c}</style>&#10;  &#10;  &#10;  &#10;  &#10;  &#10;  &#10;  &#10;  &#10;  &#10;  &#10;  &#10;  &#10;  &#10;  &#10;  &#10;  &#10;<title
   id="title4">SFML Logo</title></g></svg>
