<?xml version="1.0" encoding="UTF-8" standalone="no"?>
<!-- Created with Inkscape (http://www.inkscape.org/) -->

<svg
   width="200.38379"
   height="200.38416"
   viewBox="0 0 53.018211 53.018308"
   version="1.1"
   id="svg5"
   xml:space="preserve"
   inkscape:version="1.3 (0e150ed6c4, 2023-07-21)"
   sodipodi:docname="mockup.svg"
   xmlns:inkscape="http://www.inkscape.org/namespaces/inkscape"
   xmlns:sodipodi="http://sodipodi.sourceforge.net/DTD/sodipodi-0.dtd"
   xmlns="http://www.w3.org/2000/svg"
   xmlns:svg="http://www.w3.org/2000/svg"><sodipodi:namedview
     id="namedview7"
     pagecolor="#505050"
     bordercolor="#eeeeee"
     borderopacity="1"
     inkscape:showpageshadow="0"
     inkscape:pageopacity="0"
     inkscape:pagecheckerboard="0"
     inkscape:deskcolor="#505050"
     inkscape:document-units="mm"
     showgrid="false"
     showborder="false"
     inkscape:zoom="0.5"
     inkscape:cx="8209"
     inkscape:cy="-227"
     inkscape:window-width="2558"
     inkscape:window-height="1418"
     inkscape:window-x="0"
     inkscape:window-y="0"
     inkscape:window-maximized="1"
     inkscape:current-layer="layer1"
     inkscape:export-bgcolor="#00000000" /><defs
     id="defs2" /><g
     inkscape:label="Livello 1"
     inkscape:groupmode="layer"
     id="layer1"
     transform="translate(-2262.1265,107.94778)"><rect
   style="fill:none;fill-opacity:1;stroke:none;stroke-width:0.212703;stroke-linecap:round;stroke-linejoin:round;stroke-opacity:1"
   id="rect6-9"
   width="53.018307"
   height="53.018307"
   x="2262.1265"
   y="-107.94778" /><g
   id="SVGRepo_iconCarrier-8"
   transform="matrix(0.40884102,0.10466419,-0.10466419,0.40884102,2298.6455,-101.6854)"
   style="fill:#ffffff"><path
     fill-rule="evenodd"
     clip-rule="evenodd"
     d="M 9.29289,1.29289 C 9.48043,1.10536 9.73478,1 10,1 h 8 c 1.6569,0 3,1.34315 3,3 v 5 c 0,0.55228 -0.4477,1 -1,1 -0.5523,0 -1,-0.44772 -1,-1 V 4 C 19,3.44772 18.5523,3 18,3 h -7 v 5 c 0,0.55228 -0.4477,1 -1,1 H 5 v 11 c 0,0.5523 0.44772,1 1,1 h 1 c 0.55228,0 1,0.4477 1,1 0,0.5523 -0.44772,1 -1,1 H 6 C 4.34315,23 3,21.6569 3,20 V 8 C 3,7.73478 3.10536,7.48043 3.29289,7.29289 Z M 6.41421,7 H 9 V 4.41421 Z M 19,12 c 0.5523,0 1,0.4477 1,1 v 6 h 3 c 0.5523,0 1,0.4477 1,1 0,0.5523 -0.4477,1 -1,1 h -4 c -0.5523,0 -1,-0.4477 -1,-1 v -7 c 0,-0.5523 0.4477,-1 1,-1 z m -7.1863,0.4188 c -0.321,-0.4495 -0.9455,-0.5535 -1.3949,-0.2325 -0.44945,0.321 -0.55354,0.9455 -0.2325,1.3949 l 2.0848,2.9188 -2.0848,2.9188 c -0.32104,0.4494 -0.21695,1.0739 0.2325,1.3949 0.4494,0.321 1.0739,0.217 1.3949,-0.2325 l 1.6863,-2.3607 1.6863,2.3607 c 0.321,0.4495 0.9455,0.5535 1.3949,0.2325 0.4495,-0.321 0.5535,-0.9455 0.2325,-1.3949 L 14.7289,16.5 16.8137,13.5812 c 0.321,-0.4494 0.217,-1.0739 -0.2325,-1.3949 -0.4494,-0.321 -1.0739,-0.217 -1.3949,0.2325 L 13.5,14.7795 Z"
     fill="#000000"
     id="path1-12"
     style="fill:#ffffff" /></g><g
   id="SVGRepo_iconCarrier-88"
   transform="matrix(0.39604902,-0.08386807,0.08386807,0.39604902,2266.7209,-70.590393)"
   style="fill:#ffffff"><path
     fill-rule="evenodd"
     clip-rule="evenodd"
     d="M 10,1 C 9.73478,1 9.48043,1.10536 9.29289,1.29289 l -6,6 C 3.10536,7.48043 3,7.73478 3,8 v 12 c 0,1.6569 1.34315,3 3,3 h 5 c 0.5523,0 1,-0.4477 1,-1 0,-0.5523 -0.4477,-1 -1,-1 H 6 C 5.44772,21 5,20.5523 5,20 V 9 h 5 c 0.5523,0 1,-0.44772 1,-1 V 3 h 7 c 0.5523,0 1,0.44772 1,1 v 5 c 0,0.55228 0.4477,1 1,1 0.5523,0 1,-0.44772 1,-1 V 4 C 21,2.34315 19.6569,1 18,1 Z M 9,7 H 6.41421 L 9,4.41421 Z m 6,5 c -0.5523,0 -1,0.4477 -1,1 v 4 3 c 0,0.5523 0.4477,1 1,1 0.5523,0 1,-0.4477 1,-1 v -2 h 3 c 1.6569,0 3,-1.3431 3,-3 0,-1.6569 -1.3431,-3 -3,-3 z m 4,4 h -3 v -2 h 3 c 0.5523,0 1,0.4477 1,1 0,0.5523 -0.4477,1 -1,1 z"
     fill="#000000"
     id="path1-50"
     style="fill:#ffffff" /></g><g
   id="g6"
   style="stroke:#ffffff"
   transform="matrix(0.21380547,-0.05912177,0.05912177,0.21380547,1773.914,50.11737)"><path
     d="m 2337.8584,-63.5 c 0,-0.439738 0.354,-0.79375 0.7937,-0.79375 h 28.575 c 0.4398,0 0.7938,0.354012 0.7938,0.79375 v 34.924999 c 0,0.439738 -0.354,0.79375 -0.7938,0.79375 h -28.575 c -0.4397,0 -0.7937,-0.354012 -0.7937,-0.79375 v -8.466666 m 0,-17.991667 V -63.5"
     style="fill:none;fill-opacity:0.402658;stroke:#ffffff;stroke-width:3.175;stroke-linecap:round;paint-order:stroke fill markers"
     id="path1-10" /><rect
     width="17.991667"
     height="17.991667"
     x="2328.8625"
     y="-55.033333"
     rx="0.79374999"
     style="fill:none;fill-opacity:0.402658;stroke:#ffffff;stroke-width:3.175;stroke-linecap:round;stroke-linejoin:miter;stroke-dasharray:none;stroke-opacity:1;paint-order:stroke fill markers"
     id="rect1-3" /><path
     d="m 2337.8435,-55.882381 h 30.1774 m 0,9.844881 h -21.0799 m 20.8153,9.845145 h -29.9128"
     style="fill:none;stroke:#ffffff;stroke-width:3.175;stroke-linecap:round;stroke-linejoin:round;stroke-dasharray:none;stroke-opacity:1"
     id="path2" /><path
     d="m 2342.3563,-49.741667 -2.249,7.408333 m 0,0 -2.2489,-7.408333 -2.249,7.408333 m -2.249,-7.408333 2.249,7.408333"
     style="font-variation-settings:normal;vector-effect:none;fill:none;fill-opacity:1;stroke:#ffffff;stroke-width:3.175;stroke-linecap:round;stroke-linejoin:round;stroke-miterlimit:4;stroke-dasharray:none;stroke-dashoffset:0;stroke-opacity:1;-inkscape-stroke:none;stop-color:#000000"
     id="path3-0" /></g><g
   id="SVGRepo_iconCarrier-7"
   transform="matrix(0.30073396,0,0,0.30073396,2299.9722,-69.746367)"
   style="fill:#ffffff"><title
     id="title1-63">powershell</title><path
     d="m 16.012,21.897 c -0.004,0 -0.009,0 -0.014,0 -0.637,0 -1.153,0.516 -1.153,1.154 0,0.638 0.516,1.154 1.153,1.154 0.005,0 0.01,0 0.015,0 h 5.539 c 0.003,0 0.007,0 0.011,0 0.637,0 1.153,-0.516 1.153,-1.153 0,-0.637 -0.516,-1.153 -1.153,-1.153 -0.004,0 -0.008,0 -0.011,0 h 0.001 z M 19.506,16.4 c 0.134,-0.198 0.214,-0.442 0.214,-0.704 0,-0.327 -0.124,-0.625 -0.327,-0.85 l 10e-4,10e-4 -6.99,-7.438 C 12.165,7.182 11.842,7.042 11.486,7.042 c -0.736,0 -1.333,0.597 -1.333,1.333 0,0.326 0.117,0.625 0.311,0.856 l -0.002,-0.002 5.826,6.198 v 0.137 L 7.016,22.28 c -0.299,0.246 -0.489,0.617 -0.489,1.032 0,0.736 0.597,1.333 1.333,1.333 0.268,0 0.517,-0.079 0.726,-0.215 l -0.005,0.003 10.283,-7.385 c 0.265,-0.163 0.482,-0.382 0.638,-0.641 l 0.005,-0.009 z M 29.972,4.721 C 29.984,4.72 29.998,4.72 30.013,4.72 c 0.55,0 0.995,0.446 0.995,0.995 0,0.107 -0.017,0.21 -0.048,0.306 L 30.962,6.014 26.39,25.986 c -0.187,0.724 -0.817,1.256 -1.577,1.293 H 24.809 2.028 C 2.016,27.28 2.002,27.28 1.987,27.28 c -0.55,0 -0.995,-0.446 -0.995,-0.995 0,-0.107 0.017,-0.21 0.048,-0.306 L 1.038,25.986 5.61,6.014 C 5.797,5.29 6.427,4.758 7.187,4.721 h 0.004 z"
     id="path1-17"
     style="fill:#ffffff" /></g><g
   id="g10"
   transform="translate(0.00107932,-1.3051889)"><rect
     style="fill:#ffffff;fill-opacity:1;stroke:#ffffff;stroke-width:0.2;stroke-linecap:round;stroke-linejoin:round;stroke-opacity:1"
     id="rect7"
     width="7.2244"
     height="7.2244258"
     x="2289.0359"
     y="-79.732079"
     ry="0.30000001" /><rect
     style="fill:#ffffff;fill-opacity:1;stroke:#ffffff;stroke-width:0.2;stroke-linecap:round;stroke-linejoin:round;stroke-opacity:1"
     id="rect8"
     width="7.2244"
     height="7.2244258"
     x="2289.0359"
     y="-87.759216"
     ry="0.30000001" /><rect
     style="fill:#ffffff;fill-opacity:1;stroke:#ffffff;stroke-width:0.2;stroke-linecap:round;stroke-linejoin:round;stroke-opacity:1"
     id="rect9"
     width="7.2244"
     height="7.2244258"
     x="2281.0088"
     y="-87.759216"
     ry="0.30000001" /><rect
     style="fill:#ffffff;fill-opacity:1;stroke:#ffffff;stroke-width:0.2;stroke-linecap:round;stroke-linejoin:round;stroke-opacity:1"
     id="rect10"
     width="7.2244"
     height="7.2244258"
     x="2281.0088"
     y="-79.732079"
     ry="0.30000001" /></g><circle
   id="path11"
   style="fill:#ffffff;stroke:#ffffff;stroke-width:0.264583"
   cx="2293.7832"
   cy="-75.932854"
   r="0.14169922" /><style
   id="style2">.st0{fill:#4c4c4c}</style>&#10;  &#10;  &#10;  &#10;  &#10;  &#10;  &#10;  &#10;  &#10;  &#10;  &#10;  &#10;  &#10;  &#10;  &#10;  &#10;  &#10;<title
   id="title4">SFML Logo</title></g></svg>
