<?xml version="1.0" encoding="UTF-8" standalone="no"?>
<!-- Created with Inkscape (http://www.inkscape.org/) -->

<svg
   width="200.38379"
   height="200.38416"
   viewBox="0 0 53.018211 53.018308"
   version="1.1"
   id="svg5"
   xml:space="preserve"
   inkscape:version="1.3 (0e150ed6c4, 2023-07-21)"
   sodipodi:docname="mockup.svg"
   xmlns:inkscape="http://www.inkscape.org/namespaces/inkscape"
   xmlns:sodipodi="http://sodipodi.sourceforge.net/DTD/sodipodi-0.dtd"
   xmlns="http://www.w3.org/2000/svg"
   xmlns:svg="http://www.w3.org/2000/svg"><sodipodi:namedview
     id="namedview7"
     pagecolor="#505050"
     bordercolor="#eeeeee"
     borderopacity="1"
     inkscape:showpageshadow="0"
     inkscape:pageopacity="0"
     inkscape:pagecheckerboard="0"
     inkscape:deskcolor="#505050"
     inkscape:document-units="mm"
     showgrid="false"
     showborder="false"
     inkscape:zoom="0.5"
     inkscape:cx="8209"
     inkscape:cy="-227"
     inkscape:window-width="2558"
     inkscape:window-height="1418"
     inkscape:window-x="0"
     inkscape:window-y="0"
     inkscape:window-maximized="1"
     inkscape:current-layer="layer1"
     inkscape:export-bgcolor="#00000000" /><defs
     id="defs2" /><g
     inkscape:label="Livello 1"
     inkscape:groupmode="layer"
     id="layer1"
     transform="translate(-2399.9473,107.94778)"><rect
   style="fill:none;fill-opacity:1;stroke:none;stroke-width:0.212703;stroke-linecap:round;stroke-linejoin:round;stroke-opacity:1"
   id="rect6-9-5-6"
   width="53.018307"
   height="53.018307"
   x="2399.9473"
   y="-107.94778" /><g
   id="SVGRepo_iconCarrier-08"
   transform="matrix(0.97948847,0,0,0.97948847,2418.6205,-89.274531)"
   style="fill:#ffffff"><path
     d="m 5.79,1.574 h 3.866 c 0.14,0 0.252,0.11 0.252,0.246 V 7.006 A 0.25,0.25 0 0 1 9.656,7.252 H 6.344 c -0.975,0 -1.766,0.77 -1.766,1.72 v 1.162 A 0.25,0.25 0 0 1 4.325,10.377 H 1.867 A 0.25,0.25 0 0 1 1.614,10.131 V 6.177 A 0.25,0.25 0 0 1 1.866,5.931 H 7.98 c 0.418,0 0.757,-0.33 0.757,-0.737 A 0.747,0.747 0 0 0 7.98,4.456 H 5.537 V 1.82 A 0.25,0.25 0 0 1 5.79,1.574 Z m 5.632,2.592 V 1.82 C 11.422,0.87 10.632,0.1 9.656,0.1 H 5.79 C 4.814,0.1 4.023,0.87 4.023,1.82 V 4.456 H 1.867 C 0.89,4.456 0.1,5.226 0.1,6.176 v 3.955 c 0,0.95 0.79,1.72 1.766,1.72 h 2.46 c 0.085,0 0.17,-0.006 0.252,-0.017 v 2.346 c 0,0.95 0.79,1.72 1.766,1.72 h 3.866 c 0.976,0 1.767,-0.77 1.767,-1.72 v -2.636 h 2.156 c 0.976,0 1.767,-0.77 1.767,-1.72 V 5.868 c 0,-0.95 -0.79,-1.72 -1.767,-1.72 h -2.458 c -0.086,0 -0.17,0.005 -0.253,0.017 z M 6.092,10.14 V 8.994 A 0.25,0.25 0 0 1 6.344,8.748 h 3.312 c 0.976,0 1.766,-0.77 1.766,-1.72 V 5.866 a 0.25,0.25 0 0 1 0.253,-0.243 h 2.458 c 0.14,0 0.253,0.11 0.253,0.246 v 3.954 a 0.25,0.25 0 0 1 -0.252,0.246 H 8.02 a 0.747,0.747 0 0 0 -0.757,0.737 c 0,0.408 0.339,0.738 0.757,0.738 h 2.442 v 2.636 a 0.25,0.25 0 0 1 -0.253,0.246 H 6.344 A 0.25,0.25 0 0 1 6.092,14.18 Z"
     fill="#000000"
     id="path1-13"
     style="fill:#ffffff" /></g><g
   id="SVGRepo_iconCarrier-03"
   transform="matrix(0.37571582,0.07919602,-0.07919602,0.37571582,2438.908,-70.691911)"
   style="fill:#ffffff;fill-opacity:1"><title
     id="title1-9">C++ icon</title><path
     d="M 22.393,6 C 22.226,5.71 21.995,5.457 21.741,5.31 L 12.925,0.22 c -0.508,-0.293 -1.339,-0.293 -1.847,0 L 2.26,5.31 C 1.752,5.603 1.337,6.323 1.337,6.91 v 10.18 c 0,0.294 0.104,0.62 0.271,0.91 0.167,0.29 0.398,0.543 0.652,0.689 l 8.816,5.091 c 0.508,0.293 1.339,0.293 1.847,0 l 8.816,-5.091 c 0.254,-0.146 0.485,-0.399 0.652,-0.689 0.167,-0.29 0.271,-0.616 0.271,-0.91 V 6.91 C 22.664,6.616 22.56,6.29 22.393,6 Z M 12,19.109 C 8.08,19.109 4.891,15.92 4.891,12 4.891,8.08 8.08,4.891 12,4.891 a 7.133,7.133 0 0 1 6.156,3.552 L 15.08,10.224 A 3.567,3.567 0 0 0 12,8.445 c -1.96,0 -3.554,1.595 -3.554,3.555 0,1.96 1.594,3.555 3.554,3.555 a 3.57,3.57 0 0 0 3.08,-1.778 l 3.077,1.78 A 7.135,7.135 0 0 1 12,19.109 Z m 7.109,-6.714 h -0.79 v 0.79 h -0.79 v -0.79 h -0.79 v -0.79 h 0.79 v -0.79 h 0.79 v 0.79 h 0.79 z m 2.962,0 h -0.79 v 0.79 h -0.79 v -0.79 h -0.789 v -0.79 h 0.789 v -0.79 h 0.79 v 0.79 h 0.79 z"
     id="path1-19"
     style="fill:#ffffff;fill-opacity:1" /></g><g
   id="SVGRepo_iconCarrier-6"
   transform="matrix(0.52976764,0,0,0.52976764,2407.3937,-70.286802)"
   style="fill:#ffffff;fill-opacity:1"><path
     d="m 3.259,12.714 a 5.727,5.727 0 0 0 8.147,0 5.845,5.845 0 0 0 0,-8.217 5.727,5.727 0 0 0 -8.147,0 5.845,5.845 0 0 0 0,8.217 z m -1.111,1.12 c -2.864,-2.887 -2.864,-7.57 0,-10.457 a 7.289,7.289 0 0 1 10.369,0 c 2.863,2.888 2.863,7.57 0,10.457 a 7.289,7.289 0 0 1 -10.37,0 z M 15.54,2.705 a 1.562,1.562 0 0 1 -2.222,0 1.594,1.594 0 0 1 0,-2.24 1.562,1.562 0 0 1 2.222,0 1.594,1.594 0 0 1 0,2.24 z"
     fill="#000000"
     id="path1-6"
     style="fill:#ffffff;fill-opacity:1" /><path
     d="m 11.844,8.673 a 3.124,3.124 0 0 1 -4.444,0 3.188,3.188 0 0 1 0,-4.481 3.124,3.124 0 0 1 4.444,0 3.188,3.188 0 0 1 0,4.481 z M 8.51,7.553 a 1.562,1.562 0 0 0 2.222,0 1.594,1.594 0 0 0 0,-2.24 1.562,1.562 0 0 0 -2.222,0 1.594,1.594 0 0 0 0,2.24 z"
     fill="#000000"
     id="path2-40"
     style="fill:#ffffff;fill-opacity:1" /></g><g
   id="SVGRepo_iconCarrier-67"
   transform="matrix(0.42863622,-0.14605251,0.14605251,0.42863622,2404.4928,-100.96369)"
   style="fill:#ffffff;fill-opacity:1"><path
     fill-rule="evenodd"
     clip-rule="evenodd"
     d="M 10,1 C 9.73478,1 9.48043,1.10536 9.29289,1.29289 l -6,6 C 3.10536,7.48043 3,7.73478 3,8 v 12 c 0,1.6569 1.34315,3 3,3 h 5 c 0.5523,0 1,-0.4477 1,-1 0,-0.5523 -0.4477,-1 -1,-1 H 6 C 5.44772,21 5,20.5523 5,20 V 9 h 5 c 0.5523,0 1,-0.44772 1,-1 V 3 h 7 c 0.5523,0 1,0.44772 1,1 v 4 c 0,0.55228 0.4477,1 1,1 0.5523,0 1,-0.44772 1,-1 V 4 C 21,2.34315 19.6569,1 18,1 Z M 9,7 H 6.41421 L 9,4.41421 Z m 12.974,7.3056 c -0.2554,-1.0978 -0.8151,-1.9683 -1.6494,-2.5435 -0.82,-0.5654 -1.8148,-0.7837 -2.8472,-0.7604 -1.484,0.0335 -2.6552,0.6703 -3.4243,1.7345 C 13.3114,13.7623 13,15.1028 13,16.5006 c 0,1.4067 0.3294,2.7525 1.0764,3.778 0.772,1.06 1.9424,1.7052 3.4128,1.7211 1.0423,0.0112 2.0521,-0.2367 2.8718,-0.8026 0.8354,-0.5766 1.4147,-1.4453 1.6217,-2.5428 0.1023,-0.5427 -0.2547,-1.0657 -0.7974,-1.168 -0.5427,-0.1024 -1.0656,0.2546 -1.168,0.7973 -0.1112,0.5897 -0.3989,0.9959 -0.7925,1.2676 -0.4092,0.2825 -0.9903,0.4564 -1.714,0.4486 -0.8371,-0.009 -1.4167,-0.348 -1.8178,-0.8987 C 15.2669,18.516 15,17.6247 15,16.5006 c 0,-1.1331 0.2566,-2.0154 0.674,-2.5928 0.3899,-0.5395 0.9687,-0.8868 1.8486,-0.9066 0.7331,-0.0166 1.2815,0.1419 1.6668,0.4075 0.371,0.2558 0.6785,0.6706 0.8366,1.3501 0.1252,0.5379 0.6627,0.8725 1.2006,0.7474 0.5379,-0.1252 0.8725,-0.6627 0.7474,-1.2006 z"
     fill="#000000"
     id="path1-56"
     style="fill:#ffffff;fill-opacity:1" /></g><g
   id="SVGRepo_iconCarrier-82"
   transform="matrix(0.58683535,0,0,0.58683535,2437.0281,-101.44399)"
   style="fill:#ffffff;fill-opacity:1"><path
     d="m 8,0.1 c 0.422,0 0.765,0.342 0.765,0.765 v 0.916 c 0.296,0.035 0.587,0.091 0.87,0.166 L 9.918,1.264 a 0.7646558,0.7646558 0 1 1 1.413,0.585 l -0.276,0.665 c 0.287,0.157 0.56,0.335 0.817,0.533 l 0.633,-0.633 a 0.765,0.765 0 0 1 1.081,1.081 l -0.62,0.62 c 0.24,0.298 0.453,0.618 0.637,0.956 L 14.234,4.81 a 0.765,0.765 0 1 1 0.585,1.413 l -0.654,0.27 c 0.072,0.277 0.126,0.56 0.16,0.849 h 0.81 a 0.765,0.765 0 0 1 0,1.529 h -0.81 a 6.334,6.334 0 0 1 -0.21,1.027 l 0.664,0.275 a 0.765,0.765 0 1 1 -0.585,1.413 l -0.672,-0.278 c -0.13,0.24 -0.278,0.471 -0.44,0.693 l 0.504,0.504 a 0.765,0.765 0 0 1 -1.081,1.081 L 12.04,13.121 c -0.3,0.253 -0.627,0.48 -0.978,0.677 l 0.269,0.65 a 0.765,0.765 0 1 1 -1.413,0.586 l -0.27,-0.65 a 6.332,6.332 0 0 1 -0.883,0.181 v 0.57 a 0.765,0.765 0 0 1 -1.53,0 V 14.58 A 6.386,6.386 0 0 1 6.148,14.362 L 5.87,15.034 A 0.765,0.765 0 1 1 4.457,14.449 L 4.742,13.761 A 6.38,6.38 0 0 1 3.902,13.18 L 3.495,13.586 A 0.765,0.765 0 0 1 2.414,12.505 L 2.842,12.077 A 6.348,6.348 0 0 1 2.383,11.374 l -0.748,0.31 A 0.765,0.765 0 0 1 1.05,10.271 L 1.798,9.961 A 6.339,6.339 0 0 1 1.593,8.871 H 0.865 a 0.765,0.765 0 0 1 0,-1.53 H 1.627 C 1.671,7.043 1.735,6.748 1.819,6.461 L 1.009,6.125 A 0.765,0.765 0 0 1 1.594,4.712 L 2.409,5.049 C 2.59,4.719 2.799,4.406 3.034,4.115 L 2.414,3.495 A 0.765,0.765 0 0 1 3.495,2.414 L 4.128,3.047 C 4.333,2.889 4.548,2.744 4.773,2.612 L 4.457,1.849 A 0.765,0.765 0 0 1 5.87,1.264 L 6.175,2 A 6.34,6.34 0 0 1 7.235,1.78 V 0.865 C 7.235,0.442 7.578,0.1 8,0.1 Z M 7.235,3.454 a 4.854,4.854 0 0 0 -3.487,2.36 l 0.61,0.199 A 0.765,0.765 0 1 1 3.886,7.467 L 3.233,7.255 a 4.823,4.823 0 0 0 1.294,4.225 l 0.458,-0.63 a 0.76429265,0.76429265 0 0 1 1.237,0.898 l -0.47,0.648 A 4.818,4.818 0 0 0 8,12.948 c 0.812,0 1.577,-0.2 2.249,-0.552 L 9.897,11.912 a 0.765,0.765 0 0 1 1.237,-0.899 l 0.34,0.467 c 0.349,-0.36 0.642,-0.773 0.867,-1.227 a 4.843,4.843 0 0 0 0.34,-2.97 L 12.114,7.467 A 0.76434613,0.76434613 0 1 1 11.642,6.013 l 0.5,-0.163 A 4.827,4.827 0 0 0 8.765,3.476 v 0.447 a 0.765,0.765 0 1 1 -1.53,0 z"
     fill="#000000"
     id="path1-9"
     style="fill:#ffffff;fill-opacity:1" /></g><style
   id="style2">.st0{fill:#4c4c4c}</style>&#10;  &#10;  &#10;  &#10;  &#10;  &#10;  &#10;  &#10;  &#10;  &#10;  &#10;  &#10;  &#10;  &#10;  &#10;  &#10;  &#10;<title
   id="title4">SFML Logo</title></g></svg>
