<?xml version="1.0" encoding="UTF-8" standalone="no"?>
<!-- Created with Inkscape (http://www.inkscape.org/) -->

<svg
   width="200.38379"
   height="200.38416"
   viewBox="0 0 53.018211 53.018308"
   version="1.1"
   id="svg5"
   xml:space="preserve"
   inkscape:version="1.3 (0e150ed6c4, 2023-07-21)"
   sodipodi:docname="mockup.svg"
   xmlns:inkscape="http://www.inkscape.org/namespaces/inkscape"
   xmlns:sodipodi="http://sodipodi.sourceforge.net/DTD/sodipodi-0.dtd"
   xmlns="http://www.w3.org/2000/svg"
   xmlns:svg="http://www.w3.org/2000/svg"><sodipodi:namedview
     id="namedview7"
     pagecolor="#505050"
     bordercolor="#eeeeee"
     borderopacity="1"
     inkscape:showpageshadow="0"
     inkscape:pageopacity="0"
     inkscape:pagecheckerboard="0"
     inkscape:deskcolor="#505050"
     inkscape:document-units="mm"
     showgrid="false"
     showborder="false"
     inkscape:zoom="0.5"
     inkscape:cx="8209"
     inkscape:cy="-227"
     inkscape:window-width="2558"
     inkscape:window-height="1418"
     inkscape:window-x="0"
     inkscape:window-y="0"
     inkscape:window-maximized="1"
     inkscape:current-layer="layer1"
     inkscape:export-bgcolor="#00000000" /><defs
     id="defs2" /><g
     inkscape:label="Livello 1"
     inkscape:groupmode="layer"
     id="layer1"
     transform="translate(-2330.8362,107.94778)"><rect
   style="fill:none;fill-opacity:1;stroke:none;stroke-width:0.212703;stroke-linecap:round;stroke-linejoin:round;stroke-opacity:1"
   id="rect6-9-5"
   width="53.018307"
   height="53.018307"
   x="2330.8362"
   y="-107.94778" /><g
   id="SVGRepo_iconCarrier-2"
   transform="matrix(0.75722297,0,0,0.75722297,2348.2587,-90.525305)"
   style="fill:#ffffff"><path
     fill-rule="evenodd"
     clip-rule="evenodd"
     d="m 13.4142,3.82843 c -0.781,-0.78105 -2.0474,-0.78105 -2.8284,0 L 9.91421,4.5 11.482,6.06774 C 11.6472,6.02356 11.8208,6 12,6 c 1.1046,0 2,0.89543 2,2 0,0.17916 -0.0236,0.35282 -0.0677,0.51804 L 15.982,10.5677 C 16.1472,10.5236 16.3208,10.5 16.5,10.5 c 1.1046,0 2,0.8954 2,2 0,1.1046 -0.8954,2 -2,2 -1.1046,0 -2,-0.8954 -2,-2 0,-0.1792 0.0236,-0.3528 0.0677,-0.518 L 13,10.4142 v 4.8534 c 0.5978,0.3458 1,0.9921 1,1.7324 0,1.1046 -0.8954,2 -2,2 -1.1046,0 -2,-0.8954 -2,-2 0,-0.7403 0.4022,-1.3866 1,-1.7324 V 9.73244 C 10.4022,9.38663 10,8.74028 10,8 10,7.82084 10.0236,7.64718 10.0677,7.48196 L 8.5,5.91421 3.82843,10.5858 c -0.78105,0.781 -0.78105,2.0474 0,2.8284 l 6.75737,6.7574 c 0.781,0.781 2.0474,0.781 2.8284,0 l 6.7574,-6.7574 c 0.781,-0.781 0.781,-2.0474 0,-2.8284 z M 9.17157,2.41421 c 1.56213,-1.562095 4.09473,-1.562091 5.65683,10e-6 l 6.7574,6.75735 c 1.5621,1.56213 1.5621,4.09473 0,5.65683 l -6.7574,6.7574 c -1.5621,1.5621 -4.0947,1.5621 -5.65683,0 L 2.41421,14.8284 C 0.852115,13.2663 0.852119,10.7337 2.41422,9.17157 Z"
     fill="#000000"
     id="path1-178"
     style="fill:#ffffff" /></g><g
   id="SVGRepo_iconCarrier-04"
   transform="matrix(0.41365694,-0.11116805,0.11116805,0.41365694,2337.0542,-100.22231)"
   style="fill:#ffffff;fill-opacity:1"><path
     d="M 18.6713,2.62664 C 18.5628,2.36483 18.3534,2.16452 18.0959,2.07627 L 18.094,2.07564 18.0922,2.07501 18.0884,2.07374 18.0805,2.07114 18.0636,2.06583 C 18.0518,2.06223 18.039,2.05856 18.0252,2.05487 17.9976,2.04749 17.966,2.04007 17.9305,2.03319 17.8593,2.01941 17.7728,2.00787 17.6708,2.00279 17.466,1.99259 17.2037,2.00858 16.8817,2.08054 16.3447,2.20053 15.6476,2.47464 14.7724,3.03631 14.7152,3.07302 14.6572,3.11096 14.5985,3.15016 14.5397,3.13561 14.4809,3.12155 14.422,3.108 12.8261,2.74083 11.1742,2.74083 9.57825,3.108 9.51933,3.12156 9.46049,3.13561 9.40173,3.15017 9.34298,3.11096 9.28499,3.07302 9.22775,3.03631 8.35163,2.47435 7.65291,2.20029 7.11455,2.08039 6.79179,2.00852 6.52891,1.99262 6.324,2.00278 6.22186,2.00784 6.13536,2.01931 6.06428,2.03299 6.0288,2.03982 5.99732,2.04717 5.96983,2.05447 5.95609,2.05812 5.94336,2.06176 5.93163,2.06531 L 5.91481,2.07056 5.90698,2.07311 5.9032,2.07437 5.90135,2.07499 5.89952,2.07561 C 5.63979,2.16397 5.42877,2.36623 5.32049,2.63061 4.91716,3.6154 4.8101,4.70134 5.00435,5.74306 5.01379,5.79367 5.02394,5.84418 5.0348,5.89458 4.99316,5.95373 4.9527,6.01368 4.91343,6.07439 4.30771,7.01089 3.98553,8.12791 4.00063,9.27493 4.00208,11.7315 4.71965,13.4139 5.9332,14.4965 c 0.68694,0.6128 1.48423,0.9879 2.28553,1.2243 0.09169,0.0271 0.18344,0.0523 0.27508,0.0759 -0.01338,0.0465 -0.02585,0.0934 -0.0374,0.1406 -0.04852,0.1984 -0.08069,0.4021 -0.09558,0.6088 -0.00135,0.0187 -0.0022,0.0374 -0.00254,0.0561 l -0.03393,1.8188 -1.9e-4,0.0197 c 0,0.0057 0,0.0114 0,0.017 C 8.26262,18.473 8.20005,18.4843 8.13682,18.4916 7.942,18.5141 7.74467,18.4977 7.5561,18.4434 7.36752,18.3891 7.19127,18.2979 7.03752,18.1749 6.88377,18.0519 6.75553,17.8994 6.66031,17.7261 L 6.6505,17.7087 C 6.38836,17.2535 6.02627,16.8639 5.59142,16.5695 5.15656,16.275 4.6604,16.0836 4.14047,16.0099 3.59365,15.9324 3.08753,16.3128 3.01002,16.8597 c -0.07751,0.5468 0.30294,1.0529 0.84976,1.1304 0.21838,0.031 0.4271,0.1114 0.61034,0.2355 0.18109,0.1226 0.33265,0.2847 0.44328,0.4744 0.2212,0.3992 0.51825,0.7514 0.87461,1.0365 0.35952,0.2877 0.77231,0.5014 1.21471,0.6288 0.43076,0.124 0.8812,0.1638 1.32677,0.1172 9e-4,0.2399 0.00154,0.424 0.00154,0.5175 0,0.5523 0.42418,1 0.94744,1 h 5.47733 c 0.5232,0 0.9474,-0.4477 0.9474,-1 v -3.7905 c 0.0258,-0.4293 -0.0182,-0.8596 -0.1294,-1.2722 -0.0153,-0.0568 -0.0319,-0.1133 -0.0497,-0.1694 0.0597,-0.0149 0.1194,-0.0306 0.1791,-0.0471 0.8245,-0.2271 1.6481,-0.5984 2.3556,-1.2225 1.2203,-1.0766 1.9394,-2.7604 1.9408,-5.22337 C 20.0147,8.12791 19.6925,7.01089 19.0868,6.07439 19.0475,6.01358 19.007,5.95354 18.9652,5.89429 18.976,5.84399 18.9861,5.79358 18.9955,5.74306 19.1893,4.69934 19.0795,3.61142 18.6713,2.62664 Z"
     fill="#323232"
     id="path1-8"
     style="fill:#ffffff;fill-opacity:1" /></g><g
   id="SVGRepo_iconCarrier-9"
   transform="matrix(0.39673436,0.08137241,-0.08137241,0.39673436,2367.2079,-101.20862)"
   style="fill:#ffffff;fill-opacity:1"><path
     fill-rule="evenodd"
     clip-rule="evenodd"
     d="M 4.7596,2.41255 C 5.21156,1.27671 6.83902,1.33597 7.20715,2.5017 L 8.94344,7.99997 H 15.0566 L 16.7929,2.5017 c 0.3681,-1.16572 1.9956,-1.225 2.4476,-0.08915 l 2.474,6.2177 0.9564,2.40355 c 0.3103,0.7797 0.1007,1.6703 -0.5247,2.2299 l -9.4794,8.4815 c -0.3796,0.3397 -0.9539,0.3397 -1.3336,0 L 1.85387,13.2637 C 1.22844,12.7041 1.0189,11.8135 1.32917,11.0338 L 2.28554,8.63025 Z M 14.425,9.99996 H 9.57502 L 12,17.6792 Z M 9.94774,17.8219 7.47767,9.99996 H 3.89304 L 3.18746,11.7732 Z M 4.68885,7.99997 H 6.84609 L 5.89157,4.97733 Z m 9.36345,9.82193 2.4701,-7.82194 h 3.5846 l 0.7056,1.77324 z M 19.3112,7.99997 H 17.154 l 0.9545,-3.02264 z"
     fill="#000000"
     id="path1-2"
     style="fill:#ffffff;fill-opacity:1" /></g><g
   id="SVGRepo_iconCarrier-21"
   transform="matrix(0.03895494,0.01977506,-0.01977506,0.03895494,2370.7271,-74.031591)"
   style="fill:#ffffff;fill-opacity:1"><path
     d="m 231.92773,169.78029 -94.82031,65.64454 a 16.07612,16.07612 0 0 1 -18.21484,0 L 24.07227,169.78029 A 16.03981,16.03981 0 0 1 17.71973,152.50246 L 45.04883,50.0176 a 12.00012,12.00012 0 0 1 22.831,-1.12109 L 88.544,104 h 78.9121 l 20.66407,-55.10449 a 12.00021,12.00021 0 0 1 22.83056,1.12109 l 27.32959,102.48584 a 16.03981,16.03981 0 0 1 -6.35259,17.27785 z"
     id="path1-0"
     style="fill:#ffffff;fill-opacity:1" /></g><g
   id="SVGRepo_iconCarrier-85"
   transform="matrix(0.38413135,0.17540317,-0.1762386,0.38596091,2372.0376,-78.453434)"
   style="fill:#ffffff;fill-opacity:1"><g
     id="g11"
     transform="matrix(0.68570831,-0.7244261,0.73134321,0.68570832,-66.629441,54.290324)"><path
       d="M 4.0744,2.9938 C 4.13263,1.96371 4.37869,1.51577 5.08432,1.15606 5.84357,0.768899 7.04106,0.949072 8.45014,1.66261 c 0.60692,0.30748 0.66872,0.31374 1.73236,0.17737 1.4138,-0.18133 3.2339,-0.18069 4.5388,0.00166 0.9868,0.1379 1.0516,0.13101 1.66,-0.17711 2.0001,-1.012851 3.5792,-0.94658 4.151,0.17417 0.2854,0.55942 0.3384,2.01101 0.1171,3.20825 -0.1227,0.66374 -0.1097,0.74661 0.1859,1.18217 2.0797,3.06473 0.5812,8.03248 -2.9825,9.88638 -0.2727,0.1419 -0.5025,0.2297 -0.6898,0.3012 -0.5751,0.2196 -0.7497,0.2863 -0.5383,1.2971 0.1018,0.4862 0.2244,1.695 0.2726,2.6864 0.0871,1.792 0.0858,1.8045 -0.2285,2.1701 -0.4278,0.4973 -1.0444,0.5057 -1.4622,0.0199 -0.2725,-0.3168 -0.2991,-0.4664 -0.2991,-1.6887 0,-1.8063 -0.198,-3.0069 -0.6658,-4.0357 -0.5563,-1.2243 -0.1439,-1.6808 1.1283,-1.9544 1.7683,-0.3804 3.1494,-1.4717 3.9192,-3.0968 0.7319,-1.5448 0.8422,-3.67959 -0.481,-4.97792 C 18.4319,6.3895 18.4057,5.98446 18.6744,4.76309 18.7748,4.3066 18.859,3.71768 18.8615,3.45425 18.8653,3.03823 18.8274,2.97541 18.5719,2.97541 c -0.1617,0 -0.7795,0.23521 -1.3727,0.52264 l -0.9468,0.4589 C 16.1663,3.99866 16.07,4.0147 15.975,4.0038 13.5675,3.72746 11.2799,3.72319 8.86062,4.00488 8.76526,4.01598 8.66853,3.99994 8.58215,3.95802 L 7.63585,3.49882 C 7.04259,3.21087 6.42482,2.97541 6.26317,2.97541 5.88941,2.97541 5.88379,3.25135 6.22447,4.89078 6.43258,5.89203 6.57262,6.11513 5.97101,6.91572 5.06925,8.11576 4.844,9.60592 5.32757,11.1716 c 0.60947,1.973 2.10193,3.3059 4.20016,3.7506 1.26487,0.2681 1.59547,0.6179 1.11247,2.0683 -0.3802,1.1414 -0.6206,1.4356 -1.17313,1.4356 -0.74342,0 -1.20911,-0.644 -0.95283,-1.3179 0.11288,-0.297 0.0793,-0.3287 -0.61713,-0.5827 C 5.77117,15.7504 4.14514,14.0131 3.40172,11.7223 2.82711,9.95184 3.07994,7.64739 4.00175,6.25453 4.31561,5.78028 4.32047,5.74006 4.174,4.83217 4.09113,4.31822 4.04631,3.49103 4.0744,2.9938 Z"
       fill="#0f0f0f"
       id="path1-06"
       style="fill:#ffffff;fill-opacity:1" /><path
       d="M 3.33203,15.9454 C 3.02568,15.4859 2.40481,15.3617 1.94528,15.6681 c -0.45952,0.3063 -0.5837,0.9272 -0.27735,1.3867 0.22617,0.3393 0.49674,0.618 0.72651,0.8477 0.04236,0.0424 0.08352,0.0833 0.12371,0.1232 0.19247,0.1912 0.36241,0.36 0.53309,0.5604 0.37751,0.4431 0.75412,1.0399 0.96816,2.1101 0.09534,0.4767 0.43799,0.7335 0.62785,0.8457 0.2059,0.1216 0.43087,0.1933 0.616,0.24 0.37871,0.0955 0.83844,0.1451 1.27474,0.174 0.47896,0.0318 0.99793,0.0421 1.462,0.0449 3.4e-4,0.5519 0.44792,0.9993 0.99999,0.9993 0.55229,0 1,-0.4477 1,-1 v -1 c 0,-0.5523 -0.44771,-1 -1,-1 -0.09427,0 -0.19626,3e-4 -0.30429,7e-4 C 8.10883,20.0026 7.34388,20.0049 6.67018,19.9603 6.34531,19.9388 6.07825,19.9083 5.88241,19.871 5.58083,18.6871 5.09362,17.8994 4.57373,17.2891 4.34391,17.0194 4.10593,16.7834 3.91236,16.5914 3.87612,16.5555 3.84144,16.5211 3.80865,16.4883 3.5853,16.265 3.4392,16.1062 3.33203,15.9454 Z"
       fill="#0f0f0f"
       id="path2-4"
       style="fill:#ffffff;fill-opacity:1" /></g></g><style
   id="style2">.st0{fill:#4c4c4c}</style>&#10;  &#10;  &#10;  &#10;  &#10;  &#10;  &#10;  &#10;  &#10;  &#10;  &#10;  &#10;  &#10;  &#10;  &#10;  &#10;  &#10;<title
   id="title4">SFML Logo</title></g></svg>
