<?xml version="1.0" encoding="UTF-8" standalone="no"?>
<!-- Created with Inkscape (http://www.inkscape.org/) -->

<svg
   width="200.38379"
   height="200.38416"
   viewBox="0 0 53.018211 53.018308"
   version="1.1"
   id="svg5"
   xml:space="preserve"
   inkscape:version="1.3 (0e150ed6c4, 2023-07-21)"
   sodipodi:docname="mockup.svg"
   xmlns:inkscape="http://www.inkscape.org/namespaces/inkscape"
   xmlns:sodipodi="http://sodipodi.sourceforge.net/DTD/sodipodi-0.dtd"
   xmlns="http://www.w3.org/2000/svg"
   xmlns:svg="http://www.w3.org/2000/svg"><sodipodi:namedview
     id="namedview7"
     pagecolor="#505050"
     bordercolor="#eeeeee"
     borderopacity="1"
     inkscape:showpageshadow="0"
     inkscape:pageopacity="0"
     inkscape:pagecheckerboard="0"
     inkscape:deskcolor="#505050"
     inkscape:document-units="mm"
     showgrid="false"
     showborder="false"
     inkscape:zoom="1.4142136"
     inkscape:cx="9044.6028"
     inkscape:cy="-212.48559"
     inkscape:window-width="2558"
     inkscape:window-height="1418"
     inkscape:window-x="0"
     inkscape:window-y="0"
     inkscape:window-maximized="1"
     inkscape:current-layer="layer1"
     inkscape:export-bgcolor="#00000000" /><defs
     id="defs2" /><g
     inkscape:label="Livello 1"
     inkscape:groupmode="layer"
     id="layer1"
     transform="translate(-2399.9473,46.713203)"><rect
   style="fill:none;fill-opacity:1;stroke:none;stroke-width:0.212703;stroke-linecap:round;stroke-linejoin:round;stroke-opacity:1"
   id="rect6-9-5-6-9-5-3-6"
   width="53.018307"
   height="53.018307"
   x="2399.9473"
   y="-46.713203" /><path
   fill-rule="nonzero"
   d="m 2426.4566,-15.593878 3.4476,-0.937258 0.4648,-5.057906 h -6.1317 l -0.1523,-1.681989 h 6.4366 l 0.1692,-1.6499 h -8.4695 l 0.4746,4.983283 h 5.8354 l -0.1946,2.138678 -1.8804,0.497731 -1.8807,-0.497731 -0.1184,-1.376038 h -1.6939 l 0.2454,2.64462 z m -6.7162,-12.072411 h 13.4321 l -1.2111,13.432032 -5.5048,1.492446 -5.5049,-1.492446 z"
   id="path2-7"
   style="fill:#ffffff;fill-opacity:1;stroke-width:0.746223" /><g
   id="SVGRepo_iconCarrier-97"
   transform="matrix(0.49679393,0.0977063,-0.0977063,0.49679393,2440.2615,-9.4176317)"
   style="fill:#ffffff;fill-opacity:1"><path
     fill-rule="nonzero"
     clip-rule="nonzero"
     d="m 3,1.60001 c -0.13807,0 -0.25,0.11192 -0.25,0.25 v 9.55029 c 0,0.0893 0.04769,0.1719 0.12509,0.2165 l 4.85872,2.8026 c 0.07561,0.0436 0.1685,0.0446 0.24505,0.0027 L 13.1201,11.6048 C 13.2002,11.5609 13.25,11.4769 13.25,11.3856 V 1.85001 c 0,-0.13808 -0.1119,-0.25 -0.25,-0.25 z m -1.75,0.25 C 1.25,0.883508 2.0335,0.100006 3,0.100006 h 10 c 0.9665,0 1.75,0.783503 1.75,1.750004 v 9.53559 c 0,0.6392 -0.3485,1.2275 -0.909,1.5347 L 8.69968,15.7375 C 8.16383,16.0311 7.51363,16.024 6.98434,15.7187 L 2.12562,12.9162 C 1.58382,12.6037 1.25,12.0258 1.25,11.4003 Z m 3.75,2.5 c 0,-0.41422 0.33579,-0.75 0.75,-0.75 h 4.6154 c 0.4142,0 0.75,0.33578 0.75,0.75 v 6.09619 c 0,0.284 -0.1605,0.5437 -0.4146,0.6708 l -2.3077,1.1538 c -0.21114,0.1056 -0.45967,0.1056 -0.67082,0 L 5.41459,11.117 C 5.1605,10.9899 5,10.7302 5,10.4462 V 9.86924 c 0,-0.41422 0.33579,-0.75 0.75,-0.75 0.41421,0 0.75,0.33578 0.75,0.75 V 9.98263 L 8.05769,10.7615 9.61539,9.98263 V 8.31154 H 7 c -0.41421,0 -0.75,-0.33578 -0.75,-0.75 0,-0.41421 0.33579,-0.75 0.75,-0.75 H 9.61539 V 5.10001 H 5.75 C 5.33579,5.10001 5,4.76422 5,4.35001 Z"
     fill="#000000"
     id="path1-82"
     style="fill:#ffffff;fill-opacity:1" /></g><g
   id="SVGRepo_iconCarrier-02"
   transform="matrix(0.47378801,-0.09992237,0.09992237,0.47378801,2406.8688,-39.667183)"
   style="fill:#ffffff;fill-opacity:1"><path
     fill-rule="nonzero"
     clip-rule="nonzero"
     d="M 0,1.75 C 0,0.783501 0.783502,0 1.75,0 h 12.5 C 15.2165,0 16,0.783502 16,1.75 v 2 C 16,4.16421 15.6642,4.5 15.25,4.5 14.8358,4.5 14.5,4.16421 14.5,3.75 v -2 C 14.5,1.61193 14.3881,1.5 14.25,1.5 H 1.75 C 1.61193,1.5 1.5,1.61193 1.5,1.75 v 12.5 c 0,0.1381 0.11193,0.25 0.25,0.25 h 13.5 C 15.6642,14.5 16,14.8358 16,15.25 16,15.6642 15.6642,16 15.25,16 H 1.75 C 0.783501,16 0,15.2165 0,14.25 Z m 8.25,4 C 8.66421,5.75 9,6.08579 9,6.5 v 4 C 9,11.5048 8.72399,12.2584 8.15514,12.7324 7.61223,13.1848 6.95384,13.25 6.5,13.25 c -0.41421,0 -0.75,-0.3358 -0.75,-0.75 0,-0.4142 0.33579,-0.75 0.75,-0.75 0.34617,0 0.56277,-0.0598 0.69486,-0.1699 C 7.301,11.4916 7.5,11.2452 7.5,10.5 v -4 C 7.5,6.08579 7.83578,5.75 8.25,5.75 Z m 3.0257,0.83011 C 11.6944,6.08164 12.3507,5.75 13.25,5.75 c 0.8349,0 1.4648,0.28567 1.8894,0.73481 0.2845,0.30102 0.2711,0.77571 -0.0299,1.06024 C 14.8085,7.82958 14.3338,7.81621 14.0493,7.51519 13.9394,7.39898 13.7204,7.25 13.25,7.25 12.7493,7.25 12.5306,7.41836 12.4243,7.54489 12.2934,7.70065 12.25,7.896 12.25,8 c 0,0.104 0.0434,0.29935 0.1743,0.45511 0.1063,0.12653 0.325,0.29489 0.8257,0.29489 0.0757,0 0.1488,0.01121 0.2176,0.03207 0.6631,0.09439 1.1643,0.39044 1.5067,0.79804 C 15.3684,10.0493 15.5,10.604 15.5,11 c 0,0.396 -0.1316,0.9507 -0.5257,1.4199 C 14.5556,12.9184 13.8993,13.25 13,13.25 c -0.8349,0 -1.4648,-0.2857 -1.8894,-0.7348 -0.2845,-0.301 -0.2711,-0.7757 0.0299,-1.0603 0.301,-0.2845 0.7757,-0.2711 1.0602,0.0299 0.1099,0.1162 0.3289,0.2652 0.7993,0.2652 0.5007,0 0.7194,-0.1684 0.8257,-0.2949 C 13.9566,11.2993 14,11.104 14,11 14,10.896 13.9566,10.7007 13.8257,10.5449 13.7194,10.4184 13.5007,10.25 13,10.25 12.9243,10.25 12.8512,10.2388 12.7824,10.2179 12.1193,10.1235 11.6181,9.82749 11.2757,9.41989 10.8816,8.95065 10.75,8.396 10.75,8 c 0,-0.396 0.1316,-0.95065 0.5257,-1.41989 z"
     fill="#000000"
     id="path1-01"
     style="fill:#ffffff;fill-opacity:1" /></g><g
   id="SVGRepo_iconCarrier-073"
   transform="matrix(0.19716814,-0.11674029,0.11674029,0.19716814,2406.948,-6.5490474)"
   style="fill:#ffffff;fill-opacity:1"><title
     id="title1-1">npm</title><path
     d="M 7.415,7.656 24.706,7.68 24.695,24.97 H 20.366 L 20.378,11.996 H 16.059 L 16.049,24.96 H 7.393 Z M 3.207,1.004 c -0.002,0 -0.003,0 -0.005,0 -1.214,0 -2.198,0.984 -2.198,2.198 0,0.002 0,0.004 0,0.006 v 0 25.585 c 0,0.002 0,0.003 0,0.005 0,1.214 0.984,2.198 2.198,2.198 0.002,0 0.004,0 0.006,0 h 25.585 c 0.002,0 0.003,0 0.005,0 1.214,0 2.198,-0.984 2.198,-2.198 0,-0.002 0,-0.004 0,-0.006 v 0 -25.585 c 0,-0.002 0,-0.003 0,-0.005 0,-1.214 -0.984,-2.198 -2.198,-2.198 -0.002,0 -0.004,0 -0.006,0 v 0 z"
     id="path1-190"
     style="fill:#ffffff;fill-opacity:1" /></g><g
   id="SVGRepo_iconCarrier-40"
   transform="matrix(0.66336795,0.28548006,-0.28548006,0.66336795,2437.3695,-43.446864)"
   style="fill:#ffffff;fill-opacity:1"><path
     fill-rule="nonzero"
     clip-rule="nonzero"
     d="M 2.71337,2.26484 C 2.99697,2.20756 3.28823,2.31853 3.46183,2.55 l 1.46684,1.95579 c 0.24853,0.33137 0.18137,0.80147 -0.15,1.05 -0.33137,0.24853 -0.80147,0.18137 -1.05,-0.15 L 3.20727,4.71058 3.10049,5.13769 C 3.01702,5.47156 2.71703,5.70579 2.37288,5.70579 2.18636,5.70579 2.07197,5.75842 1.98844,5.82585 1.89481,5.90144 1.79923,6.03028 1.72217,6.23195 1.56516,6.64285 1.54026,7.21582 1.6371,7.72008 1.67433,7.85422 1.71333,7.9038 1.72925,7.92087 1.74326,7.93588 1.77481,7.9646 1.87158,7.99415 c 0.25159,0.07682 0.64519,0.08473 1.39653,0.08473 1.544,0 2.50401,0.69193 2.50401,1.627 0,0.27898 -0.05822,0.70342 -0.26547,1.08722 -0.2248,0.4163 -0.66396,0.8321 -1.36153,0.8321 -0.03549,0 -0.07094,-0.0025 -0.10607,-0.0075 -0.53153,-0.076 -0.8425,0.1133 -1.06343,0.3795 -0.04546,0.0548 -0.08713,0.1134 -0.12511,0.1744 H 7.97439 C 7.82513,11.8299 7.75,11.4382 7.75,11 7.75,10.694 7.78714,10.3631 7.92291,10.0474 8.06519,9.71661 8.29781,9.4445 8.61915,9.24119 9.21016,8.86727 10.0685,8.75 11.1612,8.75 c 0.4142,0 0.75,0.33578 0.75,0.75 0,0.41421 -0.3358,0.75 -0.75,0.75 -1.0686,0 -1.54079,0.1327 -1.74006,0.2588 C 9.34733,10.5555 9.31987,10.5959 9.30087,10.6401 9.27535,10.6994 9.25,10.806 9.25,11 c 0,0.3613 0.0824,0.5693 0.16564,0.6936 0.08394,0.1253 0.20737,0.2231 0.38365,0.2993 0.35431,0.1532 0.80511,0.1755 1.23261,0.1783 0.3472,-0.1338 0.8393,-0.4027 1.2505,-0.8029 0.447,-0.4351 0.7598,-0.9834 0.7598,-1.66242 0,-0.73241 -0.2587,-1.17096 -0.5384,-1.44107 C 12.2239,7.99451 11.892,7.8649 11.6844,7.82487 H 6.4838 c -0.41422,0 -0.75,-0.33579 -0.75,-0.75 0,-0.41421 0.33578,-0.75 0.75,-0.75 h 5.262 c 0.0355,0 0.071,0.00252 0.1061,0.00754 0.4801,0.06859 1.1422,0.32064 1.6939,0.8534 0.4607,0.44489 0.8247,1.06752 0.9497,1.88629 C 14.5497,8.71988 14.58,8.32721 14.58,7.88947 14.58,5.88504 14.0961,4.91992 13.6088,4.46163 13.1301,4.01143 12.4935,3.90684 11.8388,3.98868 11.4278,4.04006 11.053,3.74851 11.0016,3.3375 10.9502,2.92648 11.2418,2.55164 11.6528,2.50026 c 0.9044,-0.11305 2.06,6e-5 2.9836,0.86868 0.915,0.86053 1.4436,2.31535 1.4436,4.52053 0,2.26673 -0.7089,3.77633 -1.7549,4.69473 -1.0177,0.8937 -2.2557,1.1399 -3.186,1.0874 -0.005,0 -0.01,0 -0.0151,0 -0.0264,0 -0.0544,0 -0.0837,0 H 1.80644 c -0.21512,0 -0.41989,-0.0924 -0.56226,-0.2537 C 1.10181,13.2566 1.03555,13.042 1.06223,12.8285 1.12353,12.3382 1.33866,11.6211 1.82121,11.0395 2.32181,10.4361 3.10125,9.99943 4.16047,10.1211 4.16663,10.1136 4.17578,10.1008 4.18679,10.0804 4.21111,10.0353 4.2341,9.97197 4.2504,9.89588 4.25834,9.85883 4.26372,9.82333 4.26714,9.79141 4.26066,9.78616 4.25286,9.78026 4.24353,9.77378 4.14638,9.70632 3.87464,9.57888 3.26811,9.57888 c -0.02964,0 -0.05931,10e-6 -0.08899,3e-5 C 2.55606,9.57925 1.92752,9.5796 1.43352,9.42876 1.14574,9.34088 0.865145,9.19346 0.632595,8.94427 0.402712,8.69793 0.263699,8.39916 0.180213,8.07837 0.176611,8.06453 0.173406,8.05059 0.170601,8.03656 0.028046,7.32379 0.0365785,6.44081 0.320985,5.69653 0.465792,5.31758 0.695062,4.9422 1.04622,4.65871 1.25761,4.48805 1.49951,4.36203 1.76703,4.28684 L 2.13422,2.81809 C 2.20439,2.5374 2.42976,2.32211 2.71337,2.26484 Z m 1.58217,7.55462 c -7e-5,3e-5 -7.6e-4,-8.5e-4 -0.00187,-0.00271 0.00139,0.00176 0.00194,0.00269 0.00187,0.00271 z"
     fill="#000000"
     id="path1-64"
     style="fill:#ffffff;fill-opacity:1" /></g><style
   id="style2">.st0{fill:#4c4c4c}</style>&#10;  &#10;  &#10;  &#10;  &#10;  &#10;  &#10;  &#10;  &#10;  &#10;  &#10;  &#10;  &#10;  &#10;  &#10;  &#10;  &#10;<title
   id="title4">SFML Logo</title></g></svg>
